<svg xmlns="http://www.w3.org/2000/svg" xmlns:xlink="http://www.w3.org/1999/xlink" fill="none" version="1.1" width="512" height="512" viewBox="0 0 512 512"><defs><clipPath id="master_svg0_29_5492"><rect x="0" y="0" width="512" height="512" rx="0"/></clipPath><filter id="master_svg1_29_0304" filterUnits="objectBoundingBox" color-interpolation-filters="sRGB" x="-20" y="-16" width="144.23059844970703" height="455.19317626953125"><feFlood flood-opacity="0" result="BackgroundImageFix"/><feColorMatrix in="SourceAlpha" type="matrix" values="0 0 0 0 0 0 0 0 0 0 0 0 0 0 0 0 0 0 127 0"/><feOffset dy="4" dx="0"/><feGaussianBlur stdDeviation="5"/><feColorMatrix type="matrix" values="0 0 0 0 0 0 0 0 0 0 0 0 0 0 0 0 0 0 0.3019607961177826 0"/><feBlend mode="normal" in2="BackgroundImageFix" result="effect1_dropShadow"/><feBlend mode="normal" in="SourceGraphic" in2="effect1_dropShadow" result="shape"/></filter><linearGradient x1="0" y1="0" x2="1" y2="1" id="master_svg2_29_7675"><stop offset="0%" stop-color="#F26E01" stop-opacity="1"/><stop offset="100%" stop-color="#98FF11" stop-opacity="1"/></linearGradient><filter id="master_svg3_29_5266" filterUnits="objectBoundingBox" color-interpolation-filters="sRGB" x="-20" y="-16" width="63.966697692871094" height="62.1361083984375"><feFlood flood-opacity="0" result="BackgroundImageFix"/><feColorMatrix in="SourceAlpha" type="matrix" values="0 0 0 0 0 0 0 0 0 0 0 0 0 0 0 0 0 0 127 0"/><feOffset dy="4" dx="0"/><feGaussianBlur stdDeviation="5"/><feColorMatrix type="matrix" values="0 0 0 0 0 0 0 0 0 0 0 0 0 0 0 0 0 0 0.3019607961177826 0"/><feBlend mode="normal" in2="BackgroundImageFix" result="effect1_dropShadow"/><feBlend mode="normal" in="SourceGraphic" in2="effect1_dropShadow" result="shape"/></filter></defs><g style="mix-blend-mode:passthrough" clip-path="url(#master_svg0_29_5492)"><g style="mix-blend-mode:passthrough" transform="matrix(0.7065348029136658,0.7076782584190369,-0.7065348029136658,0.7076783180236816,158.0875570428302,-237.50196967560805)" filter="url(#master_svg1_29_0304)"><path d="M422.8020191894531,406.29300762939454L421.9284191894531,147.80920762939454Q421.92761918945314,147.56380762939455,421.9388191894531,147.31850762939453Q421.95001918945314,147.07330762939455,421.9732191894531,146.82890762939454Q421.9965191894531,146.58450762939452,422.03171918945316,146.34160762939453Q422.06691918945313,146.09860762939454,422.11401918945313,145.85770762939453Q422.1610191894531,145.61680762939454,422.2199191894531,145.37840762939453Q422.2787191894531,145.14010762939455,422.34921918945315,144.90500762939453Q422.41971918945313,144.66980762939454,422.5016191894531,144.43840762939453Q422.5835191894531,144.20700762939452,422.67671918945314,143.97990762939452Q422.76981918945313,143.75270762939454,422.87411918945315,143.53050762939455Q422.97831918945315,143.30820762939453,423.09331918945315,143.09130762939452Q423.20821918945313,142.8744076293945,423.3337191894531,142.66340762939453Q423.4592191894531,142.45240762939454,423.5949191894531,142.24790762939455Q423.73061918945314,142.04330762939452,423.87621918945314,141.84560762939452Q424.02181918945314,141.64800762939453,424.1768191894531,141.45770762939452Q424.3319191894531,141.26740762939454,424.49621918945314,141.08490762939454Q424.66041918945314,140.90250762939453,424.83341918945314,140.72830762939452Q425.00641918945314,140.55410762939454,425.18781918945314,140.38870762939453Q425.3691191894531,140.22320762939455,425.55831918945313,140.06680762939453Q425.74761918945313,139.9104076293945,425.9442191894531,139.76350762939452Q426.14091918945314,139.61660762939454,426.3446191894531,139.47960762939454Q426.5482191894531,139.34250762939453,426.7584191894531,139.21560762939453Q426.9685191894531,139.08870762939455,427.18461918945314,138.97220762939452Q427.4007191894531,138.85580762939452,427.62231918945315,138.75000762939453Q427.84381918945314,138.64430762939452,428.07031918945313,138.54960762939453Q428.2968191894531,138.45490762939454,428.5276191894531,138.37140762939453Q428.7585191894531,138.28800762939454,428.9932191894531,138.21590762939454Q429.2278191894531,138.14380762939453,429.4658191894531,138.08340762939451Q429.7037191894531,138.02290762939452,429.94431918945315,137.97420762939453Q430.1849191894531,137.92550762939453,430.42761918945314,137.88870762939453Q430.67031918945315,137.85190762939453,430.9146191894531,137.82700762939453Q431.15881918945314,137.80210762939453,431.4039191894531,137.78920762939453Q431.64911918945313,137.77630762939452,431.8946191894531,137.77550762939453Q432.14001918945314,137.77470762939453,432.3853191894531,137.78590762939453Q432.63051918945314,137.79710762939453,432.8749191894531,137.82030762939453Q433.1193191894531,137.8436076293945,433.3622191894531,137.87880762939454Q433.6052191894531,137.91400762939452,433.84611918945313,137.96100762939454Q434.08701918945314,138.00810762939454,434.3253191894531,138.06700762939454Q434.56371918945314,138.12580762939453,434.7988191894531,138.19630762939454Q435.03401918945315,138.26670762939455,435.26541918945316,138.34870762939454Q435.4968191894531,138.43060762939453,435.7239191894531,138.52380762939453Q435.9510191894531,138.61690762939452,436.17331918945314,138.72110762939454Q436.3956191894531,138.82540762939453,436.6125191894531,138.9403076293945Q436.8294191894531,139.05530762939452,437.04031918945316,139.18080762939454Q437.2513191894531,139.30630762939452,437.45591918945314,139.44200762939454Q437.6605191894531,139.57770762939452,437.8582191894531,139.72330762939453Q438.05581918945313,139.86880762939452,438.2461191894531,140.02390762939453Q438.4364191894531,140.17900762939453,438.6189191894531,140.34330762939453Q438.8013191894531,140.50750762939452,438.9755191894531,140.68050762939453Q439.1496191894531,140.85350762939453,439.3151191894531,141.03480762939455Q439.48061918945314,141.21620762939455,439.6370191894531,141.40540762939452Q439.79331918945314,141.59460762939455,439.94021918945316,141.79130762939454Q440.0872191894531,141.98800762939453,440.22421918945315,142.19170762939453Q440.3613191894531,142.39530762939455,440.4882191894531,142.60540762939453Q440.61511918945314,142.81560762939455,440.7316191894531,143.03170762939453Q440.8480191894531,143.24780762939452,440.9537191894531,143.46940762939454Q441.05941918945314,143.69090762939453,441.1542191894531,143.91740762939452Q441.2489191894531,144.14390762939453,441.33231918945313,144.37470762939455Q441.41581918945315,144.6056076293945,441.4879191894531,144.84030762939454Q441.5599191894531,145.07490762939454,441.6204191894531,145.31290762939454Q441.68081918945313,145.5508076293945,441.72951918945313,145.79140762939454Q441.7782191894531,146.0320076293945,441.8151191894531,146.27470762939453Q441.85191918945316,146.51740762939454,441.87681918945316,146.76160762939452Q441.9017191894531,147.00590762939453,441.9146191894531,147.25100762939454Q441.9275191894531,147.49620762939452,441.92831918945313,147.74160762939454L442.80191918945314,406.22600762939453Q442.8027191894531,406.47100762939453,442.79151918945314,406.71600762939454Q442.7803191894531,406.9620076293945,442.7570191894531,407.20600762939455Q442.73381918945313,407.4500076293945,442.6986191894531,407.6930076293945Q442.6634191894531,407.9360076293945,442.6163191894531,408.17700762939455Q442.5692191894531,408.41800762939454,442.51041918945316,408.6570076293945Q442.4515191894531,408.8950076293945,442.3811191894531,409.1300076293945Q442.3106191894531,409.36500762939454,442.22871918945316,409.5970076293945Q442.14681918945314,409.8280076293945,442.0536191894531,410.05500762939454Q441.9604191894531,410.2820076293945,441.8562191894531,410.5050076293945Q441.7520191894531,410.7270076293945,441.6370191894531,410.94400762939455Q441.5220191894531,411.16100762939453,441.3965191894531,411.37200762939455Q441.2710191894531,411.58300762939456,441.1353191894531,411.7870076293945Q440.99961918945314,411.99200762939455,440.8541191894531,412.18900762939455Q440.7085191894531,412.38700762939453,440.5534191894531,412.57700762939453Q440.3983191894531,412.7680076293945,440.2341191894531,412.9500076293945Q440.06981918945314,413.1330076293945,439.89681918945314,413.30700762939455Q439.72381918945314,413.4810076293945,439.5425191894531,413.64600762939455Q439.3612191894531,413.81200762939454,439.1719191894531,413.96800762939455Q438.9827191894531,414.12500762939453,438.7860191894531,414.27100762939455Q438.58931918945314,414.41800762939454,438.38571918945314,414.55500762939454Q438.1820191894531,414.69200762939454,437.97191918945316,414.81900762939455Q437.76181918945315,414.94600762939456,437.5457191894531,415.0630076293945Q437.3296191894531,415.1790076293945,437.1080191894531,415.28500762939456Q436.88641918945314,415.39100762939455,436.6600191894531,415.48500762939454Q436.43351918945314,415.5800076293945,436.2026191894531,415.6640076293945Q435.97181918945313,415.74700762939455,435.7371191894531,415.81900762939455Q435.5024191894531,415.89100762939455,435.26451918945315,415.95200762939453Q435.02661918945313,416.01200762939453,434.7860191894531,416.0610076293945Q434.54531918945315,416.1090076293945,434.30261918945314,416.14600762939455Q434.0599191894531,416.1830076293945,433.81571918945315,416.20800762939456Q433.5715191894531,416.23300762939454,433.32641918945313,416.2460076293945Q433.0812191894531,416.25900762939455,432.83571918945313,416.2600076293945Q432.59021918945314,416.2600076293945,432.3450191894531,416.24900762939455Q432.0998191894531,416.23800762939453,431.85541918945313,416.2150076293945Q431.61101918945315,416.1910076293945,431.3681191894531,416.15600762939454Q431.12511918945313,416.1210076293945,430.8842191894531,416.07400762939454Q430.64321918945313,416.0270076293945,430.40491918945315,415.96800762939455Q430.1666191894531,415.9090076293945,429.9314191894531,415.83900762939453Q429.6963191894531,415.7680076293945,429.4649191894531,415.6860076293945Q429.2334191894531,415.6040076293945,429.0063191894531,415.51100762939456Q428.7792191894531,415.41800762939454,428.55691918945314,415.31400762939455Q428.33471918945315,415.2100076293945,428.11781918945314,415.09500762939456Q427.90091918945313,414.98000762939455,427.6899191894531,414.8540076293945Q427.4789191894531,414.7290076293945,427.27431918945314,414.59300762939455Q427.06981918945314,414.4570076293945,426.87211918945314,414.31200762939454Q426.67441918945315,414.1660076293945,426.4841191894531,414.01100762939456Q426.2939191894531,413.8560076293945,426.1114191894531,413.69200762939454Q425.92901918945313,413.5270076293945,425.75481918945314,413.3540076293945Q425.5806191894531,413.1810076293945,425.4151191894531,413.00000762939453Q425.2497191894531,412.81900762939455,425.09331918945315,412.6300076293945Q424.93691918945314,412.44000762939453,424.7900191894531,412.24400762939456Q424.6431191894531,412.04700762939456,424.5060191894531,411.84300762939455Q424.3690191894531,411.6400076293945,424.24211918945315,411.43000762939454Q424.11511918945314,411.2190076293945,423.99871918945314,411.0030076293945Q423.8822191894531,410.7870076293945,423.7765191894531,410.5660076293945Q423.67081918945314,410.3440076293945,423.57611918945315,410.1180076293945Q423.4814191894531,409.89100762939455,423.39791918945315,409.66000762939456Q423.31441918945313,409.4290076293945,423.24241918945313,409.1950076293945Q423.17031918945315,408.9600076293945,423.10991918945314,408.7220076293945Q423.04941918945315,408.4840076293945,423.0007191894531,408.24400762939456Q422.95201918945315,408.0030076293945,422.9152191894531,407.7600076293945Q422.8783191894531,407.5180076293945,422.8534191894531,407.27300762939456Q422.82861918945315,407.0290076293945,422.81571918945315,406.7840076293945Q422.80281918945315,406.5390076293945,422.8020191894531,406.29300762939454ZM411.8602191894531,147.58940762939454L409.84331918945315,404.97000762939456Q409.84131918945315,405.21600762939454,409.8274191894531,405.46100762939454Q409.81341918945316,405.70600762939455,409.78741918945315,405.9500076293945Q409.7615191894531,406.19400762939455,409.7235191894531,406.43700762939454Q409.6856191894531,406.6790076293945,409.6358191894531,406.92000762939455Q409.58611918945314,407.16000762939456,409.52451918945314,407.39800762939456Q409.4630191894531,407.6350076293945,409.3899191894531,407.87000762939454Q409.3168191894531,408.1040076293945,409.2323191894531,408.3350076293945Q409.1478191894531,408.56500762939453,409.05211918945315,408.7910076293945Q408.95641918945313,409.0170076293945,408.84971918945314,409.23800762939453Q408.7430191894531,409.45900762939453,408.6256191894531,409.67500762939454Q408.50821918945314,409.8900076293945,408.38031918945313,410.10000762939455Q408.2525191894531,410.31000762939453,408.1145191894531,410.5130076293945Q407.97651918945314,410.71600762939454,407.8287191894531,410.9120076293945Q407.6809191894531,411.10800762939454,407.5237191894531,411.2960076293945Q407.36651918945313,411.48500762939454,407.20021918945315,411.66500762939455Q407.03401918945315,411.84600762939453,406.85901918945314,412.0180076293945Q406.6841191894531,412.19000762939453,406.50091918945316,412.3540076293945Q406.3177191894531,412.5170076293945,406.1267191894531,412.67200762939456Q405.9358191894531,412.82600762939455,405.73741918945314,412.97000762939456Q405.5391191894531,413.11500762939454,405.3339191894531,413.25000762939453Q405.1288191894531,413.3850076293945,404.91721918945314,413.50900762939455Q404.70571918945313,413.63400762939455,404.48831918945314,413.7480076293945Q404.27091918945314,413.86200762939455,404.0482191894531,413.9650076293945Q403.8254191894531,414.0680076293945,403.59791918945314,414.16000762939456Q403.3704191894531,414.2530076293945,403.13861918945315,414.33300762939456Q402.90681918945313,414.4140076293945,402.67131918945313,414.4840076293945Q402.4359191894531,414.55300762939453,402.19731918945314,414.6110076293945Q401.9587191894531,414.6690076293945,401.7176191894531,414.7150076293945Q401.4764191894531,414.76100762939456,401.23331918945314,414.79500762939455Q400.9902191894531,414.82900762939454,400.7457191894531,414.85100762939453Q400.5013191894531,414.8730076293945,400.2560191894531,414.8830076293945Q400.01071918945314,414.89400762939454,399.76521918945315,414.8920076293945Q399.5197191894531,414.8900076293945,399.2747191894531,414.8760076293945Q399.0296191894531,414.86200762939455,398.7855191894531,414.83600762939454Q398.54131918945313,414.81000762939453,398.2988191894531,414.7720076293945Q398.0563191894531,414.7340076293945,397.8159191894531,414.68400762939456Q397.57551918945313,414.63400762939455,397.3378191894531,414.5730076293945Q397.1002191894531,414.51100762939456,396.86581918945313,414.4380076293945Q396.6315191894531,414.36500762939454,396.4010191894531,414.28100762939454Q396.1705191894531,414.19600762939456,395.9445191894531,414.10000762939455Q395.71841918945313,414.0050076293945,395.49731918945315,413.89800762939456Q395.2762191894531,413.7910076293945,395.0606191894531,413.6740076293945Q394.8451191894531,413.55700762939455,394.63551918945313,413.4290076293945Q394.4259191894531,413.3010076293945,394.22291918945314,413.16300762939454Q394.01981918945313,413.0250076293945,393.8238191894531,412.87700762939454Q393.62781918945313,412.7290076293945,393.4393191894531,412.57200762939453Q393.25071918945315,412.41500762939455,393.0701191894531,412.24900762939455Q392.88951918945315,412.0820076293945,392.7173191894531,411.9070076293945Q392.54511918945315,411.73200762939456,392.3817191894531,411.5490076293945Q392.2182191894531,411.3660076293945,392.0640191894531,411.17500762939454Q391.9098191894531,410.9840076293945,391.7651191894531,410.78600762939453Q391.6204191894531,410.5870076293945,391.48561918945313,410.38200762939454Q391.35081918945315,410.17700762939455,391.22631918945314,409.96600762939454Q391.10171918945315,409.75400762939455,390.9877191894531,409.5370076293945Q390.87371918945314,409.31900762939455,390.7705191894531,409.09600762939453Q390.66721918945314,408.87400762939455,390.5751191894531,408.64600762939455Q390.4829191894531,408.4190076293945,390.40201918945314,408.18700762939454Q390.3211191894531,407.9550076293945,390.2517191894531,407.72000762939456Q390.1823191894531,407.4840076293945,390.1245191894531,407.2460076293945Q390.0667191894531,407.00700762939454,390.02071918945313,406.76600762939455Q389.97471918945314,406.5250076293945,389.9406191894531,406.2820076293945Q389.90651918945315,406.0390076293945,389.8844191894531,405.7940076293945Q389.8622191894531,405.55000762939454,389.8521191894531,405.3040076293945Q389.84201918945314,405.05900762939456,389.8439191894531,404.81400762939455L391.86081918945314,147.43270762939454Q391.8627191894531,147.18720762939455,391.8767191894531,146.9421076293945Q391.89071918945314,146.69700762939453,391.9166191894531,146.45290762939453Q391.9426191894531,146.20880762939453,391.9805191894531,145.96620762939455Q392.01841918945314,145.72370762939454,392.06821918945315,145.48330762939452Q392.11801918945315,145.24290762939455,392.1795191894531,145.00530762939454Q392.24101918945314,144.76760762939455,392.3141191894531,144.53330762939453Q392.3872191894531,144.29890762939453,392.4717191894531,144.06840762939453Q392.55621918945315,143.83800762939453,392.65201918945314,143.61190762939452Q392.7477191894531,143.38580762939455,392.8544191894531,143.16480762939455Q392.96111918945314,142.94370762939454,393.0785191894531,142.72810762939451Q393.19591918945315,142.51250762939452,393.3238191894531,142.30290762939453Q393.45161918945314,142.09340762939453,393.5896191894531,141.89030762939453Q393.72761918945315,141.68730762939452,393.87531918945314,141.49130762939453Q394.02311918945315,141.29520762939453,394.18031918945314,141.10670762939452Q394.3376191894531,140.91820762939454,394.5038191894531,140.73760762939452Q394.67011918945315,140.55700762939455,394.8451191894531,140.38480762939452Q395.02001918945314,140.21250762939454,395.20321918945314,140.04910762939454Q395.38641918945314,139.88570762939452,395.57731918945314,139.73140762939454Q395.7683191894531,139.57720762939454,395.9666191894531,139.43250762939454Q396.16491918945314,139.28780762939454,396.37011918945313,139.15300762939455Q396.5753191894531,139.0182076293945,396.7868191894531,138.89370762939453Q396.9984191894531,138.7691076293945,397.2158191894531,138.65510762939454Q397.4332191894531,138.54110762939453,397.65591918945313,138.43790762939454Q397.8786191894531,138.33470762939453,398.1062191894531,138.24250762939454Q398.3337191894531,138.15030762939455,398.56551918945314,138.06950762939454Q398.7973191894531,137.98860762939455,399.03271918945313,137.91920762939452Q399.26821918945313,137.84970762939452,399.50681918945315,137.79190762939453Q399.7454191894531,137.73420762939452,399.98651918945313,137.68820762939453Q400.2276191894531,137.64220762939453,400.4707191894531,137.6081076293945Q400.7139191894531,137.5739076293945,400.9583191894531,137.55180762939455Q401.2028191894531,137.52960762939455,401.4481191894531,137.51950762939452Q401.69341918945315,137.50940762939453,401.93891918945315,137.51130762939454Q402.1843191894531,137.51320762939451,402.42941918945314,137.52720762939452Q402.6745191894531,137.54120762939453,402.9186191894531,137.56720762939455Q403.1627191894531,137.59310762939452,403.4053191894531,137.63110762939453Q403.6478191894531,137.6690076293945,403.88821918945314,137.71880762939452Q404.1286191894531,137.76850762939455,404.36621918945315,137.83000762939452Q404.6039191894531,137.89150762939454,404.8382191894531,137.96470762939452Q405.0726191894531,138.03780762939454,405.3031191894531,138.12230762939453Q405.5335191894531,138.20680762939452,405.75961918945313,138.30250762939454Q405.9857191894531,138.39820762939453,406.2067191894531,138.50490762939455Q406.42781918945315,138.61160762939454,406.64341918945314,138.72900762939452Q406.85901918945314,138.84640762939455,407.0686191894531,138.97430762939453Q407.27811918945315,139.10210762939454,407.4812191894531,139.24010762939452Q407.68421918945313,139.37810762939455,407.8802191894531,139.52580762939454Q408.0763191894531,139.67360762939452,408.26481918945314,139.83080762939454Q408.4533191894531,139.98810762939453,408.63391918945314,140.15430762939454Q408.8145191894531,140.32060762939454,408.9868191894531,140.49560762939453Q409.15901918945315,140.67050762939454,409.3224191894531,140.85370762939453Q409.48581918945314,141.03690762939453,409.6401191894531,141.22780762939453Q409.7943191894531,141.41880762939454,409.9390191894531,141.61710762939452Q410.0837191894531,141.81550762939452,410.2185191894531,142.02060762939453Q410.3532191894531,142.22580762939452,410.4778191894531,142.43730762939452Q410.6023191894531,142.64890762939453,410.7164191894531,142.86630762939453Q410.8304191894531,143.08370762939452,410.9336191894531,143.30640762939453Q411.0368191894531,143.52920762939453,411.1290191894531,143.75670762939453Q411.22111918945313,143.98420762939452,411.3020191894531,144.21600762939454Q411.3829191894531,144.44780762939453,411.45231918945314,144.68330762939453Q411.52181918945314,144.91870762939453,411.5795191894531,145.15730762939455Q411.63731918945314,145.39590762939451,411.68331918945313,145.63700762939453Q411.7293191894531,145.87820762939452,411.7635191894531,146.12130762939455Q411.79761918945314,146.36440762939452,411.8197191894531,146.60890762939454Q411.8419191894531,146.85330762939452,411.85201918945313,147.09860762939454Q411.8621191894531,147.34390762939455,411.8602191894531,147.58940762939454ZM362.90050918945315,404.2800076293945L397.2968191894531,395.2220076293945Q398.7533191894531,394.83800762939455,400.25821918945314,394.90100762939454L433.21651918945315,396.2680076293945Q434.0411191894531,396.30200762939455,434.8489191894531,396.47100762939453L471.62641918945315,404.1620076293945Q471.86641918945315,404.2120076293945,472.1034191894531,404.27400762939453Q472.3414191894531,404.33600762939454,472.5754191894531,404.41000762939456Q472.80941918945314,404.4840076293945,473.04041918945313,404.56900762939455Q473.27041918945315,404.6540076293945,473.49641918945315,404.75000762939453Q473.72241918945315,404.84600762939453,473.94341918945315,404.9530076293945Q474.1634191894531,405.06000762939453,474.37941918945313,405.17800762939453Q474.5944191894531,405.2960076293945,474.8034191894531,405.4240076293945Q475.01341918945315,405.55200762939455,475.21541918945314,405.6910076293945Q475.4184191894531,405.82900762939454,475.61441918945314,405.9770076293945Q475.8104191894531,406.12500762939453,475.9984191894531,406.28300762939455Q476.1864191894531,406.44000762939453,476.36641918945315,406.60700762939456Q476.54741918945314,406.77400762939453,476.7194191894531,406.94900762939454Q476.89041918945316,407.12400762939455,477.05441918945314,407.3080076293945Q477.21741918945315,407.4910076293945,477.3704191894531,407.6830076293945Q477.5244191894531,407.87400762939455,477.66941918945315,408.0730076293945Q477.81341918945316,408.27100762939455,477.9474191894531,408.4770076293945Q478.0824191894531,408.68200762939455,478.20641918945313,408.89400762939454Q478.3304191894531,409.1060076293945,478.44441918945313,409.3230076293945Q478.5574191894531,409.5410076293945,478.66041918945314,409.76400762939454Q478.76341918945315,409.98700762939455,478.8544191894531,410.21400762939453Q478.94641918945314,410.44200762939454,479.0274191894531,410.6740076293945Q479.10741918945314,410.90600762939454,479.1764191894531,411.1420076293945Q479.2454191894531,411.37700762939454,479.30241918945313,411.6160076293945Q479.3604191894531,411.85500762939455,479.40541918945314,412.09600762939453Q479.45141918945313,412.3370076293945,479.4844191894531,412.5800076293945Q479.51841918945314,412.8230076293945,479.54041918945313,413.0680076293945Q479.5614191894531,413.31200762939454,479.57141918945314,413.5580076293945Q479.5804191894531,413.80300762939453,479.57841918945314,414.0490076293945Q479.57641918945313,414.2940076293945,479.5614191894531,414.5390076293945Q479.54741918945314,414.7840076293945,479.52041918945315,415.02800762939455Q479.49441918945314,415.2720076293945,479.4554191894531,415.5150076293945Q479.41741918945314,415.75700762939454,479.36741918945313,415.99700762939455Q479.3174191894531,416.23800762939453,479.2554191894531,416.47500762939455Q479.19341918945315,416.71300762939455,479.11941918945314,416.94700762939453Q479.0454191894531,417.1810076293945,478.9614191894531,417.4120076293945Q478.87641918945315,417.6420076293945,478.7794191894531,417.8680076293945Q478.6834191894531,418.0940076293945,478.57641918945313,418.31400762939455Q478.4694191894531,418.53500762939456,478.3514191894531,418.7510076293945Q478.2334191894531,418.96600762939454,478.10541918945313,419.17500762939454Q477.97741918945314,419.3850076293945,477.83841918945313,419.5870076293945Q477.7004191894531,419.79000762939455,477.55241918945313,419.9860076293945Q477.4044191894531,420.18200762939455,477.24641918945315,420.37000762939454Q477.08841918945313,420.5580076293945,476.92241918945314,420.73800762939453Q476.7554191894531,420.9190076293945,476.5804191894531,421.09100762939454Q476.40541918945314,421.26200762939453,476.2214191894531,421.42500762939454Q476.0384191894531,421.58900762939453,475.8464191894531,421.74200762939455Q475.65541918945314,421.89600762939455,475.4574191894531,422.0410076293945Q475.2584191894531,422.18500762939453,475.05241918945313,422.31900762939455Q474.84741918945315,422.45400762939454,474.63541918945316,422.5780076293945Q474.4234191894531,422.70200762939453,474.20641918945313,422.8160076293945Q473.9884191894531,422.9290076293945,473.76541918945316,423.0320076293945Q473.54241918945314,423.1350076293945,473.3154191894531,423.22600762939453Q473.08741918945316,423.3180076293945,472.85541918945313,423.39900762939453Q472.6234191894531,423.4790076293945,472.3874191894531,423.54800762939453Q472.1524191894531,423.61700762939455,471.9134191894531,423.6740076293945Q471.67441918945315,423.7310076293945,471.4334191894531,423.7770076293945Q471.1924191894531,423.8230076293945,470.9494191894531,423.8560076293945Q470.70641918945313,423.8900076293945,470.4614191894531,423.91100762939453Q470.21741918945315,423.9330076293945,469.9714191894531,423.9430076293945Q469.7264191894531,423.95200762939453,469.4814191894531,423.9500076293945Q469.2354191894531,423.9480076293945,468.9904191894531,423.9330076293945Q468.7454191894531,423.9190076293945,468.50141918945315,423.8920076293945Q468.2574191894531,423.8660076293945,468.0144191894531,423.82700762939453Q467.7724191894531,423.7890076293945,467.5324191894531,423.7390076293945L430.75501918945315,416.04800762939453L432.80191918945314,406.2600076293945L432.38731918945314,416.2510076293945L399.42901918945313,414.8830076293945L399.84361918945314,404.8920076293945L402.3903191894531,414.56200762939454L367.9939991894531,423.6210076293945Q367.7566091894531,423.6830076293945,367.51643918945314,423.7340076293945Q367.2762591894531,423.78500762939456,367.03388918945313,423.82400762939454Q366.7915091894531,423.86300762939453,366.54750918945314,423.8900076293945Q366.30351718945315,423.9170076293945,366.0584891894531,423.93200762939455Q365.8134621894531,423.94700762939453,365.56799418945315,423.9500076293945Q365.3225258894531,423.9530076293945,365.07720818945313,423.94400762939455Q364.83189018945313,423.93500762939453,364.58731318945314,423.91300762939454Q364.34273918945314,423.8920076293945,364.09948918945315,423.8590076293945Q363.8562391894531,423.82600762939455,363.6149091894531,423.78100762939454Q363.37357918945315,423.7360076293945,363.13474918945315,423.6790076293945Q362.89591918945314,423.6230076293945,362.6601591894531,423.5540076293945Q362.42439918945314,423.4860076293945,362.19227918945313,423.40600762939454Q361.9601691894531,423.32600762939455,361.7322491894531,423.23500762939454Q361.50432918945313,423.14400762939454,361.28115918945315,423.0410076293945Q361.05799918945314,422.93900762939455,360.84010918945313,422.82600762939455Q360.62222918945315,422.71300762939455,360.41016918945314,422.58900762939453Q360.1980991894531,422.46600762939454,359.99234918945314,422.3320076293945Q359.7865991894531,422.1980076293945,359.5876791894531,422.0540076293945Q359.3887491894531,421.91000762939456,359.19711918945313,421.75700762939454Q359.0054891894531,421.60300762939454,358.82161918945314,421.4410076293945Q358.63774918945313,421.27800762939455,358.4620791894531,421.1060076293945Q358.28640918945314,420.93500762939453,358.11936918945315,420.7550076293945Q357.9523291894531,420.5750076293945,357.79430918945314,420.38700762939453Q357.6362991894531,420.19900762939454,357.48768918945314,420.00400762939455Q357.33908918945315,419.80900762939456,357.20024918945313,419.6060076293945Q357.0614091894531,419.4040076293945,356.9326691894531,419.1950076293945Q356.80392918945313,418.9860076293945,356.6855991894531,418.77100762939455Q356.56727918945313,418.5560076293945,356.4596491894531,418.3350076293945Q356.3520091894531,418.1140076293945,356.25533918945314,417.88900762939454Q356.15865918945315,417.66300762939454,356.0731791894531,417.4330076293945Q355.98768918945314,417.2030076293945,355.9135991894531,416.9690076293945Q355.8395091894531,416.73500762939454,355.7769891894531,416.49700762939455Q355.7144691894531,416.2600076293945,355.6636691894531,416.0200076293945Q355.6128791894531,415.7800076293945,355.5739291894531,415.5370076293945Q355.5349791894531,415.29500762939455,355.50796918945315,415.0510076293945Q355.48095918945313,414.80700762939455,355.4659491894531,414.56200762939454Q355.4509491894531,414.31700762939454,355.4479891894531,414.07100762939456Q355.44501918945315,413.82600762939455,355.45409918945313,413.5800076293945Q355.46318918945315,413.3350076293945,355.4842991894531,413.09100762939454Q355.50540918945313,412.84600762939453,355.53849918945315,412.60300762939454Q355.57157918945313,412.3590076293945,355.61655918945314,412.1180076293945Q355.66153918945315,411.87700762939454,355.7183091894531,411.6380076293945Q355.77507918945315,411.39900762939453,355.8434991894531,411.16300762939454Q355.9119191894531,410.92800762939453,355.99182918945314,410.69600762939456Q356.07172918945315,410.46300762939455,356.1629291894531,410.2360076293945Q356.2541291894531,410.0080076293945,356.3563991894531,409.7840076293945Q356.45866918945313,409.5610076293945,356.5717691894531,409.34300762939455Q356.68486918945314,409.12500762939453,356.80851918945314,408.91300762939454Q356.9321791894531,408.70100762939455,357.0660891894531,408.4960076293945Q357.19999918945314,408.29000762939455,357.34383918945315,408.09100762939454Q357.48768918945314,407.8920076293945,357.64111918945315,407.7000076293945Q357.7945491894531,407.50900762939455,357.95719918945315,407.3250076293945Q358.11984918945313,407.14100762939455,358.2913291894531,406.9650076293945Q358.4627991894531,406.79000762939455,358.6426891894531,406.6230076293945Q358.8225791894531,406.45600762939455,359.01044918945314,406.29800762939453Q359.1983191894531,406.13900762939454,359.3937191894531,405.9910076293945Q359.5891091894531,405.8420076293945,359.7915691894531,405.7030076293945Q359.9940191894531,405.56500762939453,360.20303918945314,405.4360076293945Q360.41205918945315,405.30700762939455,360.6271491894531,405.18900762939455Q360.84223918945315,405.07100762939456,361.0628691894531,404.96300762939455Q361.28349918945315,404.85500762939455,361.5091491894531,404.75900762939455Q361.7347991894531,404.6620076293945,361.9649191894531,404.57600762939455Q362.1950391894531,404.4910076293945,362.42907918945315,404.4170076293945Q362.66311918945314,404.34300762939455,362.90050918945315,404.2800076293945ZM469.5794191894531,157.77540762939452L431.92831918945313,157.77540762939452L401.7726191894531,157.51060762939454L365.51985918945314,157.77520762939452Q365.27437938945314,157.77700762939452,365.0291081894531,157.76670762939455Q364.7838361894531,157.75640762939452,364.5393641894531,157.73410762939454Q364.2948891894531,157.71190762939455,364.05180918945314,157.67760762939452Q363.80871918945314,157.64330762939454,363.56760918945315,157.59720762939452Q363.3264991894531,157.55100762939452,363.0879491894531,157.49310762939453Q362.8493891894531,157.43520762939454,362.6139591894531,157.36570762939454Q362.37853918945314,157.29610762939453,362.1468091894531,157.21510762939454Q361.91507918945314,157.13410762939452,361.6875991894531,157.04180762939453Q361.4601191894531,156.94950762939453,361.2374491894531,156.84610762939454Q361.0147791894531,156.74280762939452,360.79743918945314,156.62860762939454Q360.58010918945314,156.51450762939453,360.3686391894531,156.3898076293945Q360.1571691894531,156.26510762939455,359.95206918945314,156.13020762939453Q359.7469691894531,155.99530762939452,359.5487291894531,155.85050762939454Q359.3504991894531,155.7057076293945,359.15960918945314,155.55140762939453Q358.9687191894531,155.39700762939452,358.78563918945315,155.23350762939452Q358.6025491894531,155.07000762939452,358.42770918945314,154.89770762939452Q358.2528691894531,154.72530762939454,358.0866891894531,154.54460762939453Q357.9205191894531,154.36400762939454,357.7634091894531,154.17530762939452Q357.6062991894531,153.98670762939452,357.45863918945315,153.79060762939451Q357.31096918945315,153.5945076293945,357.1731091894531,153.39140762939454Q357.0352491894531,153.18820762939453,356.9075191894531,152.97860762939453Q356.77978918945314,152.76900762939454,356.66248918945314,152.5533076293945Q356.5451991894531,152.33770762939452,356.4386391894531,152.11650762939453Q356.33206918945314,151.89540762939453,356.2364791894531,151.66930762939455Q356.1408891894531,151.44310762939455,356.0565191894531,151.21260762939454Q355.9721391894531,150.98210762939453,355.8991691894531,150.74770762939454Q355.82620918945315,150.51330762939455,355.7648291894531,150.27560762939453Q355.7034491894531,150.0379076293945,355.65381918945315,149.79750762939454Q355.60417918945313,149.55710762939452,355.5663891894531,149.31450762939454Q355.5286091894531,149.07200762939453,355.5027791894531,148.82790762939453Q355.4769391894531,148.58370762939452,355.4631091894531,148.33860762939452Q355.4492891894531,148.09350762939454,355.4475091894531,147.84810762939452Q355.44571918945314,147.60260762939453,355.45598918945313,147.35730762939454Q355.46624918945315,147.11200762939453,355.48853918945315,146.8676076293945Q355.51082918945315,146.62310762939453,355.54507918945313,146.38000762939453Q355.57933918945315,146.13690762939453,355.62547918945313,145.89580762939454Q355.6716191894531,145.65470762939452,355.72953918945313,145.41610762939453Q355.7874591894531,145.17760762939452,355.85700918945315,144.94220762939455Q355.9265691894531,144.70670762939454,356.00758918945314,144.47500762939453Q356.0886091894531,144.24330762939454,356.1808991894531,144.01580762939454Q356.2731991894531,143.78830762939452,356.3765391894531,143.56560762939455Q356.4798891894531,143.34300762939455,356.5940291894531,143.12560762939455Q356.7081791894531,142.90830762939453,356.8328491894531,142.69680762939453Q356.95751918945314,142.48540762939453,357.09241918945315,142.28030762939454Q357.2273191894531,142.07520762939453,357.37211918945314,141.87690762939454Q357.5169191894531,141.67870762939452,357.6712791894531,141.48780762939452Q357.82562918945314,141.29690762939452,357.9891591894531,141.11380762939453Q358.1526891894531,140.93070762939453,358.3250091894531,140.75590762939453Q358.4973291894531,140.58110762939452,358.6780291894531,140.41490762939452Q358.8587191894531,140.24870762939452,359.0473391894531,140.09160762939453Q359.2359691894531,139.93450762939455,359.43207918945313,139.78680762939453Q359.6281891894531,139.63920762939455,359.8313091894531,139.50130762939455Q360.03442918945314,139.36340762939454,360.2440691894531,139.23570762939454Q360.45370918945315,139.10800762939454,360.66935918945313,138.99070762939454Q360.8850091894531,138.87340762939453,361.10615918945314,138.76680762939452Q361.3273091894531,138.66030762939454,361.5534191894531,138.56470762939455Q361.7795291894531,138.46910762939453,362.0100591894531,138.38470762939454Q362.24058918945315,138.30030762939452,362.4749791894531,138.22740762939452Q362.7093791894531,138.15440762939454,362.94706918945315,138.09300762939455Q363.18475918945313,138.03160762939453,363.42516918945313,137.98200762939453Q363.6655891894531,137.93240762939453,363.9081491894531,137.89460762939453Q364.15070918945315,137.85680762939455,364.3948301894531,137.83100762939455Q364.6389531894531,137.8051076293945,364.88405018945315,137.79130762939454Q365.12914618945314,137.77750762939453,365.37462628945315,137.77570762939453L401.94841918945315,137.5114076293945L431.92831918945313,137.77540762939452L469.5794191894531,137.77540762939452Q469.8244191894531,137.77540762939452,470.06941918945313,137.78750762939453Q470.31441918945313,137.79950762939453,470.55941918945314,137.82360762939453Q470.8034191894531,137.84770762939453,471.0464191894531,137.88370762939454Q471.28941918945316,137.91970762939454,471.5294191894531,137.96760762939454Q471.77041918945315,138.01550762939453,472.0084191894531,138.07510762939455Q472.2474191894531,138.13480762939452,472.4814191894531,138.20600762939455Q472.7164191894531,138.27730762939453,472.9474191894531,138.36000762939454Q473.17941918945314,138.44270762939453,473.40541918945314,138.53660762939455Q473.6324191894531,138.63060762939455,473.8544191894531,138.73550762939453Q474.07641918945313,138.84050762939455,474.2934191894531,138.95620762939453Q474.5094191894531,139.07190762939453,474.72041918945314,139.19820762939452Q474.9304191894531,139.32440762939453,475.1344191894531,139.46070762939453Q475.33841918945313,139.59710762939454,475.5364191894531,139.74340762939454Q475.7334191894531,139.88960762939453,475.9234191894531,140.04530762939453Q476.11241918945314,140.20110762939453,476.29441918945315,140.36590762939454Q476.4764191894531,140.53080762939453,476.65041918945315,140.70440762939455Q476.82341918945315,140.87800762939452,476.9884191894531,141.05980762939453Q477.15341918945313,141.2417076293945,477.30941918945314,141.43150762939453Q477.4644191894531,141.62130762939455,477.61141918945316,141.81840762939453Q477.7574191894531,142.01560762939454,477.89341918945314,142.21970762939452Q478.03041918945314,142.42390762939453,478.1564191894531,142.63440762939453Q478.2824191894531,142.84500762939453,478.39841918945314,143.06150762939453Q478.5144191894531,143.27800762939455,478.6184191894531,143.49990762939453Q478.7234191894531,143.72180762939453,478.8174191894531,143.94860762939453Q478.9114191894531,144.17540762939453,478.99441918945314,144.40650762939453Q479.0774191894531,144.63770762939453,479.14841918945314,144.87260762939454Q479.2194191894531,145.10750762939455,479.2794191894531,145.34560762939452Q479.3394191894531,145.58380762939453,479.38641918945314,145.82450762939453Q479.43441918945314,146.0653076293945,479.47041918945314,146.30810762939453Q479.50641918945314,146.55100762939452,479.53041918945314,146.79530762939453Q479.5554191894531,147.03960762939454,479.5674191894531,147.28480762939455Q479.5794191894531,147.53000762939453,479.5794191894531,147.77540762939452Q479.5794191894531,148.02090762939451,479.5674191894531,148.26610762939453Q479.5554191894531,148.51130762939454,479.53041918945314,148.75560762939455Q479.50641918945314,148.99990762939453,479.47041918945314,149.24270762939454Q479.43441918945314,149.48560762939454,479.38641918945314,149.7263076293945Q479.3394191894531,149.96710762939455,479.2794191894531,150.20520762939452Q479.2194191894531,150.44340762939453,479.14841918945314,150.6783076293945Q479.0774191894531,150.91320762939455,478.99441918945314,151.14430762939452Q478.9114191894531,151.37550762939452,478.8174191894531,151.60230762939455Q478.7234191894531,151.8291076293945,478.6184191894531,152.05100762939452Q478.5144191894531,152.27290762939452,478.39841918945314,152.48940762939452Q478.2824191894531,152.70590762939452,478.1564191894531,152.91650762939452Q478.03041918945314,153.12700762939454,477.89341918945314,153.33110762939452Q477.7574191894531,153.53530762939454,477.61141918945316,153.73240762939452Q477.4644191894531,153.92960762939452,477.30941918945314,154.11940762939452Q477.15341918945313,154.30910762939453,476.9884191894531,154.49100762939452Q476.82341918945315,154.67290762939453,476.65041918945315,154.84650762939452Q476.4764191894531,155.02010762939454,476.29441918945315,155.18490762939453Q476.11241918945314,155.34980762939455,475.9234191894531,155.50550762939451Q475.7334191894531,155.6613076293945,475.5364191894531,155.80750762939454Q475.33841918945313,155.95370762939453,475.1344191894531,156.09010762939454Q474.9304191894531,156.22650762939452,474.72041918945314,156.35270762939453Q474.5094191894531,156.47890762939454,474.2934191894531,156.59470762939452Q474.07641918945313,156.71040762939452,473.8544191894531,156.8153076293945Q473.6324191894531,156.92030762939453,473.40541918945314,157.01420762939455Q473.17941918945314,157.10820762939454,472.9474191894531,157.19090762939453Q472.7164191894531,157.27360762939452,472.4814191894531,157.34480762939455Q472.2474191894531,157.41610762939453,472.0084191894531,157.47570762939455Q471.77041918945315,157.5354076293945,471.5294191894531,157.58330762939454Q471.28941918945316,157.63120762939454,471.0464191894531,157.6672076293945Q470.8034191894531,157.7032076293945,470.55941918945314,157.72730762939455Q470.31441918945313,157.75140762939452,470.06941918945313,157.76340762939452Q469.8244191894531,157.77540762939452,469.5794191894531,157.77540762939452ZM398.09771918945313,492.11000762939454L356.73959918945314,418.8680076293945Q356.4232191894531,418.30700762939455,356.1812591894531,417.71100762939454Q355.93929918945315,417.11500762939454,355.77573918945313,416.4930076293945Q355.6121791894531,415.87000762939454,355.52971918945315,415.23200762939456Q355.4472591894531,414.5940076293945,355.4472591894531,413.95100762939455L355.4472391894531,147.77540762939452L365.4472426894531,147.77540762939452L355.45177918945313,148.07650762939454Q354.19931918945315,106.49660762939453,368.32807918945315,84.92330762939453Q376.05851918945314,73.11952762939453,388.1669191894531,67.31740762939454Q399.9098191894531,61.69040762939453,415.27681918945314,62.01800762939453Q430.47541918945313,62.34205762939453,442.3622191894531,68.19429762939453Q454.50191918945313,74.17099762939453,462.7753191894531,85.66850762939453Q478.1764191894531,107.07110762939453,479.57341918945315,147.42960762939452Q479.5794191894531,147.60250762939455,479.5794191894531,147.77540762939452L479.5794191894531,413.95100762939455Q479.5794191894531,414.56500762939453,479.5034191894531,415.17500762939454Q479.4284191894531,415.78500762939456,479.2794191894531,416.3810076293945Q479.1304191894531,416.9770076293945,478.9084191894531,417.55000762939454Q478.6874191894531,418.1230076293945,478.39841918945314,418.66500762939455L439.59111918945314,491.25900762939455Q439.4359191894531,491.5490076293945,439.2620191894531,491.82900762939454Q439.0881191894531,492.10800762939454,438.8962191894531,492.37500762939453Q438.70431918945314,492.6430076293945,438.4952191894531,492.8970076293945Q438.28611918945313,493.15100762939454,438.0608191894531,493.39100762939455Q437.8354191894531,493.6310076293945,437.5948191894531,493.8560076293945Q437.35421918945315,494.0800076293945,437.0993191894531,494.28800762939454Q436.84451918945314,494.49700762939455,436.5765191894531,494.6880076293945Q436.30851918945314,494.87900762939455,436.0285191894531,495.05200762939455Q435.74851918945313,495.22500762939455,435.45771918945314,495.37900762939455Q435.1669191894531,495.53300762939455,434.86671918945314,495.66800762939454Q434.56641918945314,495.80300762939453,434.2579191894531,495.9170076293945Q433.9495191894531,496.0320076293945,433.63411918945314,496.1260076293945Q433.31871918945313,496.22000762939456,432.9979191894531,496.2940076293945Q432.6770191894531,496.36700762939455,432.35201918945313,496.4190076293945Q432.02701918945314,496.47100762939453,431.69931918945315,496.50200762939454Q431.3716191894531,496.5320076293945,431.04261918945315,496.5410076293945L407.07591918945315,497.19000762939453Q406.7372191894531,497.19900762939454,406.3987191894531,497.18500762939453Q406.06011918945313,497.1710076293945,405.72331918945315,497.13400762939455Q405.3865191894531,497.09800762939454,405.0529191894531,497.03800762939454Q404.71931918945313,496.9790076293945,404.39051918945313,496.8970076293945Q404.06171918945313,496.81500762939453,403.73921918945314,496.7120076293945Q403.41671918945315,496.60800762939454,403.10201918945313,496.48200762939456Q402.7873191894531,496.35700762939456,402.4818191894531,496.2100076293945Q402.17621918945315,496.06400762939455,401.8813191894531,495.8970076293945Q401.5864191894531,495.73000762939455,401.30351918945314,495.5440076293945Q401.0206191894531,495.35700762939456,400.75091918945316,495.1520076293945Q400.48131918945313,494.94700762939453,400.22611918945313,494.7240076293945Q399.9709191894531,494.5010076293945,399.73151918945314,494.26100762939456Q399.4920191894531,494.0220076293945,399.26931918945314,493.76600762939455Q399.04651918945314,493.51100762939456,398.8416191894531,493.2410076293945Q398.6367191894531,492.97100762939453,398.45051918945313,492.6880076293945Q398.26431918945315,492.4050076293945,398.09771918945313,492.11000762939454ZM415.5131191894531,482.27600762939454L406.8054191894531,487.1930076293945L406.53491918945315,477.19700762939453L430.5016191894531,476.54800762939453L430.7721191894531,486.54500762939455L421.9531191894531,481.8300076293945L460.76001918945315,409.2360076293945L469.5794191894531,413.95100762939455L459.5790191894531,413.95100762939455L459.5790191894531,147.77540762939452L469.5794191894531,147.77540762939452L459.58501918945313,148.12130762939455Q458.39811918945315,113.82730762939454,446.5414191894531,97.35010762939453Q441.1859191894531,89.90760762939453,433.5283191894531,86.13760762939454Q425.61781918945314,82.24300762939453,414.8505191894531,82.01350762939452Q404.2516191894531,81.78748762939453,396.8095191894531,85.35360762939453Q389.73281918945315,88.74460762939452,385.05921918945313,95.88080762939452Q379.9286191894531,103.71470762939452,377.4932191894531,116.13900762939454Q374.89767918945313,129.38020762939453,375.4427191894531,147.47440762939453Q375.4472191894531,147.62490762939453,375.4472191894531,147.77540762939452L375.4472191894531,413.95100762939455L365.4472548894531,413.95100762939455L374.1549091894531,409.0340076293945L415.5131191894531,482.27600762939454Z" fill="url(#master_svg2_29_7675)" fill-opacity="1"/></g><g style="mix-blend-mode:passthrough" transform="matrix(0.7065348625183105,0.7076782584190369,-0.7065348029136658,0.7076783180236816,309.26705382014006,44.45206093417664)" filter="url(#master_svg3_29_5266)"><path d="M104.14267709228515,422.94320620117185L92.00928709228515,401.4556162011719Q91.88858709228515,401.24185620117186,91.77851709228516,401.02242620117187Q91.66844709228516,400.8029962011719,91.56926709228516,400.5784362011719Q91.47009709228516,400.3538762011719,91.38206709228515,400.12471620117185Q91.29403709228515,399.89555620117187,91.21735709228516,399.66235620117186Q91.14066709228516,399.42915620117185,91.07552709228516,399.1924662011719Q91.01037709228515,398.95578620117186,90.95691709228515,398.71618620117187Q90.90346709228515,398.4765962011719,90.86182709228515,398.2346662011719Q90.82019709228516,397.99273620117185,90.79048709228516,397.74905620117187Q90.76076709228516,397.50536620117185,90.74304709228515,397.2605262011719Q90.72532709228516,397.01567620117186,90.71963709228515,396.7702582011719Q90.71395709228516,396.52483820117186,90.72031709228516,396.27943420117185Q90.72667709228516,396.0340302011719,90.74507709228516,395.7892342011719Q90.76347709228516,395.5444392011719,90.79386709228515,395.30084020117187Q90.82424709228516,395.0572422011719,90.86654709228516,394.8154262011719Q90.90885709228516,394.5736162011719,90.96296709228515,394.33416620117185Q91.01708709228515,394.0947162011719,91.08288709228516,393.8582162011719Q91.14868709228516,393.62171620117186,91.22601709228516,393.3887262011719Q91.30333709228516,393.15573620117186,91.39200709228516,392.9268162011719Q91.48067709228516,392.69790620117186,91.58046709228516,392.47361620117186Q91.68025709228516,392.24932620117187,91.79092709228516,392.0302062011719Q91.90160709228516,391.81108620117186,92.02290709228515,391.5976562011719Q92.14419709228515,391.38423620117186,92.27581709228515,391.17701620117185Q92.40743709228516,390.9697962011719,92.54906709228516,390.7692862011719Q92.69069709228515,390.5687762011719,92.84199709228515,390.37545620117186Q92.99329709228516,390.1821362011719,93.15389709228515,389.9964762011719Q93.31449709228515,389.8108062011719,93.48401709228516,389.63324620117186Q93.65353709228516,389.45569620117186,93.83155709228515,389.2866662011719Q94.00958709228516,389.1176362011719,94.19568709228516,388.95754620117185Q94.38179709228515,388.79746620117186,94.57553709228516,388.6466962011719Q94.76926709228516,388.4959362011719,94.97016709228515,388.35485620117186Q95.17106709228516,388.2137862011719,95.37865709228515,388.0827362011719Q95.58623709228516,387.95168620117187,95.79999709228515,387.83098620117187Q96.33070709228515,387.5313062011719,96.89389709228516,387.29829620117187Q97.45707709228516,387.0652862011719,98.04438709228516,386.9023962011719Q98.63169709228515,386.7395062011719,99.23444709228515,386.6491562011719Q99.83719509228516,386.5587962011719,100.44645309228515,386.54230620117187L124.41315709228516,385.8937662011719Q124.65855709228515,385.8871062011719,124.90395709228515,385.8925362011719Q125.14935709228516,385.89794620117186,125.39425709228516,385.9153862011719Q125.63915709228516,385.9328362011719,125.88285709228515,385.9622762011719Q126.12655709228515,385.9917062011719,126.36855709228516,386.03307620117187Q126.61055709228515,386.07443620117186,126.85015709228516,386.12761620117186Q127.08985709228516,386.1808062011719,127.32655709228516,386.24568620117185Q127.56335709228516,386.31056620117187,127.79665709228516,386.38698620117185Q128.02995709228514,386.4634062011719,128.25915709228516,386.55117620117187Q128.48845709228516,386.63894620117185,128.71305709228517,386.73786620117187Q128.93775709228515,386.8367862011719,129.15735709228517,386.9466062011719Q129.37685709228515,387.05642620117186,129.59075709228514,387.17689620117187Q129.80465709228517,387.29735620117185,130.01245709228516,387.42816620117185Q130.22015709228515,387.5589862011719,130.42115709228517,387.6998362011719Q130.62225709228517,387.8406762011719,130.81615709228515,387.99122620117186Q131.01005709228517,388.1417662011719,131.19635709228515,388.3016462011719Q131.38265709228517,388.46152620117186,131.56085709228515,388.63034620117185Q131.73905709228515,388.79917620117186,131.90875709228516,388.97654620117186Q132.07855709228517,389.1539062011719,132.23935709228516,389.3393962011719Q132.40015709228516,389.5248762011719,132.55165709228515,389.7180262011719Q132.70315709228515,389.9111762011719,132.84505709228517,390.1115262011719Q132.98685709228516,390.31187620117186,133.11875709228516,390.5189462011719Q133.25055709228516,390.7260162011719,133.37215709228516,390.9392962011719Q133.49365709228516,391.1525962011719,133.60455709228515,391.37158620117185Q133.71555709228517,391.5905862011719,133.81555709228516,391.81475620117186Q133.91555709228516,392.03893620117185,134.00455709228515,392.26774620117186Q134.09345709228515,392.4965662011719,134.17105709228514,392.7294662011719Q134.24865709228516,392.9623662011719,134.31465709228516,393.1987962011719Q134.38075709228517,393.4352262011719,134.43515709228515,393.67460620117185Q134.48955709228517,393.91399620117187,134.53215709228516,394.1557662011719Q134.57465709228515,394.3975262011719,134.60535709228515,394.6410962011719Q134.63605709228517,394.8846562011719,134.65465709228516,395.1294312011719Q134.67335709228516,395.3742062011719,134.67995709228515,395.61960220117186Q134.69755709228517,396.2677392011719,134.63125709228515,396.91271620117186Q134.56495709228517,397.55768620117186,134.41585709228517,398.18869620117187Q134.26685709228516,398.8197162011719,134.03755709228517,399.4261962011719Q133.80835709228515,400.03267620117185,133.50265709228515,400.60447620117185L121.66935709228515,422.7406062011719Q121.55365709228516,422.9571062011719,121.42735709228515,423.16760620117185Q121.30115709228515,423.37820620117185,121.16475709228516,423.5823062011719Q121.02835709228515,423.78640620117187,120.88215709228515,423.9836062011719Q120.73585709228516,424.18070620117186,120.58015709228516,424.37050620117185Q120.42445709228515,424.5603062011719,120.25955709228515,424.74210620117185Q120.09465709228516,424.9240062011719,119.92105709228515,425.09760620117186Q119.74745709228516,425.2712062011719,119.56555709228516,425.4360062011719Q119.38365709228515,425.6009062011719,119.19395709228516,425.75660620117185Q119.00415709228515,425.9123062011719,118.80695709228516,426.05860620117187Q118.60975709228515,426.2048062011719,118.40565709228515,426.3412062011719Q118.20155709228516,426.4775062011719,117.99095709228516,426.60370620117186Q117.78045709228516,426.7299062011719,117.56385709228516,426.8456062011719Q117.34735709228516,426.96130620117185,117.12545709228516,427.06630620117187Q116.90355709228515,427.17120620117186,116.67675709228516,427.26520620117185Q116.44995709228516,427.35910620117187,116.21885709228516,427.44180620117186Q115.98765709228516,427.5245062011719,115.75275709228515,427.5957062011719Q115.51785709228515,427.6670062011719,115.27965709228516,427.7266062011719Q115.04155709228516,427.7863062011719,114.80075709228515,427.8341062011719Q114.56005709228515,427.88200620117186,114.31715709228516,427.91800620117186Q114.07435709228515,427.95400620117186,113.83005709228516,427.9781062011719Q113.58575709228515,428.0021062011719,113.34055709228515,428.0142062011719Q113.09535709228516,428.0262062011719,112.84985709228516,428.0262062011719Q112.60435709228516,428.0262062011719,112.35915709228516,428.0141062011719Q112.11405709228515,428.0021062011719,111.86975709228516,427.97800620117187Q111.62545709228516,427.9539062011719,111.38255709228515,427.9179062011719Q111.13975709228515,427.8819062011719,110.89895709228516,427.83400620117186Q110.65822709228516,427.7861062011719,110.42009709228516,427.72640620117187Q110.18196709228516,427.66670620117185,109.94705709228515,427.5955062011719Q109.71214709228515,427.52420620117186,109.48101709228516,427.4415062011719Q109.24987709228516,427.3588062011719,109.02308709228515,427.2648062011719Q108.79628709228516,427.1709062011719,108.57437709228516,427.06590620117186Q108.35246709228515,426.9609062011719,108.13597709228516,426.8452062011719Q107.51116709228515,426.5112062011719,106.93968709228515,426.09240620117185Q106.36820709228516,425.67370620117185,105.86147709228516,425.1785062011719Q105.35474709228515,424.68340620117186,104.92289709228515,424.1217062011719Q104.49103709228515,423.5601062011719,104.14267709228515,422.94320620117185L104.14267709228515,422.94320620117185ZM121.55805709228515,413.1092062011719L112.85035709228515,418.0262062011719L104.03134709228516,413.31180620117186L115.86465709228516,391.1757362011719L124.68365709228516,395.8901062011719L124.95415709228516,405.88644620117185L100.98746109228516,406.5350062011719L100.71695709228516,396.5386512011719L109.42462709228516,391.6216862011719L121.55805709228515,413.1092062011719Z" fill="#000000" fill-opacity="1"/></g></g></svg>