<svg xmlns="http://www.w3.org/2000/svg" xmlns:xlink="http://www.w3.org/1999/xlink" fill="none" version="1.1" width="512" height="512" viewBox="0 0 512 512"><defs><linearGradient x1="1" y1="0" x2="0" y2="1" id="master_svg0_29_01117"><stop offset="0%" stop-color="#F26E01" stop-opacity="1"/><stop offset="100.00007152557373%" stop-color="#98FF11" stop-opacity="1"/></linearGradient><filter id="master_svg1_29_8872" filterUnits="objectBoundingBox" color-interpolation-filters="sRGB" x="-20" y="-16" width="162.95184326171875" height="223.44232177734375"><feFlood flood-opacity="0" result="BackgroundImageFix"/><feColorMatrix in="SourceAlpha" type="matrix" values="0 0 0 0 0 0 0 0 0 0 0 0 0 0 0 0 0 0 127 0"/><feOffset dy="4" dx="0"/><feGaussianBlur stdDeviation="5"/><feColorMatrix type="matrix" values="0 0 0 0 0 0 0 0 0 0 0 0 0 0 0 0 0 0 0.3019607961177826 0"/><feBlend mode="normal" in2="BackgroundImageFix" result="effect1_dropShadow"/><feBlend mode="normal" in="SourceGraphic" in2="effect1_dropShadow" result="shape"/></filter><linearGradient x1="1" y1="0" x2="-1.1288275718688965" y2="2.059791088104248" id="master_svg2_29_9789"><stop offset="0%" stop-color="#F26E01" stop-opacity="1"/><stop offset="99.99998807907104%" stop-color="#98FF11" stop-opacity="1"/></linearGradient><filter id="master_svg3_29_01160" filterUnits="objectBoundingBox" color-interpolation-filters="sRGB" x="-20" y="-16" width="104" height="102"><feFlood flood-opacity="0" result="BackgroundImageFix"/><feColorMatrix in="SourceAlpha" type="matrix" values="0 0 0 0 0 0 0 0 0 0 0 0 0 0 0 0 0 0 127 0"/><feOffset dy="4" dx="0"/><feGaussianBlur stdDeviation="5"/><feColorMatrix type="matrix" values="0 0 0 0 0 0 0 0 0 0 0 0 0 0 0 0 0 0 0.3019607961177826 0"/><feBlend mode="normal" in2="BackgroundImageFix" result="effect1_dropShadow"/><feBlend mode="normal" in="SourceGraphic" in2="effect1_dropShadow" result="shape"/></filter></defs><g style="mix-blend-mode:passthrough"><g style="mix-blend-mode:passthrough"><path d="M300.009,90L154.2308,90Q144.9116,90,138.2681,92.751Q132.1486,95.2849,128.0974,100.3176Q119,111.6188,119,136.1878L119,387.38Q119,405.508,127.3305,413.726Q135.7177,422,154.2308,422L359.509,422Q377.037,422,384.966,413.865Q393,405.623,393,387.38L393,178.7755Q393,178.53,393.012,178.28480000000002Q393.024,178.0396,393.048,177.7953Q393.072,177.551,393.108,177.3082Q393.144,177.0654,393.192,176.8246Q393.24,176.5838,393.3,176.3457Q393.359,176.1076,393.431,175.8727Q393.502,175.6377,393.585,175.4066Q393.667,175.1755,393.761,174.9487Q393.855,174.7219,393.96,174.5Q394.065,174.27800000000002,394.181,174.0615Q394.297,173.845,394.423,173.6345Q394.549,173.4239,394.685,173.21980000000002Q394.822,173.01569999999998,394.968,172.8185Q395.114,172.62130000000002,395.27,172.4316Q395.426,172.2418,395.59,172.0599Q395.755,171.878,395.929,171.70440000000002Q396.103,171.5309,396.284,171.36599999999999Q396.466,171.2011,396.656,171.0454Q396.846,170.8897,397.043,170.7434Q397.24,170.5972,397.444,170.4608Q397.648,170.3244,397.859,170.19819999999999Q398.07,170.072,398.286,169.9563Q398.503,169.8406,398.724,169.7356Q398.946,169.6307,399.173,169.5367Q399.4,169.4428,399.631,169.3601Q399.862,169.2774,400.097,169.2061Q400.332,169.13479999999998,400.57,169.0752Q400.808,169.0156,401.049,168.96769999999998Q401.29,168.9198,401.533,168.8837Q401.776,168.8477,402.02,168.8237Q402.264,168.7996,402.509,168.7876Q402.755,168.7755,403,168.7755Q403.246,168.7755,403.491,168.7876Q403.736,168.7996,403.98,168.8237Q404.224,168.8477,404.467,168.8837Q404.71,168.9198,404.951,168.96769999999998Q405.192,169.0156,405.43,169.0752Q405.668,169.13479999999998,405.903,169.2061Q406.138,169.2774,406.369,169.3601Q406.6,169.4428,406.827,169.5367Q407.054,169.6307,407.276,169.7356Q407.497,169.8406,407.714,169.9563Q407.93,170.072,408.141,170.19819999999999Q408.352,170.3244,408.556,170.4608Q408.76,170.5972,408.957,170.7434Q409.154,170.8897,409.344,171.0454Q409.534,171.2011,409.716,171.36599999999999Q409.897,171.5309,410.071,171.70440000000002Q410.245,171.878,410.41,172.0599Q410.574,172.2418,410.73,172.4316Q410.886,172.62130000000002,411.032,172.8185Q411.178,173.01569999999998,411.315,173.21980000000002Q411.451,173.4239,411.577,173.6345Q411.703,173.845,411.819,174.0615Q411.935,174.27800000000002,412.04,174.5Q412.145,174.7219,412.239,174.9487Q412.333,175.1755,412.415,175.4066Q412.498,175.6377,412.569,175.8727Q412.641,176.1076,412.7,176.3457Q412.76,176.5838,412.808,176.8246Q412.856,177.0654,412.892,177.3082Q412.928,177.551,412.952,177.7953Q412.976,178.0396,412.988,178.28480000000002Q413,178.53,413,178.7755L413,387.38Q413,413.757,399.288,427.825Q385.472,442,359.509,442L154.2308,442Q127.513,442,113.28487,427.964Q99,413.872,99,387.38L99,136.1878Q99,104.569,112.518,87.77631Q119.7744,78.76202,130.6165,74.27251Q140.9345,70,154.2308,70L300.009,70Q300.255,70,300.5,70.01205Q300.745,70.02409,300.98900000000003,70.04814999999999Q301.23400000000004,70.07222,301.477,70.10824Q301.719,70.14426,301.96000000000004,70.19215Q302.201,70.24004,302.43899999999996,70.29969Q302.677,70.35934,302.91200000000003,70.4306Q303.147,70.50186,303.378,70.58456Q303.60900000000004,70.66726,303.836,70.76121Q304.063,70.85515,304.28499999999997,70.96011Q304.507,71.06507,304.723,71.18079Q304.94,71.29651,305.15,71.42271Q305.361,71.54892,305.565,71.68531Q305.769,71.82169,305.966,71.96793Q306.163,72.11416,306.353,72.2699Q306.543,72.42563,306.725,72.59049Q306.90700000000004,72.75534999999999,307.08000000000004,72.92893Q307.254,73.10252,307.419,73.28441Q307.584,73.4663,307.73900000000003,73.65607Q307.895,73.84583,308.041,74.04301Q308.188,74.24018,308.324,74.4443Q308.46000000000004,74.64841,308.587,74.85897Q308.71299999999997,75.06953,308.828,75.28603Q308.94399999999996,75.50253000000001,309.049,75.72445Q309.154,75.94637,309.248,76.17317Q309.342,76.39997,309.425,76.6311Q309.507,76.86224,309.579,77.09715Q309.65,77.33207,309.71000000000004,77.5702Q309.769,77.80833,309.817,78.0491Q309.865,78.28987,309.901,78.5327Q309.937,78.77552,309.961,79.019829Q309.985,79.264133,309.997,79.509323Q310.009,79.754514,310.009,80Q310.009,80.245486,309.997,80.490677Q309.985,80.735867,309.961,80.980171Q309.937,81.22448,309.901,81.4673Q309.865,81.71013,309.817,81.9509Q309.769,82.19167,309.71000000000004,82.4298Q309.65,82.66793,309.579,82.90285Q309.507,83.13776,309.425,83.3689Q309.342,83.60003,309.248,83.82683Q309.154,84.05363,309.049,84.27555Q308.94399999999996,84.49746999999999,308.828,84.71397Q308.71299999999997,84.93047,308.587,85.14103Q308.46000000000004,85.35159,308.324,85.5557Q308.188,85.75982,308.041,85.95699Q307.895,86.15417,307.73900000000003,86.34393Q307.584,86.5337,307.419,86.71559Q307.254,86.89748,307.08000000000004,87.07107Q306.90700000000004,87.24465000000001,306.725,87.40951Q306.543,87.57437,306.353,87.7301Q306.163,87.88584,305.966,88.03207Q305.769,88.17831,305.565,88.3147Q305.361,88.45108,305.15,88.57729Q304.94,88.70349,304.723,88.81921Q304.507,88.93493,304.28499999999997,89.03989Q304.063,89.14485,303.836,89.23879Q303.60900000000004,89.33274,303.378,89.41544Q303.147,89.49814,302.91200000000003,89.5694Q302.677,89.64066,302.43899999999996,89.70031Q302.201,89.75996,301.96000000000004,89.80785Q301.719,89.85574,301.477,89.89176Q301.23400000000004,89.92778,300.98900000000003,89.95185000000001Q300.745,89.97591,300.5,89.98795Q300.255,90,300.009,90Z" fill="url(#master_svg0_29_01117)" fill-opacity="1"/></g><g style="mix-blend-mode:passthrough" filter="url(#master_svg1_29_8872)"><path d="" fill="#FF2323" fill-opacity="1"/><path d="M386.8091567382812,114.13935000000001Q337.23795673828124,149.5217,307.51435673828126,193.869Q277.91705673828125,238.028,267.8750567382813,291.29499999999996Q267.8295767382813,291.536,267.77231673828123,291.775Q267.71505673828125,292.014,267.64615673828126,292.249Q267.57724673828125,292.485,267.49686673828126,292.717Q267.41648673828126,292.949,267.32481673828124,293.176Q267.2331467382813,293.404,267.13041673828127,293.627Q267.02768673828126,293.85,266.91413673828123,294.068Q266.80059673828123,294.28499999999997,266.67650673828126,294.497Q266.55241673828124,294.709,266.41807673828123,294.914Q266.28374673828125,295.12,266.13949673828125,295.31899999999996Q265.9952367382813,295.517,265.8414167382812,295.70799999999997Q265.68758673828125,295.9,265.52455673828126,296.08299999999997Q265.36152673828127,296.267,265.18968673828124,296.442Q265.01785673828124,296.61699999999996,264.83761673828127,296.784Q264.6573867382813,296.951,264.46919673828125,297.108Q264.28099673828126,297.26599999999996,264.0852967382813,297.414Q263.8895967382812,297.563,263.6868567382812,297.701Q263.4841167382813,297.839,263.27483673828124,297.96799999999996Q263.0655467382812,298.096,262.85021673828123,298.214Q262.63488673828124,298.332,262.41403673828125,298.43899999999996Q262.19317673828124,298.546,261.96733673828123,298.642Q261.74148673828125,298.738,261.51118673828125,298.824Q261.2808967382812,298.909,261.0467067382813,298.98199999999997Q260.81251673828126,299.05600000000004,260.57499673828124,299.118Q260.3374767382812,299.18,260.09719673828124,299.23Q259.85691673828126,299.28,259.61446673828124,299.31899999999996Q259.37200673828124,299.35699999999997,259.1279567382812,299.384Q258.8839037382813,299.40999999999997,258.63884673828125,299.425Q258.3937887382813,299.43899999999996,258.1483147382813,299.442Q257.90284073828127,299.44399999999996,257.6575427382812,299.435Q257.41224373828123,299.425,257.16771073828124,299.403Q256.92317673828126,299.382,256.67999673828126,299.348Q256.43682673828124,299.315,256.19558673828124,299.269Q255.95434673828126,299.224,255.71563673828126,299.166Q255.47691673828126,299.10900000000004,255.24129673828125,299.03999999999996Q255.00568673828124,298.971,254.77372673828125,298.89099999999996Q254.54177673828124,298.81100000000004,254.31404673828126,298.719Q254.08631673828125,298.627,253.86336673828126,298.525Q253.64040673828126,298.422,253.42275673828124,298.308Q253.20510673828124,298.195,252.99329673828126,298.071Q252.78148673828125,297.947,252.57601673828125,297.812Q252.37054673828126,297.678,252.17190673828125,297.534Q251.97327673828124,297.389,251.78196673828126,297.236Q251.59065673828124,297.082,251.40711673828125,296.919Q251.22358673828126,296.756,251.04826673828126,296.584Q250.87295673828126,296.41200000000003,250.70627673828125,296.23199999999997Q250.53960673828124,296.052,250.38197673828125,295.863Q250.22435673828124,295.675,250.07614673828124,295.47900000000004Q249.92794673828126,295.284,249.78952673828124,295.081Q249.65109673828124,294.878,249.52279673828124,294.669Q249.39448673828124,294.46000000000004,249.27660673828126,294.244Q249.15871673828124,294.029,249.05154673828125,293.808Q248.94436673828125,293.587,248.84815673828126,293.361Q248.75194673828125,293.13599999999997,248.66693673828124,292.905Q248.58191673828125,292.675,248.50830673828125,292.44100000000003Q248.43469673828125,292.207,248.37266673828125,291.969Q248.31063673828126,291.73199999999997,248.26033673828124,291.491Q248.21003673828125,291.251,248.17158673828126,291.009Q248.13313673828125,290.76599999999996,248.10662673828125,290.522Q248.08011673828125,290.278,248.06561673828125,290.033Q248.05111673828125,289.788,248.04865673828124,289.54200000000003Q248.04615673828124,289.297,248.05578673828126,289.052Q248.06537673828126,288.80600000000004,248.08698673828124,288.562Q248.10860673828125,288.317,248.14219673828126,288.074Q248.17577673828126,287.831,248.22125673828126,287.59000000000003Q259.02226273828126,230.296,290.9008567382813,182.7338Q322.65315673828127,135.3599,375.19015673828125,97.86064999999999Q375.39015673828123,97.71804,375.5971567382812,97.58539999999999Q375.80315673828125,97.45276,376.01615673828127,97.33041Q376.22915673828123,97.20806999999999,376.44715673828125,97.09631Q376.66615673828124,96.98456,376.89015673828123,96.88366Q377.1141567382813,96.78277,377.34215673828123,96.69297Q377.5711567382813,96.60318,377.80315673828125,96.5247Q378.03615673828125,96.44623,378.27215673828124,96.37927Q378.50815673828123,96.3123,378.74715673828126,96.257Q378.98615673828124,96.2017,379.22815673828126,96.15821Q379.4701567382813,96.11471,379.71315673828127,96.08313Q379.95715673828124,96.05154,380.20115673828127,96.03194Q380.4461567382813,96.01233,380.6911567382813,96.00476Q380.93715673828126,95.99719999999999,381.18215673828126,96.00166Q381.42815673828125,96.00614,381.67315673828125,96.02265Q381.9171567382813,96.03917,382.16115673828125,96.06768Q382.4051567382812,96.09619,382.64715673828124,96.13663Q382.88915673828126,96.17707,383.12915673828127,96.22935Q383.3691567382813,96.28162,383.60615673828124,96.3456Q383.84315673828127,96.40958,384.07715673828125,96.48511Q384.31015673828125,96.56064,384.54015673828127,96.64753999999999Q384.76915673828125,96.73445,384.9941567382813,96.83251Q385.2201567382813,96.93057,385.43915673828127,97.03956Q385.65915673828124,97.14855,385.8741567382813,97.26820000000001Q386.0881567382812,97.38785,386.29615673828124,97.51787Q386.50515673828124,97.64789,386.70615673828127,97.78797Q386.90815673828126,97.92806,387.1021567382812,98.07786Q387.2971567382813,98.22767,387.4841567382813,98.38684Q387.67115673828124,98.54601,387.84915673828124,98.71415999999999Q388.02815673828127,98.8823,388.19915673828126,99.05902Q388.3691567382813,99.23573999999999,388.53115673828125,99.42061Q388.69215673828126,99.60548,388.84415673828124,99.79805Q388.99715673828126,99.99062,389.13915673828126,100.19043Q389.2821567382813,100.39024,389.41415673828124,100.59681Q389.5471567382813,100.80338,389.66915673828123,101.0162Q389.7921567382813,101.22903,389.90415673828124,101.4476Q390.01515673828123,101.66618,390.11615673828123,101.88997Q390.21715673828123,102.11376,390.30715673828126,102.34224Q390.39715673828124,102.57071,390.47515673828127,102.80332Q390.5541567382812,103.03592,390.62115673828123,103.2721Q390.68815673828124,103.50828,390.74315673828124,103.74745Q390.79815673828125,103.98663,390.84215673828123,104.22823Q390.88515673828124,104.46983,390.9171567382813,104.71328Q390.9481567382812,104.95673,390.9681567382812,105.201428Q390.9871567382812,105.44613,390.99515673828125,105.6915Q391.0031567382813,105.9368689,390.99815673828124,106.182314Q390.9941567382813,106.42776,390.9771567382812,106.67269Q390.96115673828126,106.91762,390.93215673828126,107.16144Q390.90415673828124,107.40527,390.86315673828125,107.6474Q390.8231567382812,107.88953,390.77015673828123,108.12939Q390.7181567382812,108.36925,390.65415673828124,108.60625Q390.5901567382813,108.84325,390.51515673828123,109.07683Q390.4391567382812,109.31041,390.3521567382812,109.54Q390.26515673828123,109.76959,390.1671567382813,109.99463Q390.0691567382812,110.21968,389.9601567382813,110.43965Q389.85115673828125,110.65962,389.7321567382812,110.87397Q389.6121567382812,111.08832,389.4821567382812,111.29655Q389.3521567382812,111.50477,389.21215673828124,111.70636999999999Q389.07215673828125,111.90796,388.9221567382813,112.10244Q388.77215673828124,112.29692,388.61315673828125,112.48381Q388.45415673828126,112.6707,388.28615673828125,112.84956Q388.11815673828124,113.02842,387.9411567382813,113.19881Q387.76415673828126,113.3692,387.57915673828126,113.53071Q387.39415673828125,113.69223,387.20215673828125,113.84448Q387.00915673828126,113.99673,386.8091567382812,114.13935000000001Z" fill="url(#master_svg2_29_9789)" fill-opacity="1"/></g><g style="mix-blend-mode:passthrough" filter="url(#master_svg3_29_01160)"><path d="M339,80L403,142L403,80L339,80Z" fill="#000000" fill-opacity="1"/><path d="M396.04200000000003,149.1824L332.04205,87.1824Q331.86573,87.01159,331.69801,86.83234Q331.53028,86.65309,331.37155,86.46582Q331.21283,86.27855,331.06348,86.08372Q330.91413,85.88889,330.77453,85.68696Q330.63492,85.48504,330.50539,85.27651Q330.37586,85.06798,330.25671,84.85334Q330.13757,84.63871,330.02909999999997,84.41848Q329.92064,84.19826,329.82311,83.97298Q329.72557,83.7477,329.63922,83.51791Q329.55285,83.28811,329.47787,83.05436Q329.40289,82.8206,329.33947,82.58345Q329.27605,82.3463,329.22435,82.10632Q329.17264,81.86634,329.13277,81.62411Q329.0929,81.38188,329.06496,81.13799Q329.03703,80.894102,329.02109,80.649134Q329.00516,80.404165,329.00126,80.15871Q328.9974,79.9132545,329.00552,79.667904Q329.01367,79.422553,329.03385,79.177898Q329.05403,78.93324,329.08619,78.68987Q329.11836,78.4465,329.16242,78.205Q329.20648,77.9635,329.26235,77.72446Q329.31821,77.48541,329.38573,77.24939Q329.45325,77.01338,329.53228,76.78096Q329.6113,76.54854,329.70163,76.32028Q329.79196,76.09201,329.89339,75.86846Q329.99481,75.64491,330.10708,75.4266Q330.21935,75.20829,330.3422,74.99575Q330.46505,74.78321,330.59818,74.57696Q330.73131,74.37071,330.87439,74.17123Q331.01748,73.97176,331.17018,73.77955Q331.32289,73.58734,331.48484,73.40285Q331.64679,73.21837,331.8176,73.04205Q332.16634,72.68206,332.54933,72.35874Q332.93232,72.03542,333.34572000000003,71.75202Q333.75912,71.46863,334.19878,71.22798Q334.63845,70.98734,335.09997,70.79187Q335.56149,70.59639,336.04025,70.44804Q336.51901,70.2997,337.0102,70.19996Q337.50139,70.10023,338.000086,70.05011999999999Q338.498787,70,339,70L403,70Q403.2455,70,403.4907,70.01205Q403.7359,70.02409,403.98019999999997,70.04814999999999Q404.22450000000003,70.07222,404.4673,70.10824Q404.7101,70.14426,404.9509,70.19215Q405.19169999999997,70.24004,405.4298,70.29969Q405.66790000000003,70.35934,405.9028,70.4306Q406.13779999999997,70.50186,406.3689,70.58456Q406.6,70.66726,406.8268,70.76121Q407.0536,70.85515,407.27549999999997,70.96011Q407.4975,71.06507,407.714,71.18079Q407.9305,71.29651,408.141,71.42271Q408.3516,71.54892,408.5557,71.68531Q408.7598,71.82169,408.957,71.96793Q409.1542,72.11416,409.3439,72.2699Q409.5337,72.42563,409.7156,72.59049Q409.8975,72.75534999999999,410.0711,72.92893Q410.2446,73.10252,410.4095,73.28441Q410.57439999999997,73.4663,410.7301,73.65607Q410.8858,73.84583,411.0321,74.04301Q411.1783,74.24018,411.3147,74.4443Q411.4511,74.64841,411.5773,74.85897Q411.7035,75.06953,411.8192,75.28603Q411.93489999999997,75.50253000000001,412.0399,75.72445Q412.1449,75.94637,412.23879999999997,76.17317Q412.3327,76.39997,412.4154,76.6311Q412.4981,76.86224,412.5694,77.09715Q412.6407,77.33207,412.70029999999997,77.5702Q412.7599,77.80833,412.8078,78.0491Q412.8557,78.28987,412.8918,78.5327Q412.9278,78.77552,412.9518,79.019829Q412.9759,79.264133,412.98789999999997,79.509323Q413,79.754514,413,80L413,142Q413,142.2455,412.98789999999997,142.4907Q412.9759,142.73590000000002,412.9518,142.9802Q412.9278,143.2245,412.8918,143.4673Q412.8557,143.7101,412.8078,143.9509Q412.7599,144.1917,412.70029999999997,144.4298Q412.6407,144.6679,412.5694,144.9028Q412.4981,145.1378,412.4154,145.3689Q412.3327,145.6,412.23879999999997,145.8268Q412.1449,146.05360000000002,412.0399,146.2755Q411.93489999999997,146.4975,411.8192,146.714Q411.7035,146.9305,411.5773,147.14100000000002Q411.4511,147.35160000000002,411.3147,147.5557Q411.1783,147.75979999999998,411.0321,147.957Q410.8858,148.1542,410.7301,148.34390000000002Q410.57439999999997,148.5337,410.4095,148.7156Q410.2446,148.89749999999998,410.0711,149.0711Q409.8975,149.2446,409.7156,149.40949999999998Q409.5337,149.5744,409.3439,149.7301Q409.1542,149.88580000000002,408.957,150.0321Q408.7598,150.17829999999998,408.5557,150.31470000000002Q408.3516,150.4511,408.141,150.57729999999998Q407.9305,150.70350000000002,407.714,150.8192Q407.4975,150.9349,407.27549999999997,151.0399Q407.0536,151.1448,406.8268,151.2388Q406.6,151.3327,406.3689,151.4154Q406.13779999999997,151.4981,405.9028,151.5694Q405.66790000000003,151.64069999999998,405.4298,151.7003Q405.19169999999997,151.76,404.9509,151.8078Q404.7101,151.8557,404.4673,151.8918Q404.22450000000003,151.9278,403.98019999999997,151.9519Q403.7359,151.9759,403.4907,151.9879Q403.2455,152,403,152Q402.5187,152,402.0396,151.9538Q401.5605,151.9075,401.088,151.8155Q400.6156,151.7235,400.1542,151.5865Q399.6927,151.4495,399.2466,151.2689Q398.8005,151.0882,398.3737,150.8655Q397.947,150.6429,397.5437,150.3802Q397.1403,150.11759999999998,396.764,149.8175Q396.3877,149.5173,396.04200000000003,149.1824ZM409.95799999999997,134.8176L403,142L393,142L393,80L403,80L403,90L339,90L339,80L345.95795,72.8176L409.95799999999997,134.8176Z" fill="#000000" fill-opacity="1"/></g></g></svg>