<svg xmlns="http://www.w3.org/2000/svg" xmlns:xlink="http://www.w3.org/1999/xlink" fill="none" version="1.1" width="512" height="512" viewBox="0 0 512 512"><defs><clipPath id="master_svg0_29_6280"><rect x="0" y="0" width="512" height="512" rx="0"/></clipPath><linearGradient x1="1" y1="0" x2="0" y2="1" id="master_svg1_29_8790"><stop offset="0%" stop-color="#F26E01" stop-opacity="1"/><stop offset="100.00005960464478%" stop-color="#98FF11" stop-opacity="1"/></linearGradient></defs><g style="mix-blend-mode:passthrough" clip-path="url(#master_svg0_29_6280)"><g style="mix-blend-mode:passthrough"><path d="M25,243.36903051757812L264.53700000000003,243.36903051757812Q264.783,243.36903051757812,265.028,243.38103051757813Q265.273,243.39303051757813,265.517,243.41703051757813Q265.762,243.44103051757813,266.004,243.47703051757813Q266.247,243.51303051757813,266.488,243.56103051757813Q266.72900000000004,243.60903051757813,266.967,243.66903051757814Q267.20500000000004,243.72903051757814,267.44,243.80003051757814Q267.675,243.87103051757813,267.906,243.95403051757813Q268.137,244.03603051757813,268.36400000000003,244.13003051757812Q268.591,244.22403051757811,268.813,244.32903051757813Q269.03499999999997,244.43403051757812,269.251,244.55003051757814Q269.46799999999996,244.66603051757812,269.678,244.79203051757813Q269.889,244.91803051757813,270.09299999999996,245.05503051757813Q270.297,245.19103051757813,270.494,245.3370305175781Q270.69100000000003,245.48303051757813,270.881,245.63903051757814Q271.071,245.7950305175781,271.253,245.96003051757813Q271.435,246.12503051757812,271.608,246.29803051757813Q271.78200000000004,246.47203051757813,271.947,246.65403051757812Q272.111,246.83503051757813,272.267,247.02503051757813Q272.423,247.21503051757813,272.56899999999996,247.41203051757813Q272.71500000000003,247.60903051757813,272.852,247.8130305175781Q272.988,248.01803051757813,273.11400000000003,248.22803051757813Q273.241,248.43903051757812,273.356,248.65503051757813Q273.472,248.87203051757814,273.577,249.09403051757812Q273.682,249.31603051757813,273.776,249.54203051757813Q273.87,249.76903051757813,273.952,250.00003051757812Q274.03499999999997,250.23103051757812,274.106,250.46603051757813Q274.178,250.70103051757812,274.23699999999997,250.93903051757812Q274.297,251.17803051757812,274.345,251.41803051757813Q274.39300000000003,251.65903051757812,274.429,251.9020305175781Q274.46500000000003,252.14503051757814,274.48900000000003,252.38903051757814Q274.51300000000003,252.63303051757813,274.525,252.87903051757812Q274.53700000000003,253.12403051757812,274.53700000000003,253.36903051757812Q274.53700000000003,253.61503051757813,274.525,253.86003051757814Q274.51300000000003,254.10503051757811,274.48900000000003,254.34903051757811Q274.46500000000003,254.59403051757812,274.429,254.8370305175781Q274.39300000000003,255.07903051757813,274.345,255.32003051757812Q274.297,255.56103051757813,274.23699999999997,255.79903051757813Q274.178,256.03703051757816,274.106,256.2720305175781Q274.03499999999997,256.50703051757813,273.953,256.7380305175781Q273.87,256.9690305175781,273.776,257.19603051757815Q273.682,257.4230305175781,273.577,257.6450305175781Q273.472,257.8670305175781,273.356,258.0830305175781Q273.241,258.30003051757814,273.11400000000003,258.5100305175781Q272.988,258.72103051757813,272.852,258.92503051757814Q272.71500000000003,259.12903051757814,272.56899999999996,259.32603051757815Q272.423,259.52303051757815,272.267,259.7130305175781Q272.111,259.90303051757815,271.947,260.08503051757816Q271.78200000000004,260.2670305175781,271.608,260.4400305175781Q271.435,260.61403051757816,271.253,260.7790305175781Q271.071,260.9440305175781,270.881,261.0990305175781Q270.69100000000003,261.2550305175781,270.494,261.40103051757814Q270.297,261.54703051757815,270.09299999999996,261.6840305175781Q269.889,261.8200305175781,269.678,261.94603051757815Q269.46799999999996,262.0730305175781,269.251,262.1880305175781Q269.03499999999997,262.3040305175781,268.813,262.4090305175781Q268.591,262.51403051757814,268.36400000000003,262.60803051757813Q268.137,262.7020305175781,267.906,262.7850305175781Q267.675,262.8670305175781,267.44,262.9390305175781Q267.20500000000004,263.0100305175781,266.967,263.0700305175781Q266.72900000000004,263.12903051757814,266.488,263.17703051757815Q266.247,263.22503051757815,266.004,263.2610305175781Q265.762,263.29703051757815,265.517,263.32103051757815Q265.273,263.34503051757815,265.028,263.3570305175781Q264.783,263.36903051757815,264.53700000000003,263.36903051757815L25,263.36903051757815Q24.754514,263.36903051757815,24.509323,263.3570305175781Q24.264133,263.34503051757815,24.019829,263.32103051757815Q23.77552,263.29703051757815,23.5327,263.2610305175781Q23.28987,263.22503051757815,23.0491,263.17703051757815Q22.80833,263.12903051757814,22.5702,263.0700305175781Q22.33207,263.0100305175781,22.09715,262.9390305175781Q21.86224,262.8670305175781,21.6311,262.7850305175781Q21.39997,262.7020305175781,21.17317,262.60803051757813Q20.94637,262.51403051757814,20.72445,262.4090305175781Q20.50253,262.3040305175781,20.28603,262.1880305175781Q20.06953,262.0730305175781,19.85897,261.94603051757815Q19.64841,261.8200305175781,19.4443,261.6840305175781Q19.24018,261.54703051757815,19.04301,261.40103051757814Q18.84583,261.2550305175781,18.65607,261.0990305175781Q18.4663,260.9440305175781,18.28441,260.7790305175781Q18.10252,260.61403051757816,17.92893,260.4400305175781Q17.75535,260.2670305175781,17.59049,260.08503051757816Q17.425629999999998,259.90303051757815,17.2699,259.7130305175781Q17.11416,259.52303051757815,16.967930000000003,259.32603051757815Q16.82169,259.12903051757814,16.685299999999998,258.92503051757814Q16.548920000000003,258.72103051757813,16.422710000000002,258.5100305175781Q16.296509999999998,258.30003051757814,16.180790000000002,258.0830305175781Q16.06507,257.8670305175781,15.96011,257.6450305175781Q15.85515,257.4230305175781,15.76121,257.19603051757815Q15.66726,256.9690305175781,15.58456,256.7380305175781Q15.50186,256.50703051757813,15.4306,256.2720305175781Q15.35934,256.03703051757816,15.29969,255.79903051757813Q15.24004,255.56103051757813,15.19215,255.32003051757812Q15.14426,255.07903051757813,15.10824,254.8370305175781Q15.07222,254.59403051757812,15.04815,254.34903051757811Q15.02409,254.10503051757811,15.01205,253.86003051757814Q15,253.61503051757813,15,253.36903051757812Q15,253.12403051757812,15.01205,252.87903051757812Q15.02409,252.63303051757813,15.04815,252.38903051757814Q15.07222,252.14503051757814,15.10824,251.9020305175781Q15.14426,251.65903051757812,15.19215,251.41803051757813Q15.24004,251.17803051757812,15.29969,250.93903051757812Q15.35934,250.70103051757812,15.4306,250.46603051757813Q15.50186,250.23103051757812,15.58456,250.00003051757812Q15.66726,249.76903051757813,15.76121,249.54203051757813Q15.85515,249.31603051757813,15.96011,249.09403051757812Q16.06507,248.87203051757814,16.180790000000002,248.65503051757813Q16.296509999999998,248.43903051757812,16.422710000000002,248.22803051757813Q16.548920000000003,248.01803051757813,16.68531,247.8130305175781Q16.82169,247.60903051757813,16.967930000000003,247.41203051757813Q17.11416,247.21503051757813,17.2699,247.02503051757813Q17.425629999999998,246.83503051757813,17.59049,246.65403051757812Q17.75535,246.47203051757813,17.92893,246.29803051757813Q18.10252,246.12503051757812,18.28441,245.96003051757813Q18.4663,245.7950305175781,18.65607,245.63903051757814Q18.84583,245.48303051757813,19.04301,245.3370305175781Q19.24018,245.19103051757813,19.4443,245.05403051757813Q19.64841,244.91803051757813,19.85897,244.79203051757813Q20.06953,244.66603051757812,20.28603,244.55003051757814Q20.50253,244.43403051757812,20.72445,244.32903051757813Q20.94637,244.22403051757811,21.17317,244.13003051757812Q21.39997,244.03603051757813,21.6311,243.95403051757813Q21.86224,243.87103051757813,22.09715,243.80003051757814Q22.33207,243.72903051757814,22.5702,243.66903051757814Q22.80833,243.60903051757813,23.0491,243.56103051757813Q23.28987,243.51303051757813,23.5327,243.47703051757813Q23.77552,243.44103051757813,24.019829,243.41703051757813Q24.264133,243.39303051757813,24.509323,243.38103051757813Q24.754514,243.36903051757812,25,243.36903051757812ZM88,148.77103051757814L157.904,148.77103051757814L426.522,148.77103051757814L487,148.77103051757814Q487.245,148.77103051757814,487.491,148.78303051757814Q487.736,148.79513051757812,487.98,148.81913051757812Q488.224,148.84323051757812,488.467,148.87923051757812Q488.71,148.91523051757812,488.951,148.96313051757812Q489.192,149.01103051757812,489.43,149.0707305175781Q489.668,149.13033051757813,489.903,149.2016305175781Q490.138,149.27293051757812,490.369,149.35563051757813Q490.6,149.43833051757812,490.827,149.5322305175781Q491.054,149.62613051757813,491.276,149.73113051757812Q491.497,149.8361305175781,491.714,149.95183051757812Q491.93,150.06753051757812,492.141,150.19373051757813Q492.352,150.31993051757811,492.556,150.45633051757812Q492.76,150.59273051757813,492.957,150.73893051757813Q493.154,150.88523051757812,493.344,151.04093051757812Q493.534,151.19663051757811,493.716,151.36153051757813Q493.897,151.52633051757812,494.071,151.69993051757814Q494.245,151.87353051757813,494.409,152.05543051757812Q494.574,152.23733051757813,494.73,152.42713051757812Q494.886,152.61683051757814,495.032,152.81403051757812Q495.178,153.01123051757813,495.315,153.21533051757814Q495.451,153.41943051757812,495.577,153.63003051757812Q495.703,153.84053051757812,495.819,154.05703051757814Q495.935,154.27353051757814,496.04,154.49543051757811Q496.145,154.71743051757812,496.239,154.94423051757812Q496.333,155.17103051757812,496.415,155.40213051757812Q496.498,155.6332305175781,496.569,155.86813051757812Q496.641,156.1031305175781,496.7,156.34123051757814Q496.76,156.57933051757811,496.808,156.82013051757812Q496.856,157.06093051757813,496.892,157.30373051757812Q496.928,157.54653051757813,496.952,157.79083051757812Q496.976,158.03513051757812,496.988,158.28033051757814Q497,158.52553051757812,497,158.77103051757814Q497,159.01653051757813,496.988,159.26173051757812Q496.976,159.50693051757813,496.952,159.7512305175781Q496.928,159.99553051757812,496.892,160.23833051757813Q496.856,160.48113051757812,496.808,160.72193051757813Q496.76,160.9627305175781,496.7,161.20083051757814Q496.641,161.43893051757811,496.569,161.67383051757812Q496.498,161.9088305175781,496.415,162.13993051757814Q496.333,162.37103051757813,496.239,162.59783051757813Q496.145,162.82463051757813,496.04,163.04653051757813Q495.935,163.26853051757814,495.819,163.48503051757814Q495.703,163.70153051757814,495.577,163.91203051757813Q495.451,164.12263051757813,495.315,164.32673051757814Q495.178,164.53083051757812,495.032,164.72803051757813Q494.886,164.92523051757811,494.73,165.11493051757813Q494.574,165.30473051757812,494.409,165.48663051757813Q494.245,165.66853051757812,494.071,165.84213051757814Q493.897,166.01563051757813,493.716,166.18053051757812Q493.534,166.3454305175781,493.344,166.50113051757813Q493.154,166.65683051757813,492.957,166.80313051757813Q492.76,166.94933051757812,492.556,167.08573051757813Q492.352,167.22213051757814,492.141,167.34833051757812Q491.93,167.47453051757813,491.714,167.59023051757814Q491.497,167.7059305175781,491.276,167.81093051757813Q491.054,167.91583051757812,490.827,168.0098305175781Q490.6,168.10373051757813,490.369,168.18643051757812Q490.138,168.26913051757813,489.903,168.3404305175781Q489.668,168.41173051757812,489.43,168.4713305175781Q489.192,168.53103051757813,488.951,168.57883051757813Q488.71,168.62673051757812,488.467,168.66283051757813Q488.224,168.69883051757813,487.98,168.72283051757813Q487.736,168.7469305175781,487.491,168.7589305175781Q487.245,168.77103051757814,487,168.77103051757814L426.522,168.77103051757814L157.904,168.77103051757814L88,168.77103051757814Q87.75450000000001,168.77103051757814,87.5093,168.7589305175781Q87.2641,168.7469305175781,87.0198,168.72283051757813Q86.7755,168.69883051757813,86.5327,168.66283051757813Q86.2899,168.62673051757812,86.04910000000001,168.57883051757813Q85.8083,168.53093051757813,85.5702,168.4713305175781Q85.3321,168.41173051757812,85.0971,168.3404305175781Q84.8622,168.26913051757813,84.6311,168.18643051757812Q84.4,168.10373051757813,84.17320000000001,168.0098305175781Q83.9464,167.91583051757812,83.7244,167.81093051757813Q83.5025,167.7059305175781,83.286,167.59023051757814Q83.0695,167.47453051757813,82.85900000000001,167.34833051757812Q82.64840000000001,167.22213051757814,82.4443,167.08573051757813Q82.2402,166.94933051757812,82.043,166.80313051757813Q81.8458,166.65683051757813,81.65610000000001,166.50113051757813Q81.46629999999999,166.3454305175781,81.2844,166.18053051757812Q81.10249999999999,166.01563051757813,80.9289,165.84213051757814Q80.7553,165.66853051757812,80.59049999999999,165.48663051757813Q80.4256,165.30473051757812,80.2699,165.11493051757813Q80.11410000000001,164.92523051757811,79.9679,164.72803051757813Q79.82169999999999,164.53083051757812,79.6853,164.32673051757814Q79.5489,164.12263051757813,79.42269999999999,163.91203051757813Q79.29650000000001,163.70153051757814,79.1808,163.48503051757814Q79.0651,163.26853051757814,78.9601,163.04653051757813Q78.8551,162.82463051757813,78.7612,162.59783051757813Q78.66720000000001,162.37103051757813,78.58449999999999,162.13993051757814Q78.5018,161.9088305175781,78.4306,161.67383051757812Q78.35929999999999,161.43893051757811,78.2997,161.20083051757814Q78.24000000000001,160.9627305175781,78.19210000000001,160.72193051757813Q78.1442,160.48113051757812,78.1082,160.23833051757813Q78.07220000000001,159.99553051757812,78.04820000000001,159.7512305175781Q78.0241,159.50693051757813,78.012,159.26173051757812Q78,159.01653051757813,78,158.77103051757814Q78,158.52553051757812,78.012,158.28033051757814Q78.0241,158.03513051757812,78.0481,157.79083051757812Q78.07220000000001,157.54653051757813,78.1082,157.30373051757812Q78.1442,157.06093051757813,78.19210000000001,156.82013051757812Q78.24000000000001,156.57933051757811,78.2997,156.34123051757814Q78.35929999999999,156.1031305175781,78.4306,155.86813051757812Q78.5019,155.6332305175781,78.58449999999999,155.40213051757812Q78.66720000000001,155.17103051757812,78.7612,154.94423051757812Q78.8551,154.71743051757812,78.9601,154.49543051757811Q79.0651,154.27353051757814,79.1808,154.05703051757814Q79.29650000000001,153.84053051757812,79.42269999999999,153.63003051757812Q79.5489,153.41943051757812,79.6853,153.21533051757814Q79.82169999999999,153.01123051757813,79.9679,152.81403051757812Q80.11410000000001,152.61683051757814,80.2699,152.42713051757812Q80.4256,152.23733051757813,80.59049999999999,152.05543051757812Q80.7553,151.87353051757813,80.9289,151.69993051757814Q81.10249999999999,151.52633051757812,81.2844,151.36153051757813Q81.46629999999999,151.19663051757811,81.65610000000001,151.04093051757812Q81.8458,150.88523051757812,82.043,150.73893051757813Q82.2402,150.59273051757813,82.4443,150.45633051757812Q82.64840000000001,150.31993051757811,82.85900000000001,150.19373051757813Q83.0695,150.06753051757812,83.286,149.95183051757812Q83.5025,149.8361305175781,83.7244,149.73113051757812Q83.9464,149.62613051757813,84.17320000000001,149.5322305175781Q84.4,149.43833051757812,84.6311,149.35563051757813Q84.8622,149.27293051757812,85.0971,149.2016305175781Q85.3321,149.13033051757813,85.5702,149.0707305175781Q85.8083,149.01103051757812,86.04910000000001,148.96313051757812Q86.2899,148.91523051757812,86.5327,148.87923051757812Q86.7755,148.84323051757812,87.0198,148.81913051757812Q87.2641,148.79513051757812,87.5093,148.78303051757814Q87.75450000000001,148.77103051757814,88,148.77103051757814ZM436.522,158.77103051757814L436.522,351.7940305175781Q436.522,352.0390305175781,436.51,352.2850305175781Q436.498,352.5300305175781,436.473,352.7740305175781Q436.449,353.01803051757815,436.413,353.2610305175781Q436.377,353.50403051757814,436.329,353.74503051757813Q436.281,353.9860305175781,436.222,354.2240305175781Q436.162,354.4620305175781,436.091,354.6970305175781Q436.02,354.93203051757814,435.937,355.16303051757814Q435.854,355.39403051757813,435.76,355.6210305175781Q435.666,355.84803051757814,435.561,356.0690305175781Q435.457,356.2910305175781,435.341,356.50803051757816Q435.225,356.7240305175781,435.099,356.9350305175781Q434.973,357.1450305175781,434.836,357.35003051757815Q434.7,357.5540305175781,434.554,357.7510305175781Q434.407,357.9480305175781,434.252,358.13803051757816Q434.096,358.3280305175781,433.931,358.5100305175781Q433.766,358.69103051757816,433.593,358.86503051757813Q433.419,359.0390305175781,433.237,359.2030305175781Q433.055,359.3680305175781,432.866,359.5240305175781Q432.676,359.68003051757813,432.479,359.82603051757815Q432.281,359.9720305175781,432.077,360.10903051757816Q431.873,360.24503051757813,431.663,360.3710305175781Q431.452,360.49703051757814,431.236,360.6130305175781Q431.019,360.72903051757817,430.797,360.8340305175781Q430.575,360.9390305175781,430.348,361.03303051757814Q430.122,361.12703051757813,429.89,361.2090305175781Q429.659,361.29203051757816,429.424,361.3630305175781Q429.189,361.4350305175781,428.951,361.49403051757815Q428.713,361.5540305175781,428.472,361.6020305175781Q428.232,361.6500305175781,427.989,361.68603051757816Q427.746,361.7220305175781,427.502,361.7460305175781Q427.257,361.7700305175781,427.012,361.78203051757816Q426.767,361.7940305175781,426.522,361.7940305175781Q426.276,361.7940305175781,426.031,361.78203051757816Q425.786,361.7700305175781,425.541,361.7460305175781Q425.297,361.7220305175781,425.054,361.68603051757816Q424.811,361.6500305175781,424.571,361.6020305175781Q424.33,361.5540305175781,424.092,361.49403051757815Q423.854,361.4350305175781,423.619,361.3630305175781Q423.384,361.29203051757816,423.153,361.2090305175781Q422.922,361.12703051757813,422.695,361.03303051757814Q422.468,360.9390305175781,422.246,360.8340305175781Q422.024,360.72903051757817,421.808,360.6130305175781Q421.591,360.49703051757814,421.38,360.3710305175781Q421.17,360.24503051757813,420.966,360.10903051757816Q420.762,359.9720305175781,420.565,359.82603051757815Q420.367,359.68003051757813,420.178,359.5240305175781Q419.988,359.3680305175781,419.806,359.2030305175781Q419.624,359.0390305175781,419.451,358.86503051757813Q419.277,358.69103051757816,419.112,358.5100305175781Q418.947,358.3280305175781,418.791,358.13803051757816Q418.636,357.9480305175781,418.489,357.7510305175781Q418.343,357.5540305175781,418.207,357.35003051757815Q418.07,357.1450305175781,417.944,356.9350305175781Q417.818,356.7240305175781,417.702,356.50803051757816Q417.587,356.2910305175781,417.482,356.0690305175781Q417.377,355.84803051757814,417.283,355.6210305175781Q417.189,355.39403051757813,417.106,355.16303051757814Q417.023,354.93203051757814,416.952,354.6970305175781Q416.881,354.4620305175781,416.821,354.2240305175781Q416.762,353.9860305175781,416.714,353.74503051757813Q416.666,353.50403051757814,416.63,353.2610305175781Q416.594,353.01803051757815,416.57,352.7740305175781Q416.546,352.5300305175781,416.534,352.2850305175781Q416.522,352.0390305175781,416.522,351.7940305175781L416.522,158.77103051757814Q416.522,158.52553051757812,416.534,158.28033051757814Q416.546,158.03513051757812,416.57,157.79083051757812Q416.594,157.54653051757813,416.63,157.30373051757812Q416.666,157.06093051757813,416.714,156.82013051757812Q416.762,156.57933051757811,416.821,156.34123051757814Q416.881,156.1031305175781,416.952,155.86813051757812Q417.023,155.6332305175781,417.106,155.40213051757812Q417.189,155.17103051757812,417.283,154.94423051757812Q417.377,154.71743051757812,417.482,154.49543051757811Q417.587,154.27353051757814,417.702,154.05703051757814Q417.818,153.84053051757812,417.944,153.63003051757812Q418.07,153.41943051757812,418.207,153.21533051757814Q418.343,153.01123051757813,418.49,152.81403051757812Q418.636,152.61683051757814,418.792,152.42713051757812Q418.947,152.23733051757813,419.112,152.05543051757812Q419.277,151.87353051757813,419.451,151.69993051757814Q419.624,151.52633051757812,419.806,151.36153051757813Q419.988,151.19663051757811,420.178,151.04093051757812Q420.367,150.88523051757812,420.565,150.73893051757813Q420.762,150.59273051757813,420.966,150.45633051757812Q421.17,150.31993051757811,421.38,150.19373051757813Q421.591,150.06753051757812,421.808,149.95183051757812Q422.024,149.8361305175781,422.246,149.73113051757812Q422.468,149.62613051757813,422.695,149.5322305175781Q422.922,149.43833051757812,423.153,149.35563051757813Q423.384,149.27293051757812,423.619,149.2016305175781Q423.854,149.13033051757813,424.092,149.0707305175781Q424.33,149.01103051757812,424.571,148.96313051757812Q424.811,148.91523051757812,425.054,148.87923051757812Q425.297,148.84323051757812,425.541,148.81913051757812Q425.786,148.79513051757812,426.031,148.78303051757814Q426.276,148.77103051757814,426.522,148.77103051757814Q426.767,148.77103051757814,427.012,148.78303051757814Q427.257,148.79513051757812,427.502,148.81913051757812Q427.746,148.84323051757812,427.989,148.87923051757812Q428.232,148.91523051757812,428.473,148.96313051757812Q428.713,149.01103051757812,428.951,149.0707305175781Q429.19,149.13033051757813,429.424,149.2016305175781Q429.659,149.27293051757812,429.89,149.35563051757813Q430.122,149.43833051757812,430.348,149.5322305175781Q430.575,149.62613051757813,430.797,149.73113051757812Q431.019,149.8361305175781,431.236,149.95183051757812Q431.452,150.06753051757812,431.663,150.19373051757813Q431.873,150.31993051757811,432.077,150.45633051757812Q432.281,150.59273051757813,432.479,150.73893051757813Q432.676,150.88523051757812,432.866,151.04093051757812Q433.055,151.19663051757811,433.237,151.36153051757813Q433.419,151.52633051757812,433.593,151.69993051757814Q433.766,151.87353051757813,433.931,152.05543051757812Q434.096,152.23733051757813,434.252,152.42713051757812Q434.407,152.61683051757814,434.554,152.81403051757812Q434.7,153.01123051757813,434.836,153.21533051757814Q434.973,153.41943051757812,435.099,153.63003051757812Q435.225,153.84053051757812,435.341,154.05703051757814Q435.457,154.27353051757814,435.561,154.49543051757811Q435.666,154.71743051757812,435.76,154.94423051757812Q435.854,155.17103051757812,435.937,155.40213051757812Q436.02,155.6332305175781,436.091,155.86813051757812Q436.162,156.1031305175781,436.222,156.34123051757814Q436.281,156.57933051757811,436.329,156.82013051757812Q436.377,157.06093051757813,436.413,157.30373051757812Q436.449,157.54653051757813,436.473,157.79083051757812Q436.498,158.03513051757812,436.51,158.28033051757814Q436.522,158.52553051757812,436.522,158.77103051757814ZM147.904,351.7940305175781L147.904,158.77103051757814Q147.904,158.52553051757812,147.916,158.28033051757814Q147.928,158.03513051757812,147.952,157.79083051757812Q147.976,157.54653051757813,148.012,157.30373051757812Q148.048,157.06093051757813,148.096,156.82013051757812Q148.144,156.57933051757811,148.203,156.34123051757814Q148.263,156.1031305175781,148.334,155.86813051757812Q148.405,155.6332305175781,148.488,155.40213051757812Q148.571,155.17103051757812,148.66500000000002,154.94423051757812Q148.75900000000001,154.71743051757812,148.864,154.49543051757811Q148.969,154.27353051757814,149.084,154.05703051757814Q149.2,153.84053051757812,149.326,153.63003051757812Q149.452,153.41943051757812,149.589,153.21533051757814Q149.725,153.01123051757813,149.87099999999998,152.81403051757812Q150.018,152.61683051757814,150.173,152.42713051757812Q150.329,152.23733051757813,150.494,152.05543051757812Q150.659,151.87353051757813,150.832,151.69993051757814Q151.006,151.52633051757812,151.188,151.36153051757813Q151.37,151.19663051757811,151.56,151.04093051757812Q151.749,150.88523051757812,151.947,150.73893051757813Q152.144,150.59273051757813,152.348,150.45633051757812Q152.55200000000002,150.31993051757811,152.762,150.19373051757813Q152.973,150.06753051757812,153.19,149.95183051757812Q153.406,149.8361305175781,153.628,149.73113051757812Q153.85,149.62613051757813,154.077,149.5322305175781Q154.303,149.43833051757812,154.535,149.35563051757813Q154.766,149.27293051757812,155.001,149.2016305175781Q155.236,149.13033051757813,155.474,149.0707305175781Q155.712,149.01103051757812,155.953,148.96313051757812Q156.193,148.91523051757812,156.436,148.87923051757812Q156.679,148.84323051757812,156.923,148.81913051757812Q157.168,148.79513051757812,157.413,148.78303051757814Q157.658,148.77103051757814,157.904,148.77103051757814Q158.149,148.77103051757814,158.394,148.78303051757814Q158.639,148.79513051757812,158.884,148.81913051757812Q159.128,148.84323051757812,159.371,148.87923051757812Q159.614,148.91523051757812,159.854,148.96313051757812Q160.095,149.01103051757812,160.333,149.0707305175781Q160.571,149.13033051757813,160.806,149.2016305175781Q161.041,149.27293051757812,161.272,149.35563051757813Q161.504,149.43833051757812,161.73,149.5322305175781Q161.957,149.62613051757813,162.179,149.73113051757812Q162.401,149.8361305175781,162.618,149.95183051757812Q162.834,150.06753051757812,163.045,150.19373051757813Q163.255,150.31993051757811,163.459,150.45633051757812Q163.663,150.59273051757813,163.861,150.73893051757813Q164.058,150.88523051757812,164.247,151.04093051757812Q164.437,151.19663051757811,164.619,151.36153051757813Q164.801,151.52633051757812,164.975,151.69993051757814Q165.148,151.87353051757813,165.313,152.05543051757812Q165.478,152.23733051757813,165.634,152.42713051757812Q165.789,152.61683051757814,165.936,152.81403051757812Q166.082,153.01123051757813,166.218,153.21533051757814Q166.355,153.41943051757812,166.481,153.63003051757812Q166.607,153.84053051757812,166.723,154.05703051757814Q166.838,154.27353051757814,166.943,154.49543051757811Q167.048,154.71743051757812,167.142,154.94423051757812Q167.236,155.17103051757812,167.319,155.40213051757812Q167.402,155.6332305175781,167.473,155.86813051757812Q167.544,156.1031305175781,167.604,156.34123051757814Q167.663,156.57933051757811,167.711,156.82013051757812Q167.759,157.06093051757813,167.795,157.30373051757812Q167.831,157.54653051757813,167.855,157.79083051757812Q167.879,158.03513051757812,167.892,158.28033051757814Q167.904,158.52553051757812,167.904,158.77103051757814L167.904,351.7940305175781Q167.904,352.0390305175781,167.891,352.2850305175781Q167.879,352.5300305175781,167.855,352.7740305175781Q167.831,353.01803051757815,167.795,353.2610305175781Q167.759,353.50403051757814,167.711,353.74503051757813Q167.663,353.9860305175781,167.604,354.2240305175781Q167.544,354.4620305175781,167.473,354.6970305175781Q167.402,354.93203051757814,167.319,355.16303051757814Q167.236,355.39403051757813,167.142,355.6210305175781Q167.048,355.84803051757814,166.943,356.0690305175781Q166.838,356.2910305175781,166.723,356.50803051757816Q166.607,356.7240305175781,166.481,356.9350305175781Q166.355,357.1450305175781,166.218,357.35003051757815Q166.082,357.5540305175781,165.936,357.7510305175781Q165.789,357.9480305175781,165.634,358.13803051757816Q165.478,358.3280305175781,165.313,358.5100305175781Q165.148,358.69103051757816,164.975,358.86503051757813Q164.801,359.0390305175781,164.619,359.2030305175781Q164.437,359.3680305175781,164.247,359.5240305175781Q164.058,359.68003051757813,163.861,359.82603051757815Q163.663,359.9720305175781,163.459,360.10903051757816Q163.255,360.24503051757813,163.045,360.3710305175781Q162.834,360.49703051757814,162.617,360.6130305175781Q162.401,360.72903051757817,162.179,360.8340305175781Q161.957,360.9390305175781,161.73,361.03303051757814Q161.504,361.12703051757813,161.272,361.2090305175781Q161.041,361.29203051757816,160.806,361.3630305175781Q160.571,361.4350305175781,160.333,361.49403051757815Q160.095,361.5540305175781,159.854,361.6020305175781Q159.614,361.6500305175781,159.371,361.68603051757816Q159.128,361.7220305175781,158.884,361.7460305175781Q158.639,361.7700305175781,158.394,361.78203051757816Q158.149,361.7940305175781,157.904,361.7940305175781Q157.658,361.7940305175781,157.413,361.78203051757816Q157.168,361.7700305175781,156.923,361.7460305175781Q156.679,361.7220305175781,156.436,361.68603051757816Q156.193,361.6500305175781,155.953,361.6020305175781Q155.712,361.5540305175781,155.474,361.49403051757815Q155.236,361.4350305175781,155.001,361.3630305175781Q154.766,361.29203051757816,154.535,361.2090305175781Q154.303,361.12703051757813,154.077,361.03303051757814Q153.85,360.9390305175781,153.628,360.8340305175781Q153.406,360.72903051757817,153.19,360.6130305175781Q152.973,360.49703051757814,152.762,360.3710305175781Q152.55200000000002,360.24503051757813,152.348,360.10903051757816Q152.144,359.9720305175781,151.947,359.82603051757815Q151.749,359.68003051757813,151.56,359.5240305175781Q151.37,359.3680305175781,151.188,359.2030305175781Q151.006,359.0390305175781,150.832,358.86503051757813Q150.659,358.69103051757816,150.494,358.5100305175781Q150.329,358.3280305175781,150.173,358.13803051757816Q150.018,357.9480305175781,149.87099999999998,357.7510305175781Q149.725,357.5540305175781,149.589,357.35003051757815Q149.452,357.1450305175781,149.326,356.9350305175781Q149.2,356.7240305175781,149.084,356.50803051757816Q148.969,356.2910305175781,148.864,356.0690305175781Q148.75900000000001,355.84803051757814,148.66500000000002,355.6210305175781Q148.571,355.39403051757813,148.488,355.16303051757814Q148.405,354.93203051757814,148.334,354.6970305175781Q148.263,354.4620305175781,148.203,354.2240305175781Q148.144,353.9860305175781,148.096,353.74503051757813Q148.048,353.50403051757814,148.012,353.2610305175781Q147.976,353.01803051757815,147.952,352.7740305175781Q147.928,352.5300305175781,147.916,352.2850305175781Q147.904,352.0390305175781,147.904,351.7940305175781ZM78,158.77103051757814L78,115.00003051757812Q78,114.75454451757813,78.012,114.50935351757812Q78.0241,114.26416351757813,78.0481,114.01985951757813Q78.07220000000001,113.77555051757813,78.1082,113.53273051757813Q78.1442,113.28990051757812,78.19210000000001,113.04913051757812Q78.24000000000001,112.80836051757812,78.2997,112.57023051757812Q78.35929999999999,112.33210051757813,78.4306,112.09718051757812Q78.5019,111.86227051757812,78.58449999999999,111.63113051757813Q78.66720000000001,111.40000051757812,78.7612,111.17320051757812Q78.8551,110.94640051757813,78.9601,110.72448051757813Q79.0651,110.50256051757813,79.1808,110.28606051757812Q79.29650000000001,110.06956051757813,79.42269999999999,109.85900051757812Q79.5489,109.64844051757812,79.6853,109.44433051757812Q79.82169999999999,109.24021051757812,79.9679,109.04304051757812Q80.11410000000001,108.84586051757813,80.2699,108.65610051757812Q80.4256,108.46633051757813,80.59049999999999,108.28444051757812Q80.7553,108.10255051757812,80.9289,107.92896051757812Q81.10249999999999,107.75538051757812,81.2844,107.59052051757813Q81.46629999999999,107.42566051757812,81.65610000000001,107.26993051757813Q81.8458,107.11419051757812,82.043,106.96796051757812Q82.2402,106.82172051757813,82.4443,106.68533051757812Q82.64840000000001,106.54895051757812,82.85900000000001,106.42274051757812Q83.0695,106.29654051757812,83.286,106.18082051757813Q83.5025,106.06510051757813,83.7244,105.96014051757813Q83.9464,105.85518051757812,84.17320000000001,105.76124051757813Q84.4,105.66729051757812,84.6311,105.58459051757812Q84.8622,105.50189051757812,85.0971,105.43063051757812Q85.3321,105.35937051757813,85.5702,105.29972051757812Q85.8083,105.24007051757812,86.04910000000001,105.19218051757812Q86.2899,105.14429051757813,86.5327,105.10827051757812Q86.7755,105.07225051757813,87.0198,105.04818051757812Q87.2641,105.02412051757813,87.5093,105.01208051757813Q87.75450000000001,105.00003051757812,88,105.00003051757812L487,105.00003051757812Q487.245,105.00003051757812,487.491,105.01208051757813Q487.736,105.02412051757813,487.98,105.04818051757812Q488.224,105.07225051757813,488.467,105.10827051757812Q488.71,105.14429051757813,488.951,105.19218051757812Q489.192,105.24007051757812,489.43,105.29972051757812Q489.668,105.35937051757813,489.903,105.43063051757812Q490.138,105.50189051757812,490.369,105.58459051757812Q490.6,105.66729051757812,490.827,105.76124051757813Q491.054,105.85518051757812,491.276,105.96014051757813Q491.497,106.06510051757813,491.714,106.18082051757813Q491.93,106.29654051757812,492.141,106.42274051757812Q492.352,106.54895051757812,492.556,106.68534051757813Q492.76,106.82172051757813,492.957,106.96796051757812Q493.154,107.11419051757812,493.344,107.26993051757813Q493.534,107.42566051757812,493.716,107.59052051757813Q493.897,107.75538051757812,494.071,107.92896051757812Q494.245,108.10255051757812,494.409,108.28444051757812Q494.574,108.46633051757813,494.73,108.65610051757812Q494.886,108.84586051757813,495.032,109.04304051757812Q495.178,109.24021051757812,495.315,109.44433051757812Q495.451,109.64844051757812,495.577,109.85900051757812Q495.703,110.06956051757813,495.819,110.28606051757812Q495.935,110.50256051757813,496.04,110.72448051757813Q496.145,110.94640051757813,496.239,111.17320051757812Q496.333,111.40000051757812,496.415,111.63113051757813Q496.498,111.86227051757812,496.569,112.09718051757812Q496.641,112.33210051757813,496.7,112.57023051757812Q496.76,112.80836051757812,496.808,113.04913051757812Q496.856,113.28990051757812,496.892,113.53273051757813Q496.928,113.77555051757813,496.952,114.01985951757813Q496.976,114.26416351757813,496.988,114.50935351757812Q497,114.75454451757813,497,115.00003051757812L497,158.77103051757814L497,358.25203051757813L497,397.0000305175781Q497,397.24503051757813,496.988,397.4910305175781Q496.976,397.7360305175781,496.952,397.98003051757814Q496.928,398.2240305175781,496.892,398.4670305175781Q496.856,398.7100305175781,496.808,398.95103051757815Q496.76,399.19203051757813,496.7,399.43003051757813Q496.641,399.66803051757813,496.569,399.90303051757815Q496.498,400.1380305175781,496.415,400.36903051757815Q496.333,400.60003051757815,496.239,400.8270305175781Q496.145,401.0540305175781,496.04,401.2750305175781Q495.935,401.49703051757814,495.819,401.7140305175781Q495.703,401.93003051757813,495.577,402.14103051757814Q495.451,402.3520305175781,495.315,402.5560305175781Q495.178,402.7600305175781,495.032,402.9570305175781Q494.886,403.1540305175781,494.73,403.3440305175781Q494.574,403.5340305175781,494.409,403.71603051757813Q494.245,403.8970305175781,494.071,404.07103051757815Q493.897,404.24503051757813,493.716,404.4090305175781Q493.534,404.57403051757814,493.344,404.73003051757814Q493.154,404.88603051757815,492.957,405.0320305175781Q492.76,405.1780305175781,492.556,405.3150305175781Q492.352,405.45103051757815,492.141,405.5770305175781Q491.93,405.7030305175781,491.714,405.81903051757814Q491.497,405.9350305175781,491.276,406.04003051757815Q491.054,406.1450305175781,490.827,406.2390305175781Q490.6,406.33303051757815,490.369,406.41503051757815Q490.138,406.4980305175781,489.903,406.56903051757814Q489.668,406.64103051757814,489.43,406.7000305175781Q489.192,406.7600305175781,488.951,406.8080305175781Q488.71,406.8560305175781,488.467,406.8920305175781Q488.224,406.9280305175781,487.98,406.9520305175781Q487.736,406.9760305175781,487.491,406.9880305175781Q487.245,407.0000305175781,487,407.0000305175781L88,407.0000305175781Q87.75450000000001,407.0000305175781,87.5093,406.9880305175781Q87.2641,406.9760305175781,87.0198,406.9520305175781Q86.7755,406.9280305175781,86.5327,406.8920305175781Q86.2899,406.8560305175781,86.04910000000001,406.8080305175781Q85.8083,406.7600305175781,85.5702,406.7000305175781Q85.3321,406.64103051757814,85.0971,406.56903051757814Q84.8622,406.4980305175781,84.6311,406.41503051757815Q84.4,406.33303051757815,84.17320000000001,406.2390305175781Q83.9464,406.1450305175781,83.7244,406.04003051757815Q83.5025,405.9350305175781,83.286,405.81903051757814Q83.0695,405.7030305175781,82.85900000000001,405.5770305175781Q82.64840000000001,405.45103051757815,82.4443,405.3150305175781Q82.2402,405.1780305175781,82.043,405.0320305175781Q81.8458,404.88603051757815,81.65610000000001,404.73003051757814Q81.46629999999999,404.57403051757814,81.2844,404.4090305175781Q81.10249999999999,404.24503051757813,80.9289,404.07103051757815Q80.7553,403.8970305175781,80.59049999999999,403.71603051757813Q80.4256,403.5340305175781,80.2699,403.3440305175781Q80.11410000000001,403.1540305175781,79.9679,402.9570305175781Q79.82169999999999,402.7600305175781,79.6853,402.5560305175781Q79.5489,402.3520305175781,79.42269999999999,402.14103051757814Q79.29650000000001,401.93003051757813,79.1808,401.7140305175781Q79.0651,401.49703051757814,78.9601,401.2750305175781Q78.8551,401.0540305175781,78.7612,400.8270305175781Q78.66720000000001,400.60003051757815,78.58449999999999,400.36903051757815Q78.5018,400.1380305175781,78.4306,399.90303051757815Q78.35929999999999,399.66803051757813,78.2997,399.43003051757813Q78.24000000000001,399.19203051757813,78.19210000000001,398.95103051757815Q78.1442,398.7100305175781,78.1082,398.4670305175781Q78.07220000000001,398.2240305175781,78.04820000000001,397.98003051757814Q78.0241,397.7360305175781,78.012,397.4910305175781Q78,397.24503051757813,78,397.0000305175781L78,358.25203051757813L78,158.77103051757814ZM98,158.77103051757814L98,358.25203051757813L98,397.0000305175781L88,397.0000305175781L88,387.0000305175781L487,387.0000305175781L487,397.0000305175781L477,397.0000305175781L477,358.25203051757813L477,158.77103051757814L477,115.00003051757812L487,115.00003051757812L487,125.00003051757812L88,125.00003051757812L88,115.00003051757812L98,115.00003051757812L98,158.77103051757814ZM88,341.7940305175781L157.904,341.7940305175781L426.522,341.7940305175781L487,341.7940305175781Q487.245,341.7940305175781,487.491,341.80603051757817Q487.736,341.8180305175781,487.98,341.8420305175781Q488.224,341.8660305175781,488.467,341.9020305175781Q488.71,341.9380305175781,488.951,341.9860305175781Q489.192,342.0340305175781,489.43,342.0940305175781Q489.668,342.15303051757815,489.903,342.22503051757815Q490.138,342.2960305175781,490.369,342.3780305175781Q490.6,342.46103051757814,490.827,342.55503051757813Q491.054,342.6490305175781,491.276,342.75403051757814Q491.497,342.85903051757816,491.714,342.97503051757815Q491.93,343.09003051757816,492.141,343.2170305175781Q492.352,343.3430305175781,492.556,343.47903051757817Q492.76,343.6160305175781,492.957,343.7620305175781Q493.154,343.90803051757814,493.344,344.0640305175781Q493.534,344.22003051757815,493.716,344.38403051757814Q493.897,344.5490305175781,494.071,344.72303051757814Q494.245,344.8960305175781,494.409,345.0780305175781Q494.574,345.2600305175781,494.73,345.4500305175781Q494.886,345.6400305175781,495.032,345.8370305175781Q495.178,346.0340305175781,495.315,346.2380305175781Q495.451,346.44203051757813,495.577,346.65303051757815Q495.703,346.8630305175781,495.819,347.08003051757817Q495.935,347.2960305175781,496.04,347.51803051757815Q496.145,347.74003051757813,496.239,347.9670305175781Q496.333,348.1940305175781,496.415,348.42503051757814Q496.498,348.65603051757813,496.569,348.8910305175781Q496.641,349.1260305175781,496.7,349.36403051757816Q496.76,349.6020305175781,496.808,349.8430305175781Q496.856,350.0840305175781,496.892,350.3270305175781Q496.928,350.5690305175781,496.952,350.8140305175781Q496.976,351.0580305175781,496.988,351.3030305175781Q497,351.5480305175781,497,351.7940305175781L497,395.5650305175781Q497,395.8100305175781,496.988,396.0560305175781Q496.976,396.3010305175781,496.952,396.54503051757814Q496.928,396.7890305175781,496.892,397.0320305175781Q496.856,397.2750305175781,496.808,397.51603051757814Q496.76,397.75703051757813,496.7,397.99503051757813Q496.641,398.23303051757813,496.569,398.46803051757814Q496.498,398.7030305175781,496.415,398.93403051757815Q496.333,399.16503051757815,496.239,399.3920305175781Q496.145,399.61903051757815,496.04,399.8400305175781Q495.935,400.06203051757814,495.819,400.2790305175781Q495.703,400.49503051757813,495.577,400.70603051757814Q495.451,400.9160305175781,495.315,401.1210305175781Q495.178,401.3250305175781,495.032,401.5220305175781Q494.886,401.7190305175781,494.73,401.9090305175781Q494.574,402.0990305175781,494.409,402.2800305175781Q494.245,402.4620305175781,494.071,402.63603051757815Q493.897,402.8100305175781,493.716,402.9740305175781Q493.534,403.13903051757814,493.344,403.29503051757814Q493.154,403.45103051757815,492.957,403.5970305175781Q492.76,403.7430305175781,492.556,403.8800305175781Q492.352,404.01603051757814,492.141,404.1420305175781Q491.93,404.2680305175781,491.714,404.38403051757814Q491.497,404.5000305175781,491.276,404.60503051757814Q491.054,404.7100305175781,490.827,404.8040305175781Q490.6,404.89803051757815,490.369,404.98003051757814Q490.138,405.0630305175781,489.903,405.13403051757814Q489.668,405.20603051757814,489.43,405.2650305175781Q489.192,405.3250305175781,488.951,405.3730305175781Q488.71,405.4210305175781,488.467,405.4570305175781Q488.224,405.4930305175781,487.98,405.5170305175781Q487.736,405.5410305175781,487.491,405.5530305175781Q487.245,405.5650305175781,487,405.5650305175781L88,405.5650305175781Q87.75450000000001,405.5650305175781,87.5093,405.5530305175781Q87.2641,405.5410305175781,87.0198,405.5170305175781Q86.7755,405.4930305175781,86.5327,405.4570305175781Q86.2899,405.4210305175781,86.04910000000001,405.3730305175781Q85.8083,405.3250305175781,85.5702,405.2650305175781Q85.3321,405.20603051757814,85.0971,405.13403051757814Q84.8622,405.0630305175781,84.6311,404.98003051757814Q84.4,404.89803051757815,84.17320000000001,404.8040305175781Q83.9464,404.7100305175781,83.7244,404.60503051757814Q83.5025,404.5000305175781,83.286,404.38403051757814Q83.0695,404.2680305175781,82.85900000000001,404.1420305175781Q82.64840000000001,404.01603051757814,82.4443,403.8800305175781Q82.2402,403.7430305175781,82.043,403.5970305175781Q81.8458,403.45103051757815,81.65610000000001,403.29503051757814Q81.46629999999999,403.13903051757814,81.2844,402.9740305175781Q81.10249999999999,402.8100305175781,80.9289,402.63603051757815Q80.7553,402.4620305175781,80.59049999999999,402.2800305175781Q80.4256,402.0990305175781,80.2699,401.9090305175781Q80.11410000000001,401.7190305175781,79.9679,401.5220305175781Q79.82169999999999,401.3250305175781,79.6853,401.1210305175781Q79.5489,400.9160305175781,79.42269999999999,400.70603051757814Q79.29650000000001,400.49503051757813,79.1808,400.2790305175781Q79.0651,400.06203051757814,78.9601,399.8400305175781Q78.8551,399.61903051757815,78.7612,399.3920305175781Q78.66720000000001,399.16503051757815,78.58449999999999,398.93403051757815Q78.5018,398.7030305175781,78.4306,398.46803051757814Q78.35929999999999,398.23303051757813,78.2997,397.99503051757813Q78.24000000000001,397.75703051757813,78.19210000000001,397.51603051757814Q78.1442,397.2750305175781,78.1082,397.0320305175781Q78.07220000000001,396.7890305175781,78.04820000000001,396.54503051757814Q78.0241,396.3010305175781,78.012,396.0560305175781Q78,395.8100305175781,78,395.5650305175781L78,351.7940305175781Q78,351.5480305175781,78.012,351.3030305175781Q78.0241,351.0580305175781,78.0481,350.8140305175781Q78.07220000000001,350.5690305175781,78.1082,350.3270305175781Q78.1442,350.0840305175781,78.19210000000001,349.8430305175781Q78.24000000000001,349.6020305175781,78.2997,349.36403051757816Q78.35929999999999,349.1260305175781,78.4306,348.8910305175781Q78.5019,348.65603051757813,78.58449999999999,348.42503051757814Q78.66720000000001,348.1940305175781,78.7612,347.9670305175781Q78.8551,347.74003051757813,78.9601,347.51803051757815Q79.0651,347.2960305175781,79.1808,347.08003051757817Q79.29650000000001,346.8630305175781,79.42269999999999,346.65303051757815Q79.5489,346.44203051757813,79.6853,346.2380305175781Q79.82169999999999,346.0340305175781,79.9679,345.8370305175781Q80.11410000000001,345.6400305175781,80.2699,345.4500305175781Q80.4256,345.2600305175781,80.59049999999999,345.0780305175781Q80.7553,344.8960305175781,80.9289,344.72303051757814Q81.10249999999999,344.5490305175781,81.2844,344.38403051757814Q81.46629999999999,344.22003051757815,81.65610000000001,344.0640305175781Q81.8458,343.90803051757814,82.043,343.7620305175781Q82.2402,343.6160305175781,82.4443,343.47903051757817Q82.64840000000001,343.3430305175781,82.85900000000001,343.2170305175781Q83.0695,343.09003051757816,83.286,342.97503051757815Q83.5025,342.85903051757816,83.7244,342.75403051757814Q83.9464,342.6490305175781,84.17320000000001,342.55503051757813Q84.4,342.46103051757814,84.6311,342.3780305175781Q84.8622,342.2960305175781,85.0971,342.22503051757815Q85.3321,342.15303051757815,85.5702,342.0940305175781Q85.8083,342.0340305175781,86.04910000000001,341.9860305175781Q86.2899,341.9380305175781,86.5327,341.9020305175781Q86.7755,341.8660305175781,87.0198,341.8420305175781Q87.2641,341.8180305175781,87.5093,341.80603051757817Q87.75450000000001,341.7940305175781,88,341.7940305175781ZM88,361.7940305175781L88,351.7940305175781L98,351.7940305175781L98,395.5650305175781L88,395.5650305175781L88,385.5650305175781L487,385.5650305175781L487,395.5650305175781L477,395.5650305175781L477,351.7940305175781L487,351.7940305175781L487,361.7940305175781L426.522,361.7940305175781L157.904,361.7940305175781L88,361.7940305175781Z" fill="url(#master_svg1_29_8790)" fill-opacity="1"/></g><g style="mix-blend-mode:passthrough"><path d="M264.537109375,302.0000305175781L335.500009375,253.36923051757813L264.537109375,201.00003051757812L264.537109375,302.0000305175781Z" fill="#000000" fill-opacity="1"/><path d="M341.153009375,261.61813051757815L270.190059375,310.24903051757815Q269.987559375,310.38803051757816,269.778499375,310.51603051757814Q269.569439375,310.6450305175781,269.354309375,310.76303051757816Q269.139179375,310.88203051757813,268.918519375,310.98903051757816Q268.697849375,311.0970305175781,268.472159375,311.1930305175781Q268.246479375,311.29003051757815,268.016329375,311.3750305175781Q267.786189375,311.46103051757814,267.552119375,311.5350305175781Q267.318059375,311.6090305175781,267.080649375,311.6710305175781Q266.843239375,311.7340305175781,266.603039375,311.7840305175781Q266.362849375,311.8350305175781,266.120469375,311.87403051757815Q265.878079375,311.91303051757814,265.634069375,311.9400305175781Q265.390065375,311.9670305175781,265.145033375,311.9820305175781Q264.900001375,311.9960305175781,264.654532375,311.99903051757815Q264.409063375,312.00203051757813,264.163748375,311.9930305175781Q263.918433375,311.9840305175781,263.673863375,311.9630305175781Q263.429289375,311.94103051757816,263.186059375,311.90803051757814Q262.942819375,311.8750305175781,262.701509375,311.8300305175781Q262.460189375,311.7850305175781,262.221379375,311.72803051757813Q261.982569375,311.6710305175781,261.746829375,311.60303051757813Q261.511089375,311.5340305175781,261.278999375,311.45403051757813Q261.046909375,311.37403051757815,260.819019375,311.28303051757814Q260.591139375,311.19203051757813,260.367999375,311.0890305175781Q260.144869375,310.9870305175781,259.927029375,310.87403051757815Q259.709179375,310.7610305175781,259.497149375,310.6370305175781Q259.285129375,310.51303051757816,259.079429375,310.37903051757814Q258.873719375,310.24503051757813,258.674839375,310.1010305175781Q258.475959375,309.9580305175781,258.284379375,309.8040305175781Q258.092809375,309.65103051757814,257.908989375,309.4880305175781Q257.725169375,309.3250305175781,257.549559375,309.1540305175781Q257.373949375,308.9820305175781,257.20696937499997,308.80203051757815Q257.039979375,308.62203051757814,256.882029375,308.4340305175781Q256.724079375,308.2460305175781,256.575539375,308.0510305175781Q256.426999375,307.85503051757814,256.288219375,307.65303051757815Q255.862889375,307.0320305175781,255.535219375,306.35503051757814Q255.20754937499999,305.6780305175781,254.984909375,304.9590305175781Q254.762279375,304.24003051757813,254.649689375,303.4960305175781Q254.537109375,302.75203051757813,254.537109375,302.0000305175781L254.537109375,201.00003051757812Q254.537109375,200.75454451757813,254.549159375,200.50935351757812Q254.561199375,200.2641635175781,254.585259375,200.0198595175781Q254.609329375,199.77555051757813,254.645349375,199.53273051757813Q254.681369375,199.28990051757813,254.729259375,199.04913051757813Q254.777149375,198.80836051757814,254.836799375,198.57023051757812Q254.896449375,198.3321005175781,254.967709375,198.09718051757812Q255.038969375,197.8622705175781,255.121669375,197.63113051757813Q255.204369375,197.40000051757812,255.298319375,197.17320051757812Q255.392259375,196.94640051757813,255.497219375,196.72448051757812Q255.602179375,196.50256051757813,255.717899375,196.28606051757814Q255.833619375,196.0695605175781,255.959819375,195.85900051757812Q256.086029375,195.64844051757814,256.222419375,195.44433051757812Q256.358799375,195.24021051757813,256.505039375,195.04304051757813Q256.651269375,194.84586051757813,256.807009375,194.65610051757812Q256.962739375,194.46633051757811,257.127599375,194.28444051757813Q257.292459375,194.10255051757812,257.466039375,193.92896051757813Q257.639629375,193.75538051757812,257.821519375,193.5905205175781Q258.003409375,193.42566051757814,258.193179375,193.26993051757813Q258.382939375,193.11419051757812,258.580119375,192.96796051757812Q258.777289375,192.82172051757811,258.981409375,192.68533051757814Q259.185519375,192.54895051757813,259.396079375,192.42274051757812Q259.606639375,192.29654051757814,259.823139375,192.18082051757813Q260.039639375,192.06510051757812,260.261559375,191.9601405175781Q260.483479375,191.85518051757813,260.710279375,191.76124051757813Q260.937079375,191.66729051757812,261.168209375,191.58459051757814Q261.399349375,191.50189051757812,261.634259375,191.43063051757812Q261.869179375,191.35937051757813,262.107309375,191.29972051757812Q262.345439375,191.24007051757812,262.586209375,191.19218051757812Q262.826979375,191.14429051757813,263.069809375,191.10827051757812Q263.312629375,191.0722505175781,263.556938375,191.04818051757812Q263.801242375,191.02412051757813,264.046432375,191.0120805175781Q264.291623375,191.00003051757812,264.537109375,191.00003051757812Q265.333491375,191.00003051757812,266.119839375,191.12608051757812Q266.906179375,191.25212051757813,267.662659375,191.50103051757813Q268.419149375,191.74995051757813,269.126699375,192.11546051757813Q269.834249375,192.48096051757813,270.475029375,192.95385051757813L341.437909375,245.32303051757813Q341.635409375,245.4688305175781,341.825609375,245.62413051757812Q342.01570937500003,245.77933051757813,342.19800937499997,245.94383051757814Q342.380309375,246.10823051757814,342.554309375,246.28143051757812Q342.728309375,246.45453051757812,342.893609375,246.63613051757812Q343.058809375,246.81763051757812,343.215009375,247.00693051757813Q343.37120937500003,247.19633051757813,343.517909375,247.39323051757813Q343.664609375,247.59003051757813,343.801509375,247.79383051757813Q343.938409375,247.99763051757813,344.065109375,248.20783051757812Q344.191809375,248.41813051757813,344.308009375,248.63433051757812Q344.42420937500003,248.85053051757814,344.529709375,249.07223051757813Q344.635209375,249.29393051757813,344.72970937499997,249.52053051757812Q344.824209375,249.74703051757814,344.907409375,249.97803051757813Q344.990709375,250.20893051757812,345.062509375,250.44373051757813Q345.134309375,250.67843051757814,345.194509375,250.91643051757814Q345.254709375,251.15443051757813,345.303209375,251.39503051757814Q345.351709375,251.6357305175781,345.388309375,251.87843051757812Q345.424809375,252.1212305175781,345.449509375,252.36543051757812Q345.474109375,252.60973051757813,345.486809375,252.85483051757814Q345.499409375,253.10003051757812,345.500009375,253.34553051757814Q345.500509375,253.59103051757813,345.489109375,253.83623051757812Q345.477609375,254.08143051757813,345.45410937500003,254.32583051757814Q345.430709375,254.57013051757812,345.395209375,254.8130305175781Q345.359809375,255.05593051757813,345.312409375,255.29683051757812Q345.265109375,255.53773051757813,345.206009375,255.77603051757814Q345.147009375,256.0143305175781,345.076309375,256.24933051757813Q345.005609375,256.4844305175781,344.923409375,256.7158305175781Q344.841209375,256.9471305175781,344.747809375,257.17413051757813Q344.654409375,257.4011305175781,344.550009375,257.6233305175781Q344.445609375,257.84553051757814,344.330409375,258.06223051757814Q344.215209375,258.2790305175781,344.08950937500003,258.4899305175781Q343.963809375,258.7007305175781,343.827809375,258.9052305175781Q343.691909375,259.1096305175781,343.546209375,259.3071305175781Q343.048909375,259.9810305175781,342.44640937500003,260.5628305175781Q341.843809375,261.1446305175781,341.153009375,261.61813051757815ZM329.847109375,245.1203305175781L335.500009375,253.36923051757813L329.562109375,261.4154305175781L258.599189375,209.04621051757812L264.537109375,201.00003051757812L274.537109375,201.00003051757812L274.537109375,302.0000305175781L264.537109375,302.0000305175781L258.884159375,293.75113051757813L329.847109375,245.1203305175781Z" fill="#000000" fill-opacity="1"/></g></g></svg>