<svg xmlns="http://www.w3.org/2000/svg" xmlns:xlink="http://www.w3.org/1999/xlink" fill="none" version="1.1" width="512" height="512" viewBox="0 0 512 512"><defs><linearGradient x1="1" y1="0" x2="0" y2="1" id="master_svg0_29_8766"><stop offset="0%" stop-color="#F26E01" stop-opacity="1"/><stop offset="100.00001192092896%" stop-color="#98FF11" stop-opacity="1"/></linearGradient></defs><g style="mix-blend-mode:passthrough"><g><path d="M223.53103637695312,102.5307678125C244.60803637695312,98.1109778125,266.37203637695313,98.1003378125,287.45303637695315,102.4995178125C290.2980363769531,121.2783078125,301.5420363769531,137.7386078125,318.0000363769531,147.2183078125C334.4450363769531,156.7307078125,354.32803637695315,158.2319078125,372.0150363769531,151.2964078125C386.36403637695315,167.35980781249998,397.23203637695315,186.21880781250002,403.93703637695313,206.68700781249998C389.1030363769531,218.54300781249998,380.47703637695315,236.5100078125,380.5000363769531,255.5000078125C380.5000363769531,275.25000781250003,389.6560363769531,292.8590078125,403.9690363769531,304.31200781250004C397.2240363769531,324.7630078125,386.3420363769531,343.6070078125,372.0000363769531,359.6710078125C354.3170363769531,352.7410078125,334.4410363769531,354.2420078125,318.0000363769531,363.7500078125C301.5550363769531,373.2260078125,290.31903637695314,389.6730078125,287.4690363769531,408.4370078125C266.3940363769531,412.8670078125,244.63003637695311,412.8880078125,223.54703637695314,408.5000078125C220.71503637695312,389.7030078125,209.47003637695312,373.2230078125,192.99973637695314,363.7340078125C176.55213637695311,354.2270078125,156.66883637695312,352.7310078125,138.98413637695313,359.6710078125C124.63413637695312,343.6030078125,113.76549637695312,324.7390078125,107.06228407695312,304.2650078125C121.88763637695313,292.41600781249997,130.5134363769531,274.4630078125,130.49973637695314,255.4840078125C130.51533637695312,236.4890078125,121.87663637695313,218.5210078125,107.03103637695312,206.6710078125C113.77584637695313,186.2202078125,124.65783637695313,167.37610781249998,138.9998363769531,151.31200781249998C156.68223637695314,158.2425078125,176.5587363769531,156.7414078125,192.99973637695314,147.2339078125C209.44403637695314,137.75730781250002,220.68103637695313,121.3107078125,223.53103637695312,102.5463978125L223.53103637695312,102.5307678125ZM255.50003637695312,302.37500781250003C281.3880363769531,302.37500781250003,302.3750363769531,281.3880078125,302.3750363769531,255.5000078125C302.3750363769531,229.6110078125,281.3880363769531,208.6250078125,255.50003637695312,208.6250078125C229.6110363769531,208.6250078125,208.62503637695312,229.6110078125,208.62503637695312,255.5000078125C208.62503637695312,281.3880078125,229.6110363769531,302.37500781250003,255.50003637695312,302.37500781250003Z" fill="url(#master_svg0_29_8766)" fill-opacity="1"/></g><g><path d="M255.49978637695312,309.87451171875Q244.44218637695312,309.87451171875,234.33228637695314,305.59841171875Q224.57288637695314,301.47051171875,217.05085637695313,293.94841171875Q209.52878137695313,286.42641171875,205.40092637695312,276.66701171875Q201.12478637695312,266.55711171875,201.12478637695312,255.49951171875Q201.12478637695312,244.44191171875,205.40092637695312,234.33201171875Q209.52878037695314,224.57261171875,217.05085637695313,217.05058171875Q224.57288637695314,209.52850471875,234.33228637695314,205.40065171875Q244.44218637695312,201.12451171875,255.49978637695312,201.12451171875Q266.5573863769531,201.12451171875,276.66728637695314,205.40065171875Q286.4266863769531,209.52851171875,293.9486863769531,217.05058171875Q301.47078637695313,224.57271171874999,305.59868637695314,234.33201171875Q309.8747863769531,244.44191171875,309.8747863769531,255.49951171875Q309.8747863769531,266.55711171875,305.59868637695314,276.66701171875Q301.47078637695313,286.42641171875,293.9486863769531,293.94841171875Q286.4266863769531,301.47051171875,276.66728637695314,305.59841171875Q266.5573863769531,309.87451171875,255.49978637695312,309.87451171875ZM255.49978637695312,294.87451171875Q263.51558637695314,294.87451171875,270.82398637695314,291.78331171875Q277.88878637695314,288.79511171875,283.34208637695315,283.34181171875Q288.7953863769531,277.88851171875,291.7835863769531,270.82371171875Q294.8747863769531,263.51531171875,294.8747863769531,255.49951171875Q294.8747863769531,247.48371171875,291.7835863769531,240.17531171875Q288.79548637695314,233.11051171875,283.34208637695315,227.65721171875Q277.88878637695314,222.20391171875,270.82398637695314,219.21571171875001Q263.51558637695314,216.12451171875,255.49978637695312,216.12451171875Q247.4839863769531,216.12451171875,240.17558637695313,219.21571171875001Q233.11078637695311,222.20391171875,227.65748637695313,227.65721171875Q222.20418637695312,233.11051171875,219.21598637695314,240.17531171875Q216.12478637695312,247.48371171875,216.12478637695312,255.49951171875Q216.12478637695312,263.51531171875,219.21598637695314,270.82371171875Q222.20418637695312,277.88851171875,227.65748637695313,283.34181171875Q233.11078637695311,288.79511171875,240.17558637695313,291.78331171875Q247.4839863769531,294.87451171875,255.49978637695312,294.87451171875Z" fill="#000000" fill-opacity="1"/></g></g></svg>