<svg xmlns="http://www.w3.org/2000/svg" xmlns:xlink="http://www.w3.org/1999/xlink" fill="none" version="1.1" width="1024" height="512" viewBox="0 0 1024 512"><defs><linearGradient x1="1" y1="0" x2="0" y2="1" id="master_svg0_48_5268"><stop offset="0%" stop-color="#FFB2B2" stop-opacity="1"/><stop offset="100%" stop-color="#FFD549" stop-opacity="1"/></linearGradient><clipPath id="master_svg1_48_2544"><rect x="0" y="0" width="1024" height="512" rx="50"/></clipPath><filter id="master_svg2_48_2602" filterUnits="objectBoundingBox" color-interpolation-filters="sRGB" x="-20" y="-16" width="295.99998474121094" height="289.8033142089844"><feFlood flood-opacity="0" result="BackgroundImageFix"/><feColorMatrix in="SourceAlpha" type="matrix" values="0 0 0 0 0 0 0 0 0 0 0 0 0 0 0 0 0 0 127 0"/><feOffset dy="4" dx="0"/><feGaussianBlur stdDeviation="5"/><feColorMatrix type="matrix" values="0 0 0 0 0 0 0 0 0 0 0 0 0 0 0 0 0 0 0.3019607961177826 0"/><feBlend mode="normal" in2="BackgroundImageFix" result="effect1_dropShadow"/><feBlend mode="normal" in="SourceGraphic" in2="effect1_dropShadow" result="shape"/></filter><linearGradient x1="0" y1="1" x2="1" y2="0" id="master_svg3_5_2560"><stop offset="0%" stop-color="#FFCC01" stop-opacity="1"/><stop offset="99.99992847442627%" stop-color="#FF5C11" stop-opacity="1"/></linearGradient><filter id="master_svg4_48_2603" filterUnits="objectBoundingBox" color-interpolation-filters="sRGB" x="-20" y="-16" width="295.99998474121094" height="239.77268981933594"><feFlood flood-opacity="0" result="BackgroundImageFix"/><feColorMatrix in="SourceAlpha" type="matrix" values="0 0 0 0 0 0 0 0 0 0 0 0 0 0 0 0 0 0 127 0"/><feOffset dy="4" dx="0"/><feGaussianBlur stdDeviation="5"/><feColorMatrix type="matrix" values="0 0 0 0 0 0 0 0 0 0 0 0 0 0 0 0 0 0 0.3019607961177826 0"/><feBlend mode="normal" in2="BackgroundImageFix" result="effect1_dropShadow"/><feBlend mode="normal" in="SourceGraphic" in2="effect1_dropShadow" result="shape"/></filter><linearGradient x1="1" y1="0" x2="0" y2="1" id="master_svg5_5_4302"><stop offset="0%" stop-color="#FF5C11" stop-opacity="1"/><stop offset="100.00003576278687%" stop-color="#FFCC01" stop-opacity="1"/></linearGradient><linearGradient x1="0" y1="1" x2="1" y2="0" id="master_svg6_5_2560"><stop offset="0%" stop-color="#FFCC01" stop-opacity="1"/><stop offset="99.99992847442627%" stop-color="#FF5C11" stop-opacity="1"/></linearGradient></defs><g style="mix-blend-mode:passthrough" clip-path="url(#master_svg1_48_2544)"><rect x="0" y="0" width="1024" height="512" rx="50" fill="url(#master_svg0_48_5268)" fill-opacity="1"/><g style="mix-blend-mode:passthrough"><path d="M553.6406,230L550.5156,199L530.2344,199L519.4375,230L506.59375,230L542.7188,133L555.4375,133L566.2344,230L553.6406,230ZM539.3594,172.8594L534.0781,188.1719L549.3125,188.1719L547.875,174.0625Q547.5156,170.9062,547.1562,166.7188Q546.7969,162.5156,546.5,158.3281Q546.2031,154.1406,546.3125,150.9844Q545.4844,154.1406,544.2188,158.2812Q542.9531,162.4062,541.625,166.2969Q540.3125,170.1875,539.3594,172.8594ZM584.2344,231L572.5938,231L583.0469,158L593.9531,158L593.3594,164.6406Q596.3594,160.0938,600.0156,158.1406Q603.6875,156.1719,607.1562,156.1719Q611.4844,156.1719,614.891,158.2812Q618.312,160.3906,619.938,165.1094Q621.562,169.8125,620.359,177.8906L612.922,231L601.1562,231L608.4844,179.7969Q610.2812,167,602.3594,167Q598.5156,167,595.6406,170.625Q592.7656,174.25,591.4375,179.9219L584.2344,231ZM641.875,149Q638.516,149,636.828,146.7656Q635.156,144.5312,635.641,141Q636.234,137.5781,638.266,135.2969Q640.312,133,644.047,133Q647.516,133,649.188,135.2969Q650.875,137.5781,650.281,141Q649.797,144.5312,647.688,146.7656Q645.594,149,641.875,149ZM636.125,231L624.484,231L634.797,158L646.438,158L636.125,231ZM660.234,231L648.594,231L659.047,158L669.953,158L669.359,164.6406Q672.359,160.0938,676.016,158.1406Q679.688,156.1719,683.156,156.1719Q687.953,156.1719,691.609,158.7031Q695.281,161.2188,696.359,167.2344Q699.484,161.2188,703.625,158.7031Q707.766,156.1719,711.844,156.1719Q716.156,156.1719,719.578,158.2812Q723,160.3906,724.609,165.1094Q726.234,169.8125,725.047,177.8906L717.594,231L705.844,231L713.156,179.7969Q714.953,167,707.047,167Q703.078,167,700.188,170.75Q697.312,174.5,696,180.4062L688.922,231L677.156,231L684.484,179.7969Q686.281,167,678.359,167Q674.516,167,671.641,170.625Q668.766,174.25,667.438,179.9219L660.234,231ZM772.203,231L761.156,231L761.766,224.25Q759.125,227.844,755.812,229.922Q752.516,232,748.922,232Q743.156,232,739.016,228.14100000000002Q734.875,224.281,733.312,215.547Q731.766,206.7969,733.797,192.2031Q736.312,173.8906,742.969,165.0312Q749.641,156.1719,758.406,156.1719Q766.438,156.1719,770.047,163.7812L770.875,158L782.5160000000001,158L772.203,231ZM745.688,193.5312Q744.719,201.2656,744.656,207.5469Q744.594,213.812,746.266,217.5Q747.953,221.172,752.047,221.172Q754.922,221.172,757.25,219.062Q759.594,216.938,761.266,213.562Q762.953,210.1875,763.922,206.4531L767.766,179.5469Q767.875,173.9844,765.656,170.5Q763.438,167,759.484,167Q755.766,167,753,170.625Q750.234,174.2344,748.438,180.2656Q746.641,186.2969,745.688,193.5312ZM788.688,209.3906L795.156,168L787.3589999999999,168L788.922,157.1719L796.844,157.1719L799.953,137L811,137L808,157.1719L821.562,157.1719L820,168L806.312,168L800.312,208.0469Q799.3589999999999,214.64100000000002,800.25,217.828Q801.156,221,804.5160000000001,221Q807.406,221,810.6410000000001,218.719L814.3589999999999,228.578Q810.6410000000001,230.26600000000002,806.6089999999999,231.219Q802.594,232.188,798.875,231.703Q795.156,231.23399999999998,792.453,228.875Q789.7660000000001,226.531,788.625,221.797Q787.4839999999999,217.062,788.688,209.3906ZM836.875,149Q833.5160000000001,149,831.828,146.7656Q830.156,144.5312,830.6410000000001,141Q831.2339999999999,137.5781,833.2660000000001,135.2969Q835.312,133,839.047,133Q842.5160000000001,133,844.188,135.2969Q845.875,137.5781,845.281,141Q844.797,144.5312,842.688,146.7656Q840.594,149,836.875,149ZM831.125,231L819.4839999999999,231L829.797,158L841.438,158L831.125,231ZM865.312,232Q853.688,232,849.3589999999999,222.797Q845.047,213.594,847.562,194.2031Q850.078,174.5781,856.7339999999999,165.375Q863.406,156.1719,874.797,156.1719Q886.562,156.1719,890.875,165.375Q895.203,174.5781,892.688,194.2031Q890.156,213.594,883.5,222.797Q876.844,232,865.312,232ZM866.156,221.172Q871.688,221.172,875.219,214.60899999999998Q878.7660000000001,208.0469,880.688,194.2031Q882.719,180.2344,881.031,173.625Q879.3589999999999,167,873.844,167Q868.562,167,865.078,173.625Q861.594,180.2344,859.562,194.2031Q857.6410000000001,208.0469,859.203,214.60899999999998Q860.7660000000001,221.172,866.156,221.172ZM910.2339999999999,231L898.594,231L909.047,158L919.953,158L919.3589999999999,164.6406Q922.3589999999999,160.0938,926.0160000000001,158.1406Q929.688,156.1719,933.156,156.1719Q937.4839999999999,156.1719,940.8910000000001,158.2812Q944.312,160.3906,945.938,165.1094Q947.562,169.8125,946.3589999999999,177.8906L938.922,231L927.156,231L934.4839999999999,179.7969Q936.281,167,928.3589999999999,167Q924.5160000000001,167,921.6410000000001,170.625Q918.7660000000001,174.25,917.438,179.9219L910.2339999999999,231ZM531.9219,375L513.20312,375L526.875,278L544.0469,278Q556.4062,278,562.8125,284.062Q569.2344,290.125,570.9688,301.297Q572.7188,312.453,570.6875,327.578Q568.875,342.10900000000004,564.3125,352.73400000000004Q559.7656,363.35900000000004,551.8438,369.188Q543.9219,375,531.9219,375ZM542.7188,288.828L537.6875,288.828L527.125,364.172L533.3594,364.172Q543.6875,364.172,549.5,354.812Q555.3125,345.438,557.7188,327.89099999999996Q560.5938,307.703,556.875,298.26599999999996Q553.1562,288.828,542.7188,288.828ZM586,375L574.5938,375L584.9219,301L596.3125,301L595,310.297Q598.4844,305.047,603.2812,302.781Q608.0781,300.5,613.359,300.5L611.7969,312.344Q605.2031,311.5,599.7969,315.672Q594.4062,319.828,592.4844,328.875L586,375ZM652.203,375L641.156,375L641.766,368.25Q639.125,371.844,635.812,373.922Q632.516,376,628.922,376Q623.156,376,619.016,372.141Q614.875,368.281,613.312,359.547Q611.7656,350.797,613.797,336.203Q616.312,317.89099999999996,622.969,309.031Q629.641,300.172,638.406,300.172Q646.438,300.172,650.047,307.781L650.875,302L662.516,302L652.203,375ZM625.688,337.531Q624.719,345.26599999999996,624.656,351.547Q624.594,357.812,626.266,361.5Q627.953,365.172,632.047,365.172Q634.922,365.172,637.25,363.062Q639.594,360.938,641.266,357.562Q642.953,354.188,643.922,350.453L647.766,323.547Q647.875,317.98400000000004,645.656,314.5Q643.438,311,639.484,311Q635.766,311,633,314.625Q630.234,318.23400000000004,628.438,324.26599999999996Q626.641,330.297,625.688,337.531ZM675.281,375L670.125,302L682,302L683.688,345.328Q683.797,349.39099999999996,683.969,353.51599999999996Q684.156,357.64099999999996,684.406,361.719Q685.594,357.64099999999996,686.859,353.578Q688.125,349.51599999999996,689.438,345.328L702.875,302L714.516,302L716.562,345.328Q716.797,349.39099999999996,716.969,353.469Q717.156,357.531,717.281,361.594Q718.594,357.531,719.859,353.469Q721.125,349.39099999999996,722.312,345.328L735.766,302L747.766,302L722.078,375L708.156,375L705.516,335.51599999999996Q705.406,333.594,705.344,331.14099999999996Q705.281,328.688,705.281,325.938Q704.797,327.969,704.312,329.828Q703.844,331.688,703.359,333L689.203,375L675.281,375ZM790.922,354.89099999999996Q788.047,364.906,781.672,370.453Q775.312,376,766.688,376Q757.562,376,753.234,371Q748.922,366.01599999999996,748.141,357.35900000000004Q747.359,348.688,748.688,337.594Q750.125,326.531,753.297,318.10900000000004Q756.484,309.672,762.125,304.922Q767.766,300.172,776.156,300.172Q784.922,300.172,789.2339999999999,305.047Q793.562,309.906,794.344,319.031Q795.125,328.156,793.312,341L759.719,341Q759,347.297,759.109,352.797Q759.234,358.281,761.156,361.73400000000004Q763.078,365.172,767.766,365.172Q776.406,365.172,780.2339999999999,353.328L790.922,354.89099999999996ZM775.203,311Q770.047,311,766.672,316.125Q763.312,321.23400000000004,761.281,331L782.5160000000001,331Q783,325.281,782.6410000000001,320.76599999999996Q782.281,316.23400000000004,780.531,313.625Q778.797,311,775.203,311ZM810,375L798.594,375L808.922,301L820.312,301L819,310.297Q822.4839999999999,305.047,827.281,302.781Q832.078,300.5,837.3589999999999,300.5L835.797,312.344Q829.203,311.5,823.797,315.672Q818.406,319.828,816.4839999999999,328.875L810,375Z" fill="#3D3D3D" fill-opacity="1"/></g><g style="mix-blend-mode:passthrough"><path d="M210.6016,494.2422Q209.6406,495.6797,208.0625,496.5Q206.4922,497.3125,204.55469,497.3125Q202.10156,497.3125,200.25,496.125Q198.40625,494.9375,197.38281,492.7812Q196.36719,490.6172,196.36719,487.7812Q196.36719,485,197.38281,482.8906Q198.40625,480.77344,200.25,479.60938Q202.10156,478.44531,204.55469,478.44531Q206.4453,478.44531,208.0547,479.26562Q209.6641,480.07812,210.6016,481.52344L209.1094,482.5781Q208.3672,481.49219,207.0938,480.85156Q205.8203,480.20312,204.53125,480.20312Q202.67969,480.20312,201.26562,481.14844Q199.85156,482.0938,199.07031,483.8125Q198.28906,485.5312,198.28906,487.7812Q198.28906,490.0859,199.07031,491.8516Q199.85156,493.6172,201.26562,494.5938Q202.67969,495.5625,204.53125,495.5625Q205.8516,495.5625,207.0703,494.9141Q208.2969,494.2656,209.1094,493.1328L210.6016,494.2422ZM218.3906,497.3125Q216.6562,497.3125,215.3516,496.5Q214.0469,495.6797,213.3359,494.1719Q212.625,492.6562,212.625,490.6406Q212.625,488.625,213.3359,487.1172Q214.0469,485.6016,215.3516,484.7891Q216.6562,483.9688,218.3906,483.9688Q220.1172,483.9688,221.4219,484.7891Q222.7344,485.6016,223.4375,487.1172Q224.1484,488.625,224.1484,490.6406Q224.1484,492.6562,223.4375,494.1719Q222.7344,495.6797,221.4219,496.5Q220.1172,497.3125,218.3906,497.3125ZM218.3906,495.6328Q220.1641,495.6328,221.2422,494.2812Q222.3203,492.9219,222.3203,490.6406Q222.3203,488.3594,221.2422,487.0078Q220.1641,485.6484,218.3906,485.6484Q216.6094,485.6484,215.5312,487.0078Q214.4531,488.3594,214.4531,490.6406Q214.4531,492.9219,215.5312,494.2812Q216.6094,495.6328,218.3906,495.6328ZM227.25,502.7109L227.25,484.3047L229.0312,484.3047L229.0312,486.3203L229.1484,486.3203Q229.8438,485.2188,230.9219,484.5938Q232.0078,483.9688,233.2734,483.9688Q234.8125,483.9688,236.0469,484.7969Q237.2812,485.625,237.9766,487.1016Q238.6797,488.5781,238.6797,490.4453Q238.6797,492.4141,237.9766,493.9766Q237.2812,495.5391,236.0469,496.4141Q234.8125,497.2891,233.2734,497.2891Q231.9062,497.2891,230.8516,496.6875Q229.7969,496.0859,229.1484,494.9609L229.0312,494.9609L229.0312,502.7109L227.25,502.7109ZM228.9531,490.6406Q228.9531,492.0781,229.4453,493.1953Q229.9375,494.3125,230.8125,494.9375Q231.6953,495.5625,232.8203,495.5625Q233.9688,495.5625,234.8906,494.9375Q235.8203,494.3125,236.3438,493.1953Q236.875,492.0781,236.875,490.6406Q236.875,489.2266,236.3594,488.1094Q235.8438,486.9922,234.9297,486.3594Q234.0234,485.7188,232.8672,485.7188Q231.7422,485.7188,230.8516,486.3594Q229.9609,486.9922,229.4531,488.1094Q228.9531,489.2266,228.9531,490.6406ZM245.0859,496.9766L240.1406,484.3047L242.1562,484.3047L246.0938,494.7422L246.2422,494.7422L250.0312,484.3047L252.0469,484.3047L244.9219,502.7344L242.9297,502.7344L245.0859,496.9766ZM253.75,496.9766L253.75,484.3047L255.5312,484.3047L255.5312,486.8516L255.6484,486.8516Q256.4141,485.5312,257.6641,484.75Q258.9141,483.9688,260.4688,483.9688L260.6641,483.9688L260.6641,485.8906L260.4219,485.8906Q258.9609,485.8906,257.8438,486.4297Q256.7266,486.9688,256.125,487.8438Q255.5312,488.7188,255.5312,489.6797L255.5312,496.9766L253.75,496.9766ZM265.1484,479.69531Q265.1484,480.27344,264.7969,480.60938Q264.4531,480.94531,263.8828,480.94531Q263.3047,480.94531,262.9766,480.60938Q262.6562,480.27344,262.6562,479.69531Q262.6562,479.11719,262.9766,478.78125Q263.3047,478.44531,263.8828,478.44531Q264.4531,478.44531,264.7969,478.78125Q265.1484,479.11719,265.1484,479.69531ZM264.7891,484.3047L264.7891,497L263.0156,497L263.0156,484.3047L264.7891,484.3047ZM273.8672,503.0234Q272.1562,503.0234,270.7656,502.3281Q269.375,501.6328,268.5625,500.3828L270.0469,499.375Q270.6484,500.3125,271.7031,500.8359Q272.7578,501.3672,273.8672,501.3672Q275.7344,501.3672,276.7656,500.2266Q277.7969,499.0859,277.7969,497.0234L277.7969,494.9609L277.6562,494.9609Q277.0312,496.0859,275.9766,496.7031Q274.9219,497.3125,273.6016,497.3125Q272.0625,497.3125,270.8125,496.4375Q269.5703,495.5625,268.8438,494.0156Q268.125,492.4609,268.125,490.5234Q268.125,488.625,268.8359,487.125Q269.5469,485.625,270.8047,484.7969Q272.0625,483.9688,273.6016,483.9688Q274.8203,483.9688,275.875,484.5938Q276.9375,485.2188,277.6562,486.3203L277.7969,486.3203L277.7969,484.3281L279.5781,484.3281L279.5781,496.7344Q279.5781,499.7578,278.1016,501.3906Q276.625,503.0234,273.8672,503.0234ZM274.0312,495.5625Q275.1562,495.5625,276.0234,494.9375Q276.8906,494.3125,277.3672,493.1953Q277.8516,492.0781,277.8516,490.6406Q277.8516,489.2266,277.3594,488.1016Q276.8672,486.9688,275.9766,486.3438Q275.0859,485.7188,273.9609,485.7188Q272.8047,485.7188,271.8906,486.3438Q270.9844,486.9688,270.4688,488.0859Q269.9531,489.2031,269.9531,490.6406Q269.9531,492.0781,270.4766,493.1953Q271.0078,494.3125,271.9297,494.9375Q272.8594,495.5625,274.0312,495.5625ZM283.25,496.9766L283.25,478.78125L285.0312,478.78125L285.0312,486.25L285.1484,486.25Q285.7266,485.2188,286.8516,484.5938Q287.9766,483.9688,289.2031,483.9688Q291.3125,483.9688,292.5156,485.2891Q293.7188,486.6094,293.7188,488.9844L293.7188,496.9766L291.9375,496.9766L291.9375,489.2734Q291.9375,487.6172,291.0391,486.6094Q290.1406,485.6016,288.7734,485.6016Q287.1172,485.6016,286.0703,486.6953Q285.0312,487.7812,285.0312,489.4609L285.0312,496.9766L283.25,496.9766ZM303.445,485.9844L299.773,485.9844L299.773,493.4453Q299.773,494.5547,300.32,495.1641Q300.875,495.7734,301.859,495.7734Q302.367,495.7734,303.156,495.5156L303.156,497.1719Q302.508,497.4297,301.5,497.4297Q299.797,497.4297,298.883,496.4375Q297.969,495.4375,297.969,493.5938L297.969,485.9844L295.977,485.9844L295.977,484.3047L297.969,484.3047L297.969,480.34375L299.773,480.34375L299.773,484.3047L303.445,484.3047L303.445,485.9844ZM323.062,497.3125Q320.32,497.3125,318.164,496.1172Q316.008,494.9141,314.805,492.7656Q313.602,490.6172,313.602,487.8828Q313.602,485.1406,314.805,483Q316.008,480.85156,318.164,479.64844Q320.32,478.44531,323.062,478.44531Q325.797,478.44531,327.93,479.64844Q330.07,480.85156,331.26599999999996,483Q332.469,485.1406,332.469,487.8828Q332.469,490.6172,331.26599999999996,492.7656Q330.07,494.9141,327.93,496.1172Q325.797,497.3125,323.062,497.3125ZM323.062,496.2812Q325.461,496.2812,327.352,495.2109Q329.25,494.1406,330.32,492.2266Q331.39099999999996,490.3047,331.39099999999996,487.8828Q331.39099999999996,485.4531,330.32,483.5391Q329.25,481.61719,327.352,480.54688Q325.461,479.47656,323.062,479.47656Q320.633,479.47656,318.734,480.54688Q316.844,481.61719,315.773,483.5391Q314.711,485.4531,314.711,487.8828Q314.711,490.3047,315.773,492.2266Q316.844,494.1406,318.734,495.2109Q320.633,496.2812,323.062,496.2812ZM323.273,494.1953Q321.641,494.1953,320.391,493.4062Q319.148,492.6094,318.461,491.1562Q317.781,489.7031,317.781,487.8047Q317.781,485.9375,318.461,484.5234Q319.148,483.1016,320.391,482.3359Q321.641,481.57031,323.273,481.57031Q324.64099999999996,481.57031,325.789,482.2109Q326.945,482.8438,327.547,483.9219L326.10900000000004,484.9297Q325.703,484.2344,324.906,483.7656Q324.11699999999996,483.2969,323.273,483.2969Q321.617,483.2969,320.617,484.5312Q319.625,485.7656,319.625,487.8047Q319.625,489.9219,320.617,491.1953Q321.617,492.4609,323.273,492.4609Q324.11699999999996,492.4609,324.898,492.0078Q325.68,491.5547,326.13300000000004,490.7812L327.547,491.8438Q326.922,492.9453,325.781,493.5703Q324.64099999999996,494.1953,323.273,494.1953ZM337.195,495.25L345.695,495.25L345.695,496.9766L334.703,496.9766L334.703,495.4141L340.26599999999996,489.0547Q341.969,487.0625,342.703,485.7656Q343.438,484.4688,343.438,483.3438Q343.438,481.90625,342.50800000000004,481.03125Q341.586,480.14844,340.078,480.14844Q338.828,480.14844,337.828,480.88281Q336.836,481.61719,336.211,483.0312L334.625,482.2422Q335.352,480.41406,336.76599999999996,479.42969Q338.18,478.44531,340.125,478.44531Q341.656,478.44531,342.844,479.03906Q344.039,479.625,344.695,480.71875Q345.35900000000004,481.80469,345.35900000000004,483.25Q345.35900000000004,484.6406,344.555,486.2266Q343.75,487.8047,341.922,489.8984L337.195,495.25ZM354.51599999999996,497.3125Q351.63300000000004,497.3125,350.055,494.8672Q348.48400000000004,492.4141,348.48400000000004,487.8828Q348.48400000000004,483.3438,350.055,480.89844Q351.63300000000004,478.44531,354.51599999999996,478.44531Q357.39099999999996,478.44531,358.977,480.89844Q360.562,483.3438,360.562,487.8828Q360.562,492.4141,358.977,494.8672Q357.39099999999996,497.3125,354.51599999999996,497.3125ZM354.51599999999996,495.5859Q356.477,495.5859,357.555,493.5859Q358.64099999999996,491.5781,358.64099999999996,487.8828Q358.64099999999996,484.1875,357.547,482.1719Q356.453,480.14844,354.51599999999996,480.14844Q352.57,480.14844,351.48400000000004,482.1562Q350.406,484.1562,350.406,487.8828Q350.406,491.5781,351.48400000000004,493.5859Q352.57,495.5859,354.51599999999996,495.5859ZM365.695,495.25L374.195,495.25L374.195,496.9766L363.203,496.9766L363.203,495.4141L368.76599999999996,489.0547Q370.469,487.0625,371.203,485.7656Q371.938,484.4688,371.938,483.3438Q371.938,481.90625,371.00800000000004,481.03125Q370.086,480.14844,368.578,480.14844Q367.328,480.14844,366.328,480.88281Q365.336,481.61719,364.711,483.0312L363.125,482.2422Q363.852,480.41406,365.26599999999996,479.42969Q366.68,478.44531,368.625,478.44531Q370.156,478.44531,371.344,479.03906Q372.539,479.625,373.195,480.71875Q373.85900000000004,481.80469,373.85900000000004,483.25Q373.85900000000004,484.6406,373.055,486.2266Q372.25,487.8047,370.422,489.8984L365.695,495.25ZM382.031,486.3438Q382.48400000000004,486.25,383.062,486.25Q384.406,486.25,385.61699999999996,486.875Q386.828,487.4922,387.586,488.7188Q388.344,489.9453,388.344,491.6719Q388.344,493.375,387.61699999999996,494.6484Q386.898,495.9219,385.578,496.6172Q384.25800000000004,497.3125,382.555,497.3125Q380.60900000000004,497.3125,379.062,496.2734Q377.51599999999996,495.2266,376.797,493.375L378.5,492.75Q379.68,495.5859,382.625,495.5859Q384.328,495.5859,385.375,494.5156Q386.422,493.4453,386.422,491.6719Q386.422,489.8984,385.352,488.8281Q384.281,487.7578,382.50800000000004,487.7578Q381.38300000000004,487.7578,380.375,488.3359L379.344,486.9219L384.906,480.48438L377.25,480.48438L377.25,478.78125L387.35900000000004,478.78125L387.35900000000004,480.34375L381.977,486.25L382.031,486.3438ZM405.273,478.78125Q408.539,478.78125,410.312,480.22656Q412.086,481.66406,412.086,484.3047Q412.086,486.9688,410.36699999999996,488.3984Q408.656,489.8203,405.438,489.8203L401.76599999999996,489.8203L401.76599999999996,496.9766L399.922,496.9766L399.922,478.78125L405.273,478.78125ZM405.102,488.0938Q407.531,488.0938,408.852,487.1094Q410.172,486.125,410.172,484.3047Q410.172,482.4766,408.852,481.50781Q407.531,480.53906,405.102,480.53906L401.76599999999996,480.53906L401.76599999999996,488.0938L405.102,488.0938ZM425.094,484.3047L425.094,496.9766L423.32,496.9766L423.32,495.0547L423.18,495.0547Q422.602,496.0859,421.48400000000004,496.7031Q420.36699999999996,497.3125,419.11699999999996,497.3125Q417.00800000000004,497.3125,415.82,496.0078Q414.63300000000004,494.6953,414.63300000000004,492.3203L414.63300000000004,484.3047L416.406,484.3047L416.406,492.0312Q416.406,493.7109,417.281,494.6953Q418.156,495.6797,419.578,495.6797Q421.23400000000004,495.6797,422.273,494.6016Q423.32,493.5234,423.32,491.8125L423.32,484.3047L425.094,484.3047ZM428.75,496.9766L428.75,484.3047L430.531,484.3047L430.531,486.8516L430.648,486.8516Q431.414,485.5312,432.664,484.75Q433.914,483.9688,435.469,483.9688L435.664,483.9688L435.664,485.8906L435.422,485.8906Q433.961,485.8906,432.844,486.4297Q431.727,486.9688,431.125,487.8438Q430.531,488.7188,430.531,489.6797L430.531,496.9766L428.75,496.9766ZM441.156,497.3125Q439.289,497.3125,438.203,496.3672Q437.125,495.4141,437.125,493.8281Q437.125,489.75,443.48400000000004,489.75L445.35900000000004,489.75L445.35900000000004,488.6016Q445.35900000000004,487.2109,444.539,486.4062Q443.727,485.6016,442.312,485.6016Q440.703,485.6016,439.07,486.9688L438.01599999999996,485.7422Q439.914,483.9688,442.406,483.9688Q444.61699999999996,483.9688,445.88300000000004,485.1484Q447.156,486.3203,447.156,488.3594L447.156,496.9766L445.35900000000004,496.9766L445.35900000000004,495.0547L445.24199999999996,495.0547Q444.664,496.0859,443.547,496.7031Q442.43,497.3125,441.156,497.3125ZM441.469,495.6797Q442.35900000000004,495.6797,443.25800000000004,495.2891Q444.156,494.8906,444.75800000000004,494.0859Q445.35900000000004,493.2812,445.35900000000004,492.1484L445.35900000000004,491.3828L443.82,491.3828Q441.328,491.3828,440.14099999999996,491.9609Q438.953,492.5391,438.953,493.7109Q438.953,494.625,439.625,495.1562Q440.297,495.6797,441.469,495.6797ZM450.75,496.9766L450.75,484.3047L452.531,484.3047L452.531,486.25L452.648,486.25Q453.227,485.2188,454.352,484.5938Q455.477,483.9688,456.703,483.9688Q458.812,483.9688,460.016,485.2891Q461.219,486.6094,461.219,488.9844L461.219,496.9766L459.438,496.9766L459.438,489.2734Q459.438,487.6172,458.539,486.6094Q457.641,485.6016,456.273,485.6016Q454.617,485.6016,453.57,486.6953Q452.531,487.7812,452.531,489.4609L452.531,496.9766L450.75,496.9766ZM475.266,478.78125L475.266,495.2266L484.438,495.2266L484.438,496.9766L473.422,496.9766L473.422,478.78125L475.266,478.78125ZM490.156,497.3125Q488.289,497.3125,487.203,496.3672Q486.125,495.4141,486.125,493.8281Q486.125,489.75,492.484,489.75L494.359,489.75L494.359,488.6016Q494.359,487.2109,493.539,486.4062Q492.727,485.6016,491.312,485.6016Q489.703,485.6016,488.07,486.9688L487.016,485.7422Q488.914,483.9688,491.406,483.9688Q493.617,483.9688,494.883,485.1484Q496.156,486.3203,496.156,488.3594L496.156,496.9766L494.359,496.9766L494.359,495.0547L494.242,495.0547Q493.664,496.0859,492.547,496.7031Q491.43,497.3125,490.156,497.3125ZM490.469,495.6797Q491.359,495.6797,492.258,495.2891Q493.156,494.8906,493.758,494.0859Q494.359,493.2812,494.359,492.1484L494.359,491.3828L492.82,491.3828Q490.328,491.3828,489.141,491.9609Q487.953,492.5391,487.953,493.7109Q487.953,494.625,488.625,495.1562Q489.297,495.6797,490.469,495.6797ZM502.148,479.69531Q502.148,480.27344,501.797,480.60938Q501.453,480.94531,500.883,480.94531Q500.305,480.94531,499.977,480.60938Q499.656,480.27344,499.656,479.69531Q499.656,479.11719,499.977,478.78125Q500.305,478.44531,500.883,478.44531Q501.453,478.44531,501.797,478.78125Q502.148,479.11719,502.148,479.69531ZM501.789,484.3047L501.789,497L500.016,497L500.016,484.3047L501.789,484.3047ZM505.75,496.9766L505.75,494.6484L508.055,494.6484L508.055,496.9766L505.75,496.9766ZM533.953,496.9766L531.9839999999999,496.9766L529.781,490.7578L523.0160000000001,490.7578L520.8050000000001,496.9766L518.836,496.9766L525.414,478.78125L527.3589999999999,478.78125L533.953,496.9766ZM526.3199999999999,481.49219L523.656,488.9844L529.133,488.9844L526.469,481.49219L526.3199999999999,481.49219ZM536.25,478.78125L538.031,478.78125L538.031,494.4766Q538.031,495.5156,539.039,495.5156L539.711,495.5156L539.711,497.1719L538.648,497.1719Q536.25,497.1719,536.25,494.9609L536.25,478.78125ZM542.25,478.78125L544.031,478.78125L544.031,494.4766Q544.031,495.5156,545.039,495.5156L545.711,495.5156L545.711,497.1719L544.648,497.1719Q542.25,497.1719,542.25,494.9609L542.25,478.78125ZM569.5699999999999,496.9766L567.383,496.9766L562.773,489.1797L562.25,489.1797L558.7660000000001,489.1797L558.7660000000001,496.9766L556.922,496.9766L556.922,478.78125L562.0550000000001,478.78125Q565.3199999999999,478.78125,567.086,480.15625Q568.852,481.52344,568.852,484.0391Q568.852,485.9844,567.781,487.2188Q566.711,488.4531,564.6949999999999,488.9375L569.5699999999999,496.9766ZM561.914,487.3984Q564.336,487.3984,565.633,486.5234Q566.9300000000001,485.6484,566.9300000000001,484.0391Q566.9300000000001,482.3594,565.633,481.45312Q564.336,480.53906,561.914,480.53906L558.7660000000001,480.53906L558.7660000000001,487.3984L561.914,487.3984ZM574.148,479.69531Q574.148,480.27344,573.797,480.60938Q573.453,480.94531,572.883,480.94531Q572.3050000000001,480.94531,571.977,480.60938Q571.656,480.27344,571.656,479.69531Q571.656,479.11719,571.977,478.78125Q572.3050000000001,478.44531,572.883,478.44531Q573.453,478.44531,573.797,478.78125Q574.148,479.11719,574.148,479.69531ZM573.789,484.3047L573.789,497L572.0160000000001,497L572.0160000000001,484.3047L573.789,484.3047ZM582.867,503.0234Q581.156,503.0234,579.7660000000001,502.3281Q578.375,501.6328,577.562,500.3828L579.047,499.375Q579.648,500.3125,580.703,500.8359Q581.758,501.3672,582.867,501.3672Q584.7339999999999,501.3672,585.7660000000001,500.2266Q586.797,499.0859,586.797,497.0234L586.797,494.9609L586.656,494.9609Q586.031,496.0859,584.977,496.7031Q583.922,497.3125,582.602,497.3125Q581.062,497.3125,579.812,496.4375Q578.5699999999999,495.5625,577.844,494.0156Q577.125,492.4609,577.125,490.5234Q577.125,488.625,577.836,487.125Q578.547,485.625,579.8050000000001,484.7969Q581.062,483.9688,582.602,483.9688Q583.8199999999999,483.9688,584.875,484.5938Q585.938,485.2188,586.656,486.3203L586.797,486.3203L586.797,484.3281L588.578,484.3281L588.578,496.7344Q588.578,499.7578,587.102,501.3906Q585.625,503.0234,582.867,503.0234ZM583.031,495.5625Q584.156,495.5625,585.023,494.9375Q585.8910000000001,494.3125,586.367,493.1953Q586.852,492.0781,586.852,490.6406Q586.852,489.2266,586.3589999999999,488.1016Q585.867,486.9688,584.977,486.3438Q584.086,485.7188,582.961,485.7188Q581.8050000000001,485.7188,580.8910000000001,486.3438Q579.9839999999999,486.9688,579.469,488.0859Q578.953,489.2031,578.953,490.6406Q578.953,492.0781,579.477,493.1953Q580.008,494.3125,580.9300000000001,494.9375Q581.8589999999999,495.5625,583.031,495.5625ZM592.25,496.9766L592.25,478.78125L594.031,478.78125L594.031,486.25L594.148,486.25Q594.727,485.2188,595.852,484.5938Q596.977,483.9688,598.203,483.9688Q600.312,483.9688,601.5160000000001,485.2891Q602.719,486.6094,602.719,488.9844L602.719,496.9766L600.938,496.9766L600.938,489.2734Q600.938,487.6172,600.039,486.6094Q599.1410000000001,485.6016,597.773,485.6016Q596.117,485.6016,595.0699999999999,486.6953Q594.031,487.7812,594.031,489.4609L594.031,496.9766L592.25,496.9766ZM612.4449999999999,485.9844L608.773,485.9844L608.773,493.4453Q608.773,494.5547,609.3199999999999,495.1641Q609.875,495.7734,610.8589999999999,495.7734Q611.367,495.7734,612.156,495.5156L612.156,497.1719Q611.508,497.4297,610.5,497.4297Q608.797,497.4297,607.883,496.4375Q606.969,495.4375,606.969,493.5938L606.969,485.9844L604.977,485.9844L604.977,484.3047L606.969,484.3047L606.969,480.34375L608.773,480.34375L608.773,484.3047L612.4449999999999,484.3047L612.4449999999999,485.9844ZM618.828,497.3125Q617.031,497.3125,615.7339999999999,496.5547Q614.438,495.7969,613.742,494.5078L615.258,493.6172Q615.828,494.6016,616.75,495.1406Q617.6800000000001,495.6797,618.883,495.6797Q620.1800000000001,495.6797,620.9300000000001,495.1641Q621.688,494.6484,621.688,493.7578Q621.688,492.9219,620.9449999999999,492.3984Q620.203,491.8672,618.523,491.5078Q616.312,490.9766,615.219,490.1172Q614.125,489.25,614.125,487.8281Q614.125,486.0547,615.3589999999999,485.0156Q616.602,483.9688,618.7339999999999,483.9688Q620.3199999999999,483.9688,621.531,484.6562Q622.742,485.3359,623.539,486.6094L622.117,487.6172Q621.492,486.6328,620.617,486.1172Q619.742,485.6016,618.711,485.6016Q617.461,485.6016,616.719,486.1562Q615.977,486.7031,615.977,487.6172Q615.977,488.4062,616.781,488.9609Q617.586,489.5156,619.1949999999999,489.8984Q623.5160000000001,490.8281,623.5160000000001,493.4688Q623.5160000000001,495.25,622.25,496.2812Q620.992,497.3125,618.828,497.3125ZM647.5699999999999,496.9766L645.383,496.9766L640.773,489.1797L640.25,489.1797L636.7660000000001,489.1797L636.7660000000001,496.9766L634.922,496.9766L634.922,478.78125L640.0550000000001,478.78125Q643.3199999999999,478.78125,645.086,480.15625Q646.852,481.52344,646.852,484.0391Q646.852,485.9844,645.781,487.2188Q644.711,488.4531,642.6949999999999,488.9375L647.5699999999999,496.9766ZM639.914,487.3984Q642.336,487.3984,643.633,486.5234Q644.9300000000001,485.6484,644.9300000000001,484.0391Q644.9300000000001,482.3594,643.633,481.45312Q642.336,480.53906,639.914,480.53906L636.7660000000001,480.53906L636.7660000000001,487.3984L639.914,487.3984ZM660.2660000000001,489.6562Q660.2660000000001,490.4219,660.117,491.1406L650.953,491.1406Q651.0699999999999,493.2109,652.188,494.4375Q653.3050000000001,495.6562,655.102,495.6562Q656.156,495.6562,657.0699999999999,495.1562Q657.9839999999999,494.6484,658.586,493.6875L660,494.6484Q659.211,495.9219,657.969,496.6094Q656.7339999999999,497.2891,655.102,497.2891Q653.281,497.2891,651.922,496.4844Q650.5699999999999,495.6797,649.844,494.1797Q649.125,492.6797,649.125,490.6641Q649.125,488.625,649.8199999999999,487.1172Q650.523,485.6016,651.812,484.7891Q653.1089999999999,483.9688,654.867,483.9688Q657.336,483.9688,658.797,485.5156Q660.2660000000001,487.0625,660.2660000000001,489.6562ZM658.438,489.5391Q658.438,487.7578,657.453,486.6797Q656.469,485.6016,654.867,485.6016Q653.328,485.6016,652.3050000000001,486.6562Q651.289,487.7109,651.023,489.5391L658.438,489.5391ZM667.328,497.3125Q665.531,497.3125,664.2339999999999,496.5547Q662.938,495.7969,662.242,494.5078L663.758,493.6172Q664.328,494.6016,665.25,495.1406Q666.1800000000001,495.6797,667.383,495.6797Q668.6800000000001,495.6797,669.4300000000001,495.1641Q670.188,494.6484,670.188,493.7578Q670.188,492.9219,669.4449999999999,492.3984Q668.703,491.8672,667.023,491.5078Q664.812,490.9766,663.719,490.1172Q662.625,489.25,662.625,487.8281Q662.625,486.0547,663.8589999999999,485.0156Q665.102,483.9688,667.2339999999999,483.9688Q668.8199999999999,483.9688,670.031,484.6562Q671.242,485.3359,672.039,486.6094L670.617,487.6172Q669.992,486.6328,669.117,486.1172Q668.242,485.6016,667.211,485.6016Q665.961,485.6016,665.219,486.1562Q664.477,486.7031,664.477,487.6172Q664.477,488.4062,665.281,488.9609Q666.086,489.5156,667.6949999999999,489.8984Q672.0160000000001,490.8281,672.0160000000001,493.4688Q672.0160000000001,495.25,670.75,496.2812Q669.492,497.3125,667.328,497.3125ZM685.2660000000001,489.6562Q685.2660000000001,490.4219,685.117,491.1406L675.953,491.1406Q676.0699999999999,493.2109,677.188,494.4375Q678.3050000000001,495.6562,680.102,495.6562Q681.156,495.6562,682.0699999999999,495.1562Q682.9839999999999,494.6484,683.586,493.6875L685,494.6484Q684.211,495.9219,682.969,496.6094Q681.7339999999999,497.2891,680.102,497.2891Q678.281,497.2891,676.922,496.4844Q675.5699999999999,495.6797,674.844,494.1797Q674.125,492.6797,674.125,490.6641Q674.125,488.625,674.8199999999999,487.1172Q675.523,485.6016,676.812,484.7891Q678.1089999999999,483.9688,679.867,483.9688Q682.336,483.9688,683.797,485.5156Q685.2660000000001,487.0625,685.2660000000001,489.6562ZM683.438,489.5391Q683.438,487.7578,682.453,486.6797Q681.469,485.6016,679.867,485.6016Q678.328,485.6016,677.3050000000001,486.6562Q676.289,487.7109,676.023,489.5391L683.438,489.5391ZM688.25,496.9766L688.25,484.3047L690.031,484.3047L690.031,486.8516L690.148,486.8516Q690.914,485.5312,692.164,484.75Q693.414,483.9688,694.969,483.9688L695.164,483.9688L695.164,485.8906L694.922,485.8906Q693.461,485.8906,692.344,486.4297Q691.227,486.9688,690.625,487.8438Q690.031,488.7188,690.031,489.6797L690.031,496.9766L688.25,496.9766ZM700.5160000000001,496.9766L695.6410000000001,484.3047L697.586,484.3047L701.453,494.7188L701.594,494.7188L705.461,484.3047L707.383,484.3047L702.461,496.9766L700.5160000000001,496.9766ZM719.766,489.6562Q719.766,490.4219,719.617,491.1406L710.453,491.1406Q710.57,493.2109,711.688,494.4375Q712.805,495.6562,714.602,495.6562Q715.656,495.6562,716.57,495.1562Q717.484,494.6484,718.086,493.6875L719.5,494.6484Q718.711,495.9219,717.469,496.6094Q716.234,497.2891,714.602,497.2891Q712.781,497.2891,711.422,496.4844Q710.07,495.6797,709.344,494.1797Q708.625,492.6797,708.625,490.6641Q708.625,488.625,709.32,487.1172Q710.023,485.6016,711.312,484.7891Q712.609,483.9688,714.367,483.9688Q716.836,483.9688,718.297,485.5156Q719.766,487.0625,719.766,489.6562ZM717.938,489.5391Q717.938,487.7578,716.953,486.6797Q715.969,485.6016,714.367,485.6016Q712.828,485.6016,711.805,486.6562Q710.789,487.7109,710.523,489.5391L717.938,489.5391ZM733.578,496.9766L731.797,496.9766L731.797,494.9609L731.656,494.9609Q731.031,496.0859,729.977,496.7031Q728.922,497.3125,727.602,497.3125Q726.039,497.3125,724.789,496.4375Q723.547,495.5625,722.836,494.0156Q722.125,492.4609,722.125,490.5234Q722.125,488.625,722.836,487.125Q723.547,485.625,724.789,484.7969Q726.039,483.9688,727.602,483.9688Q728.82,483.9688,729.875,484.5938Q730.938,485.2188,731.656,486.3203L731.797,486.3203L731.797,478.78125L733.578,478.78125L733.578,496.9766ZM731.852,490.6406Q731.852,489.2266,731.344,488.1016Q730.844,486.9688,729.953,486.3438Q729.062,485.7188,727.938,485.7188Q726.781,485.7188,725.883,486.3438Q724.984,486.9688,724.469,488.0859Q723.953,489.2031,723.953,490.6406Q723.953,492.0781,724.469,493.1953Q724.984,494.3125,725.906,494.9375Q726.828,495.5625,728.008,495.5625Q729.109,495.5625,729.984,494.9375Q730.867,494.3125,731.359,493.1953Q731.852,492.0781,731.852,490.6406ZM737.25,496.9766L737.25,494.6484L739.555,494.6484L739.555,496.9766L737.25,496.9766Z" fill="#3D3D3D" fill-opacity="1"/></g><g style="mix-blend-mode:passthrough"><g style="mix-blend-mode:passthrough" filter="url(#master_svg2_48_2602)"><path d="M341.884,131Q341.88300000000004,165.2948,358.284,212.0223Q375.22900000000004,260.302,409.422,320.95Q409.663,321.378,409.883,321.817Q410.103,322.256,410.301,322.70500000000004Q410.499,323.155,410.675,323.613Q410.85,324.072,411.003,324.538Q411.156,325.005,411.286,325.478Q411.416,325.951,411.523,326.43100000000004Q411.63,326.90999999999997,411.712,327.394Q411.795,327.878,411.855,328.365Q411.914,328.853,411.949,329.342Q411.984,329.832,411.995,330.323Q412.006,330.81399999999996,411.993,331.305Q411.98,331.79499999999996,411.943,332.28499999999997Q411.906,332.774,411.844,333.262Q411.783,333.749,411.698,334.23199999999997Q411.614,334.716,411.505,335.195Q411.396,335.674,411.264,336.14599999999996Q411.133,336.619,410.978,337.08500000000004Q410.823,337.551,410.645,338.009Q410.467,338.467,410.267,338.91499999999996Q410.068,339.363,409.846,339.802Q409.624,340.24,409.381,340.666Q409.139,341.09299999999996,408.875,341.507Q408.612,341.922,408.328,342.322Q408.044,342.723,407.742,343.11Q407.439,343.496,407.117,343.86699999999996Q406.796,344.238,406.457,344.59299999999996Q406.117,344.948,405.761,345.286Q405.405,345.624,405.032,345.94399999999996Q404.66,346.264,404.272,346.565Q403.885,346.866,403.483,347.148Q403.081,347.43,402.665,347.692Q402.25,347.953,401.822,348.195Q400.703,348.826,399.512,349.308Q398.321,349.791,397.077,350.11699999999996Q395.834,350.44399999999996,394.56,350.608Q393.285,350.773,392,350.773L206.1165,350.773Q205.4554,350.773,204.7957,350.72900000000004Q204.136,350.685,203.48059999999998,350.598Q202.8252,350.51099999999997,202.17700000000002,350.381Q201.5289,350.251,200.89069999999998,350.078Q200.2525,349.905,199.62720000000002,349.69100000000003Q199.0018,349.476,198.392,349.221Q197.7821,348.96500000000003,197.1905,348.66999999999996Q196.59890000000001,348.375,196.028,348.04200000000003Q195.4571,347.70799999999997,194.9095,347.33799999999997Q194.3619,346.967,193.84,346.562Q193.31810000000002,346.156,192.8241,345.716Q192.33010000000002,345.277,191.8662,344.80600000000004Q191.4023,344.33500000000004,190.9706,343.834Q190.5388,343.33299999999997,190.141,342.805Q189.7433,342.277,189.3813,341.724Q189.0192,341.171,188.6945,340.595Q152.7706,276.876,134.65774,225.2693Q116,172.1106,116,131Q116,130.509028,116.0241,130.018647Q116.04820000000001,129.52827,116.0963,129.03966Q116.1444,128.55105,116.2165,128.06539Q116.2885,127.57973,116.3843,127.09819Q116.4801,126.61666,116.5994,126.1404Q116.7187,125.66414,116.8612,125.19431Q117.0037,124.72448,117.1691,124.2622Q117.33449999999999,123.79993,117.5224,123.34633Q117.7103,122.89273,117.9202,122.4489Q118.1301,122.00507,118.3616,121.57207Q118.593,121.13907,118.8454,120.7179Q119.0978,120.2968,119.3706,119.8886Q119.6434,119.4804,119.9359,119.086Q120.2283,118.6917,120.5398,118.3121Q120.8513,117.93260000000001,121.181,117.5688Q121.5107,117.205,121.8579,116.8579Q122.205,116.5107,122.5688,116.181Q122.93260000000001,115.8513,123.3121,115.5398Q123.6917,115.2283,124.086,114.9359Q124.4804,114.6434,124.8886,114.3706Q125.2968,114.0978,125.7179,113.8454Q126.13907,113.593,126.57207,113.3616Q127.00507,113.1301,127.4489,112.9202Q127.89273,112.7103,128.34633,112.5224Q128.79993,112.33449999999999,129.2622,112.1691Q129.72448,112.0037,130.19431,111.8612Q130.66414,111.7187,131.1404,111.5994Q131.61666,111.4801,132.09819,111.3843Q132.57973,111.2885,133.06539,111.2165Q133.55105,111.1444,134.03966,111.0963Q134.52827,111.04820000000001,135.018647,111.0241Q135.509028,111,136,111Q136.490972,111,136.981353,111.0241Q137.47173,111.04820000000001,137.96034,111.0963Q138.44895,111.1444,138.93461,111.2165Q139.42027,111.2885,139.90181,111.3843Q140.38334,111.4801,140.8596,111.5994Q141.33586,111.7187,141.80569,111.8612Q142.27552,112.0037,142.7378,112.1691Q143.20007,112.33449999999999,143.65367,112.5224Q144.10727,112.7103,144.5511,112.9202Q144.99493,113.1301,145.42793,113.3616Q145.86093,113.593,146.2821,113.8454Q146.7032,114.0978,147.1114,114.3706Q147.5196,114.6434,147.914,114.9359Q148.3083,115.2283,148.6879,115.5398Q149.0674,115.8513,149.4312,116.181Q149.795,116.5107,150.1421,116.8579Q150.48930000000001,117.205,150.819,117.5688Q151.1487,117.93260000000001,151.4602,118.3121Q151.7717,118.6917,152.0641,119.086Q152.35660000000001,119.4804,152.6294,119.8886Q152.9022,120.2968,153.1546,120.7179Q153.407,121.13907,153.6384,121.57207Q153.8699,122.00507,154.0798,122.4489Q154.2897,122.89273,154.4776,123.34633Q154.6655,123.79993,154.83089999999999,124.2622Q154.9963,124.72448,155.1388,125.19431Q155.2813,125.66414,155.4006,126.1404Q155.5199,126.61666,155.6157,127.09819Q155.7115,127.57973,155.7835,128.06539Q155.8556,128.55105,155.90370000000001,129.03966Q155.9518,129.52827,155.9759,130.018647Q156,130.509028,156,131Q156,165.2948,172.4005,212.0223Q189.3459,260.302,223.5384,320.95L206.1165,330.773L206.1165,310.773L392,310.773L392,330.773L374.578,340.595Q338.654,276.876,320.541,225.2693Q301.884,172.1106,301.884,131Q301.884,130.509028,301.908,130.018647Q301.932,129.52827,301.98,129.03966Q302.028,128.55105,302.1,128.06539Q302.172,127.57973,302.26800000000003,127.09819Q302.36400000000003,126.61666,302.483,126.1404Q302.602,125.66414,302.745,125.19431Q302.887,124.72448,303.053,124.2622Q303.21799999999996,123.79993,303.406,123.34633Q303.594,122.89273,303.804,122.4489Q304.014,122.00507,304.245,121.57207Q304.477,121.13907,304.72900000000004,120.7179Q304.981,120.2968,305.254,119.8886Q305.527,119.4804,305.81899999999996,119.086Q306.11199999999997,118.6917,306.423,118.3121Q306.735,117.93260000000001,307.06399999999996,117.5688Q307.394,117.205,307.741,116.8579Q308.089,116.5107,308.452,116.181Q308.81600000000003,115.8513,309.196,115.5398Q309.575,115.2283,309.97,114.9359Q310.36400000000003,114.6434,310.772,114.3706Q311.18,114.0978,311.601,113.8454Q312.023,113.593,312.456,113.3616Q312.889,113.1301,313.332,112.9202Q313.776,112.7103,314.23,112.5224Q314.683,112.33449999999999,315.14599999999996,112.1691Q315.608,112.0037,316.078,111.8612Q316.548,111.7187,317.024,111.5994Q317.5,111.4801,317.98199999999997,111.3843Q318.46299999999997,111.2885,318.949,111.2165Q319.435,111.1444,319.923,111.0963Q320.41200000000003,111.04820000000001,320.902,111.0241Q321.39300000000003,111,321.884,111Q322.374,111,322.865,111.0241Q323.355,111.04820000000001,323.844,111.0963Q324.332,111.1444,324.818,111.2165Q325.304,111.2885,325.78499999999997,111.3843Q326.267,111.4801,326.743,111.5994Q327.219,111.7187,327.68899999999996,111.8612Q328.159,112.0037,328.621,112.1691Q329.084,112.33449999999999,329.53700000000003,112.5224Q329.991,112.7103,330.435,112.9202Q330.878,113.1301,331.31100000000004,113.3616Q331.744,113.593,332.166,113.8454Q332.587,114.0978,332.995,114.3706Q333.403,114.6434,333.797,114.9359Q334.192,115.2283,334.571,115.5398Q334.951,115.8513,335.315,116.181Q335.678,116.5107,336.026,116.8579Q336.373,117.205,336.703,117.5688Q337.03200000000004,117.93260000000001,337.344,118.3121Q337.655,118.6917,337.948,119.086Q338.24,119.4804,338.51300000000003,119.8886Q338.786,120.2968,339.038,120.7179Q339.28999999999996,121.13907,339.522,121.57207Q339.753,122.00507,339.96299999999997,122.4489Q340.173,122.89273,340.361,123.34633Q340.549,123.79993,340.714,124.2622Q340.88,124.72448,341.022,125.19431Q341.16499999999996,125.66414,341.284,126.1404Q341.403,126.61666,341.499,127.09819Q341.595,127.57973,341.66700000000003,128.06539Q341.73900000000003,128.55105,341.78700000000003,129.03966Q341.83500000000004,129.52827,341.85900000000004,130.018647Q341.884,130.509028,341.884,131ZM116,380.803L116,131Q116,130.509028,116.0241,130.018647Q116.04820000000001,129.52827,116.0963,129.03966Q116.1444,128.55105,116.2165,128.06539Q116.2885,127.57973,116.3843,127.09819Q116.4801,126.61666,116.5994,126.1404Q116.7187,125.66414,116.8612,125.19431Q117.0037,124.72448,117.1691,124.2622Q117.33449999999999,123.79993,117.5224,123.34633Q117.7103,122.89273,117.9202,122.4489Q118.1301,122.00507,118.3616,121.57207Q118.593,121.13907,118.8454,120.7179Q119.0978,120.2968,119.3706,119.8886Q119.6434,119.4804,119.9359,119.086Q120.2283,118.6917,120.5398,118.3121Q120.8513,117.93260000000001,121.181,117.5688Q121.5107,117.205,121.8579,116.8579Q122.205,116.5107,122.5688,116.181Q122.93260000000001,115.8513,123.3121,115.5398Q123.6917,115.2283,124.086,114.9359Q124.4804,114.6434,124.8886,114.3706Q125.2968,114.0978,125.7179,113.8454Q126.13907,113.593,126.57207,113.3616Q127.00507,113.1301,127.4489,112.9202Q127.89273,112.7103,128.34633,112.5224Q128.79993,112.33449999999999,129.2622,112.1691Q129.72448,112.0037,130.19431,111.8612Q130.66414,111.7187,131.1404,111.5994Q131.61666,111.4801,132.09819,111.3843Q132.57973,111.2885,133.06539,111.2165Q133.55105,111.1444,134.03966,111.0963Q134.52827,111.04820000000001,135.018647,111.0241Q135.509028,111,136,111L321.884,111Q322.374,111,322.865,111.0241Q323.355,111.04820000000001,323.844,111.0963Q324.332,111.1444,324.818,111.2165Q325.304,111.2885,325.78499999999997,111.3843Q326.267,111.4801,326.743,111.5994Q327.219,111.7187,327.68899999999996,111.8612Q328.159,112.0037,328.621,112.1691Q329.084,112.33449999999999,329.53700000000003,112.5224Q329.991,112.7103,330.435,112.9202Q330.878,113.1301,331.31100000000004,113.3616Q331.744,113.593,332.166,113.8454Q332.587,114.0978,332.995,114.3706Q333.403,114.6434,333.797,114.9359Q334.192,115.2283,334.571,115.5398Q334.951,115.8513,335.315,116.181Q335.678,116.5107,336.026,116.8579Q336.373,117.205,336.703,117.5688Q337.03200000000004,117.93260000000001,337.344,118.3121Q337.655,118.6917,337.948,119.086Q338.24,119.4804,338.51300000000003,119.8886Q338.786,120.2968,339.038,120.7179Q339.28999999999996,121.13907,339.522,121.57207Q339.753,122.00507,339.96299999999997,122.4489Q340.173,122.89273,340.361,123.34633Q340.549,123.79993,340.714,124.2622Q340.88,124.72448,341.022,125.19431Q341.16499999999996,125.66414,341.284,126.1404Q341.403,126.61666,341.499,127.09819Q341.595,127.57973,341.66700000000003,128.06539Q341.73900000000003,128.55105,341.78700000000003,129.03966Q341.83500000000004,129.52827,341.85900000000004,130.018647Q341.884,130.509028,341.884,131L341.884,380.803Q341.884,381.294,341.85900000000004,381.78499999999997Q341.83500000000004,382.275,341.78700000000003,382.764Q341.73900000000003,383.252,341.66700000000003,383.738Q341.595,384.224,341.499,384.70500000000004Q341.403,385.187,341.284,385.663Q341.16499999999996,386.139,341.022,386.60900000000004Q340.88,387.079,340.714,387.541Q340.549,388.003,340.361,388.457Q340.173,388.911,339.96299999999997,389.354Q339.753,389.798,339.522,390.231Q339.28999999999996,390.664,339.038,391.085Q338.786,391.507,338.51300000000003,391.915Q338.24,392.323,337.948,392.717Q337.655,393.112,337.344,393.491Q337.03200000000004,393.871,336.703,394.234Q336.373,394.598,336.026,394.945Q335.678,395.293,335.315,395.622Q334.951,395.952,334.571,396.264Q334.192,396.575,333.797,396.867Q333.403,397.16,332.995,397.433Q332.587,397.705,332.166,397.958Q331.744,398.21,331.31100000000004,398.442Q330.878,398.673,330.435,398.883Q329.991,399.093,329.53700000000003,399.281Q329.084,399.469,328.621,399.634Q328.159,399.8,327.68899999999996,399.942Q327.219,400.085,326.743,400.204Q326.267,400.323,325.78499999999997,400.419Q325.304,400.515,324.818,400.587Q324.332,400.659,323.844,400.707Q323.355,400.755,322.865,400.779Q322.374,400.803,321.884,400.803L136,400.803Q135.509028,400.803,135.018647,400.779Q134.52827,400.755,134.03966,400.707Q133.55105,400.659,133.06539,400.587Q132.57973,400.515,132.09819,400.419Q131.61666,400.323,131.1404,400.204Q130.66414,400.085,130.19431,399.942Q129.72448,399.8,129.2622,399.634Q128.79993,399.469,128.34633,399.281Q127.89273,399.093,127.4489,398.883Q127.00507,398.673,126.57207,398.442Q126.13907,398.21,125.7179,397.958Q125.2968,397.705,124.8886,397.433Q124.4804,397.16,124.086,396.867Q123.6917,396.575,123.3121,396.264Q122.93260000000001,395.952,122.5688,395.622Q122.205,395.293,121.8579,394.945Q121.5107,394.598,121.181,394.234Q120.8513,393.871,120.5398,393.491Q120.2283,393.112,119.9359,392.717Q119.6434,392.323,119.3706,391.915Q119.0978,391.507,118.8454,391.085Q118.593,390.664,118.3616,390.231Q118.1301,389.798,117.9202,389.354Q117.7103,388.911,117.5224,388.457Q117.33449999999999,388.003,117.1691,387.541Q117.0037,387.079,116.8612,386.60900000000004Q116.7187,386.139,116.5994,385.663Q116.4801,385.187,116.3843,384.70500000000004Q116.2885,384.224,116.2165,383.738Q116.1444,383.252,116.0963,382.764Q116.04820000000001,382.275,116.0241,381.78499999999997Q116,381.294,116,380.803ZM156,380.803L136,380.803L136,360.803L321.884,360.803L321.884,380.803L301.884,380.803L301.884,131L321.884,131L321.884,151L136,151L136,131L156,131L156,380.803Z" fill="url(#master_svg3_5_2560)" fill-opacity="1"/></g><g style="mix-blend-mode:passthrough" filter="url(#master_svg4_48_2603)"><path d="M136,131Q136,206.4053,206.1165,330.773L392,330.773Q321.884,206.4053,321.884,131L136,131Z" fill="url(#master_svg5_5_4302)" fill-opacity="1"/><path d="M188.6945,340.595Q152.7706,276.876,134.65774,225.2693Q116,172.1106,116,131Q116,130.509028,116.0241,130.018647Q116.04820000000001,129.52827,116.0963,129.03966Q116.1444,128.55105,116.2165,128.06539Q116.2885,127.57973,116.3843,127.09819Q116.4801,126.61666,116.5994,126.1404Q116.7187,125.66414,116.8612,125.19431Q117.0037,124.72448,117.1691,124.2622Q117.33449999999999,123.79993,117.5224,123.34633Q117.7103,122.89273,117.9202,122.4489Q118.1301,122.00507,118.3616,121.57207Q118.593,121.13907,118.8454,120.7179Q119.0978,120.2968,119.3706,119.8886Q119.6434,119.4804,119.9359,119.086Q120.2283,118.6917,120.5398,118.3121Q120.8513,117.93260000000001,121.181,117.5688Q121.5107,117.205,121.8579,116.8579Q122.205,116.5107,122.5688,116.181Q122.93260000000001,115.8513,123.3121,115.5398Q123.6917,115.2283,124.086,114.9359Q124.4804,114.6434,124.8886,114.3706Q125.2968,114.0978,125.7179,113.8454Q126.13907,113.593,126.57207,113.3616Q127.00507,113.1301,127.4489,112.9202Q127.89273,112.7103,128.34633,112.5224Q128.79993,112.33449999999999,129.2622,112.1691Q129.72448,112.0037,130.19431,111.8612Q130.66414,111.7187,131.1404,111.5994Q131.61666,111.4801,132.09819,111.3843Q132.57973,111.2885,133.06539,111.2165Q133.55105,111.1444,134.03966,111.0963Q134.52827,111.04820000000001,135.018647,111.0241Q135.509028,111,136,111L321.884,111Q322.374,111,322.865,111.0241Q323.355,111.04820000000001,323.844,111.0963Q324.332,111.1444,324.818,111.2165Q325.304,111.2885,325.78499999999997,111.3843Q326.267,111.4801,326.743,111.5994Q327.219,111.7187,327.68899999999996,111.8612Q328.159,112.0037,328.621,112.1691Q329.084,112.33449999999999,329.53700000000003,112.5224Q329.991,112.7103,330.435,112.9202Q330.878,113.1301,331.31100000000004,113.3616Q331.744,113.593,332.166,113.8454Q332.587,114.0978,332.995,114.3706Q333.403,114.6434,333.797,114.9359Q334.192,115.2283,334.571,115.5398Q334.951,115.8513,335.315,116.181Q335.678,116.5107,336.026,116.8579Q336.373,117.205,336.703,117.5688Q337.03200000000004,117.93260000000001,337.344,118.3121Q337.655,118.6917,337.948,119.086Q338.24,119.4804,338.51300000000003,119.8886Q338.786,120.2968,339.038,120.7179Q339.28999999999996,121.13907,339.522,121.57207Q339.753,122.00507,339.96299999999997,122.4489Q340.173,122.89273,340.361,123.34633Q340.549,123.79993,340.714,124.2622Q340.88,124.72448,341.022,125.19431Q341.16499999999996,125.66414,341.284,126.1404Q341.403,126.61666,341.499,127.09819Q341.595,127.57973,341.66700000000003,128.06539Q341.73900000000003,128.55105,341.78700000000003,129.03966Q341.83500000000004,129.52827,341.85900000000004,130.018647Q341.884,130.509028,341.884,131Q341.88300000000004,165.2948,358.284,212.0223Q375.22900000000004,260.302,409.422,320.95Q409.663,321.378,409.883,321.817Q410.103,322.256,410.301,322.70500000000004Q410.499,323.155,410.675,323.613Q410.85,324.072,411.003,324.538Q411.156,325.005,411.286,325.478Q411.416,325.951,411.523,326.43100000000004Q411.63,326.90999999999997,411.712,327.394Q411.795,327.878,411.855,328.365Q411.914,328.853,411.949,329.342Q411.984,329.832,411.995,330.323Q412.006,330.81399999999996,411.993,331.305Q411.98,331.79499999999996,411.943,332.28499999999997Q411.906,332.774,411.844,333.262Q411.783,333.749,411.698,334.23199999999997Q411.614,334.716,411.505,335.195Q411.396,335.674,411.264,336.14599999999996Q411.133,336.619,410.978,337.08500000000004Q410.823,337.551,410.645,338.009Q410.467,338.467,410.267,338.91499999999996Q410.068,339.363,409.846,339.802Q409.624,340.24,409.381,340.666Q409.139,341.09299999999996,408.875,341.507Q408.612,341.922,408.328,342.322Q408.044,342.723,407.742,343.11Q407.439,343.496,407.117,343.86699999999996Q406.796,344.238,406.457,344.59299999999996Q406.117,344.948,405.761,345.286Q405.405,345.624,405.032,345.94399999999996Q404.66,346.264,404.272,346.565Q403.885,346.866,403.483,347.148Q403.081,347.43,402.665,347.692Q402.25,347.953,401.822,348.195Q400.703,348.826,399.512,349.308Q398.321,349.791,397.077,350.11699999999996Q395.834,350.44399999999996,394.56,350.608Q393.285,350.773,392,350.773L206.1165,350.773Q205.4554,350.773,204.7957,350.72900000000004Q204.136,350.685,203.48059999999998,350.598Q202.8252,350.51099999999997,202.17700000000002,350.381Q201.5289,350.251,200.89069999999998,350.078Q200.2525,349.905,199.62720000000002,349.69100000000003Q199.0018,349.476,198.392,349.221Q197.7821,348.96500000000003,197.1905,348.66999999999996Q196.59890000000001,348.375,196.028,348.04200000000003Q195.4571,347.70799999999997,194.9095,347.33799999999997Q194.3619,346.967,193.84,346.562Q193.31810000000002,346.156,192.8241,345.716Q192.33010000000002,345.277,191.8662,344.80600000000004Q191.4023,344.33500000000004,190.9706,343.834Q190.5388,343.33299999999997,190.141,342.805Q189.7433,342.277,189.3813,341.724Q189.0192,341.171,188.6945,340.595ZM223.5384,320.95L206.1165,330.773L206.1165,310.773L392,310.773L392,330.773L374.578,340.595Q338.654,276.876,320.541,225.2693Q301.884,172.1106,301.884,131L321.884,131L321.884,151L136,151L136,131L156,131Q156,165.2948,172.4005,212.0223Q189.3459,260.302,223.5384,320.95Z" fill="url(#master_svg6_5_2560)" fill-opacity="1"/></g></g></g></svg>